<svg width="531" height="437" viewBox="0 0 531 437" fill="none" xmlns="http://www.w3.org/2000/svg">
<mask id="mask0_842_54" style="mask-type:alpha" maskUnits="userSpaceOnUse" x="379" y="213" width="224" height="224">
<circle cx="491" cy="325" r="112" fill="#C4C4C4"/>
</mask>
<g mask="url(#mask0_842_54)">
<line x1="517.257" y1="154.445" x2="321.98" y2="349.723" stroke="#96C0DF" stroke-width="4"/>
<line x1="541.125" y1="178.313" x2="345.847" y2="373.59" stroke="#96C0DF" stroke-width="4"/>
<line x1="564.992" y1="202.18" x2="369.714" y2="397.458" stroke="#96C0DF" stroke-width="4"/>
<line x1="588.86" y1="226.047" x2="393.582" y2="421.325" stroke="#96C0DF" stroke-width="4"/>
<line x1="612.727" y1="249.915" x2="417.449" y2="445.192" stroke="#96C0DF" stroke-width="4"/>
<line x1="636.594" y1="273.782" x2="441.316" y2="469.059" stroke="#96C0DF" stroke-width="4"/>
<line x1="660.461" y1="297.649" x2="465.183" y2="492.927" stroke="#96C0DF" stroke-width="4"/>
<line x1="684.328" y1="321.516" x2="489.051" y2="516.794" stroke="#96C0DF" stroke-width="4"/>
</g>
<mask id="mask1_842_54" style="mask-type:alpha" maskUnits="userSpaceOnUse" x="93" y="0" width="224" height="224">
<circle cx="205" cy="112" r="112" fill="#C4C4C4"/>
</mask>
<g mask="url(#mask1_842_54)">
<line x1="231.257" y1="-58.5546" x2="35.9797" y2="136.723" stroke="#96C0DF" stroke-width="4"/>
<line x1="255.125" y1="-34.6873" x2="59.8469" y2="160.59" stroke="#96C0DF" stroke-width="4"/>
<line x1="278.992" y1="-10.8201" x2="83.7141" y2="184.458" stroke="#96C0DF" stroke-width="4"/>
<line x1="302.86" y1="13.0473" x2="107.582" y2="208.325" stroke="#96C0DF" stroke-width="4"/>
<line x1="326.727" y1="36.9145" x2="131.449" y2="232.192" stroke="#96C0DF" stroke-width="4"/>
<line x1="350.594" y1="60.7818" x2="155.316" y2="256.059" stroke="#96C0DF" stroke-width="4"/>
<line x1="374.461" y1="84.649" x2="179.183" y2="279.927" stroke="#96C0DF" stroke-width="4"/>
<line x1="398.328" y1="108.516" x2="203.051" y2="303.794" stroke="#96C0DF" stroke-width="4"/>
</g>
<g filter="url(#filter0_d_842_54)">
<rect x="243" y="312" width="122" height="18" fill="#DFF7FF"/>
<path d="M357 334C360.448 334 363.754 332.63 366.192 330.192C368.63 327.754 370 324.448 370 321C370 317.552 368.63 314.246 366.192 311.808C363.754 309.37 360.448 308 357 308" stroke="#B1E2FD" stroke-width="14"/>
<path d="M242.6 301C238.734 301 235.6 304.134 235.6 308C235.6 311.866 238.734 315 242.6 315L242.6 301ZM351 315L358 315L358 301L351 301L351 315ZM242.6 315L351 315L351 301L242.6 301L242.6 315Z" fill="#B1E2FD"/>
<path d="M242.6 327C238.734 327 235.6 330.134 235.6 334C235.6 337.866 238.734 341 242.6 341L242.6 327ZM351 341L358 341L358 327L351 327L351 341ZM242.6 341L351 341L351 327L242.6 327L242.6 341Z" fill="#B1E2FD"/>
</g>
<g filter="url(#filter1_d_842_54)">
<rect width="122" height="18" transform="matrix(-1 0 0 1 548.6 291)" fill="#DFF7FF"/>
<path d="M434.6 313C431.152 313 427.845 311.63 425.407 309.192C422.969 306.754 421.6 303.448 421.6 300C421.6 296.552 422.969 293.246 425.407 290.808C427.845 288.37 431.152 287 434.6 287" stroke="#B1E2FD" stroke-width="14"/>
<path d="M549 280C552.866 280 556 283.134 556 287C556 290.866 552.866 294 549 294L549 280ZM440.6 294L433.6 294L433.6 280L440.6 280L440.6 294ZM549 294L440.6 294L440.6 280L549 280L549 294Z" fill="#B1E2FD"/>
<path d="M549 306C552.866 306 556 309.134 556 313C556 316.866 552.866 320 549 320L549 306ZM440.6 320L433.6 320L433.6 306L440.6 306L440.6 320ZM549 320L440.6 320L440.6 306L549 306L549 320Z" fill="#B1E2FD"/>
</g>
<g filter="url(#filter2_d_842_54)">
<rect width="170" height="38" transform="matrix(-1 0 0 1 384 188)" fill="#B1E2FD"/>
<path d="M230 184C223.9 184 218.05 186.423 213.737 190.737C209.423 195.05 207 200.9 207 207C207 213.1 209.423 218.95 213.737 223.263C218.05 227.577 223.9 230 230 230" stroke="#96C0DF" stroke-width="14"/>
<path d="M237 177L230 177L230 191L237 191L237 177ZM384 191C387.866 191 391 187.866 391 184C391 180.134 387.866 177 384 177L384 191ZM237 191L384 191L384 177L237 177L237 191Z" fill="#96C0DF"/>
<path d="M237 223L230 223L230 237L237 237L237 223ZM384 237C387.866 237 391 233.866 391 230C391 226.134 387.866 223 384 223L384 237ZM237 237L384 237L384 223L237 223L237 237Z" fill="#96C0DF"/>
</g>
<g filter="url(#filter3_d_842_54)">
<rect x="221" y="130" width="144" height="30" fill="#96C0DF"/>
<path d="M235 127C232.636 127 230.296 127.466 228.112 128.37C225.928 129.275 223.944 130.601 222.272 132.272C220.601 133.944 219.275 135.928 218.37 138.112C217.466 140.296 217 142.636 217 145C217 147.364 217.466 149.704 218.37 151.888C219.275 154.072 220.601 156.056 222.272 157.728C223.944 159.399 225.928 160.725 228.112 161.63C230.296 162.534 232.636 163 235 163" stroke="#376EA7" stroke-width="14"/>
<path d="M365 120C368.866 120 372 123.134 372 127C372 130.866 368.866 134 365 134L365 120ZM241.71 134L234.71 134L234.71 120L241.71 120L241.71 134ZM365 134L241.71 134L241.71 120L365 120L365 134Z" fill="#376EA7"/>
<path d="M365 156C368.866 156 372 159.134 372 163C372 166.866 368.866 170 365 170L365 156ZM241.71 170L234.71 170L234.71 156L241.71 156L241.71 170ZM365 170L241.71 170L241.71 156L365 156L365 170Z" fill="#376EA7"/>
</g>
<g filter="url(#filter4_d_842_54)">
<rect x="217" y="254" width="144" height="30" fill="#B1E2FD"/>
<path d="M231 251C228.636 251 226.296 251.466 224.112 252.37C221.928 253.275 219.944 254.601 218.272 256.272C216.601 257.944 215.275 259.928 214.37 262.112C213.466 264.296 213 266.636 213 269C213 271.364 213.466 273.704 214.37 275.888C215.275 278.072 216.601 280.056 218.272 281.728C219.944 283.399 221.928 284.725 224.112 285.63C226.296 286.534 228.636 287 231 287" stroke="#82C7F8" stroke-width="14"/>
<path d="M361 244C364.866 244 368 247.134 368 251C368 254.866 364.866 258 361 258L361 244ZM237.71 258L230.71 258L230.71 244L237.71 244L237.71 258ZM361 258L237.71 258L237.71 244L361 244L361 258Z" fill="#82C7F8"/>
<path d="M361 280C364.866 280 368 283.134 368 287C368 290.866 364.866 294 361 294L361 280ZM237.71 294L230.71 294L230.71 280L237.71 280L237.71 294ZM361 294L237.71 294L237.71 280L361 280L361 294Z" fill="#82C7F8"/>
</g>
<g filter="url(#filter5_d_842_54)">
<rect x="40" y="217" width="122" height="18" fill="#96C0DF"/>
<path d="M154 239C157.448 239 160.754 237.63 163.192 235.192C165.63 232.754 167 229.448 167 226C167 222.552 165.63 219.246 163.192 216.808C160.754 214.37 157.448 213 154 213" stroke="#376EA7" stroke-width="14"/>
<path d="M39.6001 206C35.7341 206 32.6001 209.134 32.6001 213C32.6001 216.866 35.7341 220 39.6001 220L39.6001 206ZM148 220L155 220L155 206L148 206L148 220ZM39.6001 220L148 220L148 206L39.6001 206L39.6001 220Z" fill="#376EA7"/>
<path d="M39.5996 232C35.7336 232 32.5996 235.134 32.5996 239C32.5996 242.866 35.7336 246 39.5996 246L39.5996 232ZM148 246L155 246L155 232L148 232L148 246ZM39.5996 246L148 246L148 232L39.5996 232L39.5996 246Z" fill="#376EA7"/>
</g>
<g filter="url(#filter6_d_842_54)">
<rect width="134" height="42" transform="matrix(-1 0 0 1 162 148)" fill="#96C0DF"/>
<path d="M46 192C42.9796 192 39.9888 191.405 37.1983 190.249C34.4078 189.093 31.8723 187.399 29.7365 185.263C27.6008 183.128 25.9066 180.592 24.7508 177.802C23.5949 175.011 23 172.02 23 169C23 165.98 23.5949 162.989 24.7508 160.198C25.9066 157.408 27.6008 154.872 29.7365 152.737C31.8723 150.601 34.4078 148.907 37.1983 147.751C39.9888 146.595 42.9796 146 46 146" stroke="#376EA7" stroke-width="14"/>
<path d="M53 139L46 139L46 153L53 153L53 139ZM162 153C165.866 153 169 149.866 169 146C169 142.134 165.866 139 162 139L162 153ZM53 153L162 153L162 139L53 139L53 153Z" fill="#376EA7"/>
<path d="M53 185L46 185L46 199L53 199L53 185ZM162 199C165.866 199 169 195.866 169 192C169 188.134 165.866 185 162 185L162 199ZM53 199L162 199L162 185L53 185L53 199Z" fill="#376EA7"/>
</g>
<g filter="url(#filter7_d_842_54)">
<rect x="11" y="264" width="170" height="38" fill="#DFF7FF"/>
<path d="M165 260C171.1 260 176.95 262.423 181.263 266.737C185.577 271.05 188 276.9 188 283C188 289.1 185.577 294.95 181.263 299.263C176.95 303.577 171.1 306 165 306" stroke="#B1E2FD" stroke-width="14"/>
<path d="M158 253L165 253L165 267L158 267L158 253ZM11 267C7.134 267 4 263.866 4 260C4 256.134 7.134 253 11 253L11 267ZM158 267L11 267L11 253L158 253L158 267Z" fill="#B1E2FD"/>
<path d="M158 299L165 299L165 313L158 313L158 299ZM11 313C7.134 313 4 309.866 4 306C4 302.134 7.134 299 11 299L11 313ZM158 313L11 313L11 299L158 299L158 313Z" fill="#B1E2FD"/>
</g>
<g filter="url(#filter8_d_842_54)">
<rect x="402" y="224" width="170" height="38" fill="#DFF7FF"/>
<path d="M549 213L556 213L556 227L549 227L549 213ZM402 227C398.134 227 395 223.866 395 220C395 216.134 398.134 213 402 213L402 227ZM549 227L402 227L402 213L549 213L549 227Z" fill="#B1E2FD"/>
<path d="M549 259L556 259L556 273L549 273L549 259ZM402 273C398.134 273 395 269.866 395 266C395 262.134 398.134 259 402 259L402 273ZM549 273L402 273L402 259L549 259L549 273Z" fill="#B1E2FD"/>
</g>
<g filter="url(#filter9_d_842_54)">
<rect x="22" y="330" width="144" height="30" fill="#B1E2FD"/>
<path d="M36 327C33.6362 327 31.2956 327.466 29.1117 328.37C26.9278 329.275 24.9435 330.601 23.2721 332.272C21.6006 333.944 20.2748 335.928 19.3702 338.112C18.4656 340.296 18 342.636 18 345C18 347.364 18.4656 349.704 19.3702 351.888C20.2748 354.072 21.6006 356.056 23.2721 357.728C24.9435 359.399 26.9278 360.725 29.1117 361.63C31.2956 362.534 33.6362 363 36 363" stroke="#82C7F8" stroke-width="14"/>
<path d="M166 320C169.866 320 173 323.134 173 327C173 330.866 169.866 334 166 334L166 320ZM42.7097 334L35.7097 334L35.7097 320L42.7097 320L42.7097 334ZM166 334L42.7097 334L42.7097 320L166 320L166 334Z" fill="#82C7F8"/>
<path d="M166 356C169.866 356 173 359.134 173 363C173 366.866 169.866 370 166 370L166 356ZM42.7097 370L35.7097 370L35.7097 356L42.7097 356L42.7097 370ZM166 370L42.7097 370L42.7097 356L166 356L166 370Z" fill="#82C7F8"/>
</g>
<g filter="url(#filter10_d_842_54)">
<rect x="412" y="166" width="144" height="30" fill="#96C0DF"/>
<path d="M426 163C423.636 163 421.296 163.466 419.112 164.37C416.928 165.275 414.944 166.601 413.272 168.272C411.601 169.944 410.275 171.928 409.37 174.112C408.466 176.296 408 178.636 408 181C408 183.364 408.466 185.704 409.37 187.888C410.275 190.072 411.601 192.056 413.272 193.728C414.944 195.399 416.928 196.725 419.112 197.63C421.296 198.534 423.636 199 426 199" stroke="#376EA7" stroke-width="14"/>
<path d="M556 156C559.866 156 563 159.134 563 163C563 166.866 559.866 170 556 170L556 156ZM432.71 170L425.71 170L425.71 156L432.71 156L432.71 170ZM556 170L432.71 170L432.71 156L556 156L556 170Z" fill="#376EA7"/>
<path d="M556 192C559.866 192 563 195.134 563 199C563 202.866 559.866 206 556 206L556 192ZM432.71 206L425.71 206L425.71 192L432.71 192L432.71 206ZM556 206L432.71 206L432.71 192L556 192L556 206Z" fill="#376EA7"/>
</g>
<defs>
<filter id="filter0_d_842_54" x="231.6" y="301" width="149.4" height="48" filterUnits="userSpaceOnUse" color-interpolation-filters="sRGB">
<feFlood flood-opacity="0" result="BackgroundImageFix"/>
<feColorMatrix in="SourceAlpha" type="matrix" values="0 0 0 0 0 0 0 0 0 0 0 0 0 0 0 0 0 0 127 0" result="hardAlpha"/>
<feOffset dy="4"/>
<feGaussianBlur stdDeviation="2"/>
<feComposite in2="hardAlpha" operator="out"/>
<feColorMatrix type="matrix" values="0 0 0 0 0 0 0 0 0 0 0 0 0 0 0 0 0 0 0.25 0"/>
<feBlend mode="normal" in2="BackgroundImageFix" result="effect1_dropShadow_842_54"/>
<feBlend mode="normal" in="SourceGraphic" in2="effect1_dropShadow_842_54" result="shape"/>
</filter>
<filter id="filter1_d_842_54" x="410.6" y="280" width="149.4" height="48" filterUnits="userSpaceOnUse" color-interpolation-filters="sRGB">
<feFlood flood-opacity="0" result="BackgroundImageFix"/>
<feColorMatrix in="SourceAlpha" type="matrix" values="0 0 0 0 0 0 0 0 0 0 0 0 0 0 0 0 0 0 127 0" result="hardAlpha"/>
<feOffset dy="4"/>
<feGaussianBlur stdDeviation="2"/>
<feComposite in2="hardAlpha" operator="out"/>
<feColorMatrix type="matrix" values="0 0 0 0 0 0 0 0 0 0 0 0 0 0 0 0 0 0 0.25 0"/>
<feBlend mode="normal" in2="BackgroundImageFix" result="effect1_dropShadow_842_54"/>
<feBlend mode="normal" in="SourceGraphic" in2="effect1_dropShadow_842_54" result="shape"/>
</filter>
<filter id="filter2_d_842_54" x="196" y="177" width="199" height="68" filterUnits="userSpaceOnUse" color-interpolation-filters="sRGB">
<feFlood flood-opacity="0" result="BackgroundImageFix"/>
<feColorMatrix in="SourceAlpha" type="matrix" values="0 0 0 0 0 0 0 0 0 0 0 0 0 0 0 0 0 0 127 0" result="hardAlpha"/>
<feOffset dy="4"/>
<feGaussianBlur stdDeviation="2"/>
<feComposite in2="hardAlpha" operator="out"/>
<feColorMatrix type="matrix" values="0 0 0 0 0 0 0 0 0 0 0 0 0 0 0 0 0 0 0.25 0"/>
<feBlend mode="normal" in2="BackgroundImageFix" result="effect1_dropShadow_842_54"/>
<feBlend mode="normal" in="SourceGraphic" in2="effect1_dropShadow_842_54" result="shape"/>
</filter>
<filter id="filter3_d_842_54" x="206" y="120" width="170" height="58" filterUnits="userSpaceOnUse" color-interpolation-filters="sRGB">
<feFlood flood-opacity="0" result="BackgroundImageFix"/>
<feColorMatrix in="SourceAlpha" type="matrix" values="0 0 0 0 0 0 0 0 0 0 0 0 0 0 0 0 0 0 127 0" result="hardAlpha"/>
<feOffset dy="4"/>
<feGaussianBlur stdDeviation="2"/>
<feComposite in2="hardAlpha" operator="out"/>
<feColorMatrix type="matrix" values="0 0 0 0 0 0 0 0 0 0 0 0 0 0 0 0 0 0 0.25 0"/>
<feBlend mode="normal" in2="BackgroundImageFix" result="effect1_dropShadow_842_54"/>
<feBlend mode="normal" in="SourceGraphic" in2="effect1_dropShadow_842_54" result="shape"/>
</filter>
<filter id="filter4_d_842_54" x="202" y="244" width="170" height="58" filterUnits="userSpaceOnUse" color-interpolation-filters="sRGB">
<feFlood flood-opacity="0" result="BackgroundImageFix"/>
<feColorMatrix in="SourceAlpha" type="matrix" values="0 0 0 0 0 0 0 0 0 0 0 0 0 0 0 0 0 0 127 0" result="hardAlpha"/>
<feOffset dy="4"/>
<feGaussianBlur stdDeviation="2"/>
<feComposite in2="hardAlpha" operator="out"/>
<feColorMatrix type="matrix" values="0 0 0 0 0 0 0 0 0 0 0 0 0 0 0 0 0 0 0.25 0"/>
<feBlend mode="normal" in2="BackgroundImageFix" result="effect1_dropShadow_842_54"/>
<feBlend mode="normal" in="SourceGraphic" in2="effect1_dropShadow_842_54" result="shape"/>
</filter>
<filter id="filter5_d_842_54" x="28.5996" y="206" width="149.4" height="48" filterUnits="userSpaceOnUse" color-interpolation-filters="sRGB">
<feFlood flood-opacity="0" result="BackgroundImageFix"/>
<feColorMatrix in="SourceAlpha" type="matrix" values="0 0 0 0 0 0 0 0 0 0 0 0 0 0 0 0 0 0 127 0" result="hardAlpha"/>
<feOffset dy="4"/>
<feGaussianBlur stdDeviation="2"/>
<feComposite in2="hardAlpha" operator="out"/>
<feColorMatrix type="matrix" values="0 0 0 0 0 0 0 0 0 0 0 0 0 0 0 0 0 0 0.25 0"/>
<feBlend mode="normal" in2="BackgroundImageFix" result="effect1_dropShadow_842_54"/>
<feBlend mode="normal" in="SourceGraphic" in2="effect1_dropShadow_842_54" result="shape"/>
</filter>
<filter id="filter6_d_842_54" x="12" y="139" width="161" height="68" filterUnits="userSpaceOnUse" color-interpolation-filters="sRGB">
<feFlood flood-opacity="0" result="BackgroundImageFix"/>
<feColorMatrix in="SourceAlpha" type="matrix" values="0 0 0 0 0 0 0 0 0 0 0 0 0 0 0 0 0 0 127 0" result="hardAlpha"/>
<feOffset dy="4"/>
<feGaussianBlur stdDeviation="2"/>
<feComposite in2="hardAlpha" operator="out"/>
<feColorMatrix type="matrix" values="0 0 0 0 0 0 0 0 0 0 0 0 0 0 0 0 0 0 0.25 0"/>
<feBlend mode="normal" in2="BackgroundImageFix" result="effect1_dropShadow_842_54"/>
<feBlend mode="normal" in="SourceGraphic" in2="effect1_dropShadow_842_54" result="shape"/>
</filter>
<filter id="filter7_d_842_54" x="0" y="253" width="199" height="68" filterUnits="userSpaceOnUse" color-interpolation-filters="sRGB">
<feFlood flood-opacity="0" result="BackgroundImageFix"/>
<feColorMatrix in="SourceAlpha" type="matrix" values="0 0 0 0 0 0 0 0 0 0 0 0 0 0 0 0 0 0 127 0" result="hardAlpha"/>
<feOffset dy="4"/>
<feGaussianBlur stdDeviation="2"/>
<feComposite in2="hardAlpha" operator="out"/>
<feColorMatrix type="matrix" values="0 0 0 0 0 0 0 0 0 0 0 0 0 0 0 0 0 0 0.25 0"/>
<feBlend mode="normal" in2="BackgroundImageFix" result="effect1_dropShadow_842_54"/>
<feBlend mode="normal" in="SourceGraphic" in2="effect1_dropShadow_842_54" result="shape"/>
</filter>
<filter id="filter8_d_842_54" x="391" y="213" width="199" height="68" filterUnits="userSpaceOnUse" color-interpolation-filters="sRGB">
<feFlood flood-opacity="0" result="BackgroundImageFix"/>
<feColorMatrix in="SourceAlpha" type="matrix" values="0 0 0 0 0 0 0 0 0 0 0 0 0 0 0 0 0 0 127 0" result="hardAlpha"/>
<feOffset dy="4"/>
<feGaussianBlur stdDeviation="2"/>
<feComposite in2="hardAlpha" operator="out"/>
<feColorMatrix type="matrix" values="0 0 0 0 0 0 0 0 0 0 0 0 0 0 0 0 0 0 0.25 0"/>
<feBlend mode="normal" in2="BackgroundImageFix" result="effect1_dropShadow_842_54"/>
<feBlend mode="normal" in="SourceGraphic" in2="effect1_dropShadow_842_54" result="shape"/>
</filter>
<filter id="filter9_d_842_54" x="7" y="320" width="170" height="58" filterUnits="userSpaceOnUse" color-interpolation-filters="sRGB">
<feFlood flood-opacity="0" result="BackgroundImageFix"/>
<feColorMatrix in="SourceAlpha" type="matrix" values="0 0 0 0 0 0 0 0 0 0 0 0 0 0 0 0 0 0 127 0" result="hardAlpha"/>
<feOffset dy="4"/>
<feGaussianBlur stdDeviation="2"/>
<feComposite in2="hardAlpha" operator="out"/>
<feColorMatrix type="matrix" values="0 0 0 0 0 0 0 0 0 0 0 0 0 0 0 0 0 0 0.25 0"/>
<feBlend mode="normal" in2="BackgroundImageFix" result="effect1_dropShadow_842_54"/>
<feBlend mode="normal" in="SourceGraphic" in2="effect1_dropShadow_842_54" result="shape"/>
</filter>
<filter id="filter10_d_842_54" x="397" y="156" width="170" height="58" filterUnits="userSpaceOnUse" color-interpolation-filters="sRGB">
<feFlood flood-opacity="0" result="BackgroundImageFix"/>
<feColorMatrix in="SourceAlpha" type="matrix" values="0 0 0 0 0 0 0 0 0 0 0 0 0 0 0 0 0 0 127 0" result="hardAlpha"/>
<feOffset dy="4"/>
<feGaussianBlur stdDeviation="2"/>
<feComposite in2="hardAlpha" operator="out"/>
<feColorMatrix type="matrix" values="0 0 0 0 0 0 0 0 0 0 0 0 0 0 0 0 0 0 0.25 0"/>
<feBlend mode="normal" in2="BackgroundImageFix" result="effect1_dropShadow_842_54"/>
<feBlend mode="normal" in="SourceGraphic" in2="effect1_dropShadow_842_54" result="shape"/>
</filter>
</defs>
</svg>
