<svg width="838" height="768" viewBox="0 0 838 768" fill="none" xmlns="http://www.w3.org/2000/svg">
<g filter="url(#filter0_d_576_188)">
<circle cx="419" cy="344" r="344" fill="#B1E2FD"/>
<circle cx="136.5" cy="471.5" r="128.5" fill="#C3EAFF"/>
<circle cx="701.5" cy="471.5" r="128.5" fill="#C3EAFF"/>
<line x1="419" y1="702" x2="419" y2="128" stroke="#3E97D5" stroke-width="12" stroke-linecap="round"/>
<line x1="375" y1="197" x2="327" y2="197" stroke="#3E97D5" stroke-width="12" stroke-linecap="round"/>
<line x1="512" y1="247" x2="464" y2="247" stroke="#3E97D5" stroke-width="12" stroke-linecap="round"/>
<line x1="354" y1="324" x2="286" y2="324" stroke="#3E97D5" stroke-width="12" stroke-linecap="round"/>
<line x1="335" y1="506" x2="287" y2="506" stroke="#3E97D5" stroke-width="12" stroke-linecap="round"/>
<line x1="561" y1="379" x2="503" y2="379" stroke="#3E97D5" stroke-width="12" stroke-linecap="round"/>
<path d="M375 84C375 89.7782 376.138 95.4997 378.349 100.838C380.561 106.176 383.802 111.027 387.887 115.113C391.973 119.198 396.824 122.439 402.162 124.651C407.5 126.862 413.222 128 419 128C424.778 128 430.5 126.862 435.838 124.651C441.176 122.439 446.027 119.198 450.113 115.113C454.198 111.027 457.439 106.176 459.651 100.838C461.862 95.4997 463 89.7782 463 84" stroke="#3E97D5" stroke-width="12" stroke-linecap="round"/>
<path d="M513 247C518.778 247 524.5 245.862 529.838 243.651C535.176 241.439 540.027 238.198 544.113 234.113C548.198 230.027 551.439 225.176 553.651 219.838C555.862 214.5 557 208.778 557 203" stroke="#3E97D5" stroke-width="12" stroke-linecap="round"/>
<path d="M242 280C242 285.778 243.138 291.5 245.349 296.838C247.561 302.176 250.802 307.027 254.887 311.113C258.973 315.198 263.824 318.439 269.162 320.651C274.5 322.862 280.222 324 286 324" stroke="#3E97D5" stroke-width="12" stroke-linecap="round"/>
<path d="M243 462C243 467.778 244.138 473.5 246.349 478.838C248.561 484.176 251.802 489.027 255.887 493.113C259.973 497.198 264.824 500.439 270.162 502.651C275.5 504.862 281.222 506 287 506" stroke="#3E97D5" stroke-width="12" stroke-linecap="round"/>
<path d="M293 580C293 584.465 293.879 588.886 295.588 593.011C297.297 597.136 299.801 600.884 302.958 604.042C306.116 607.199 309.864 609.703 313.989 611.412C318.114 613.121 322.535 614 327 614" stroke="#3E97D5" stroke-width="12" stroke-linecap="round"/>
<path d="M269 139C269 142.152 269.621 145.273 270.827 148.184C272.033 151.096 273.801 153.742 276.029 155.971C278.258 158.199 280.904 159.967 283.816 161.173C286.727 162.379 289.848 163 293 163C296.152 163 299.273 162.379 302.184 161.173C305.096 159.967 307.742 158.199 309.971 155.971C312.199 153.742 313.967 151.096 315.173 148.184C316.379 145.273 317 142.152 317 139" stroke="#3E97D5" stroke-width="12" stroke-linecap="round"/>
<path d="M513 159C513 164.778 514.138 170.5 516.349 175.838C518.561 181.176 521.802 186.027 525.887 190.113C529.973 194.198 534.824 197.439 540.162 199.651C545.5 201.862 551.222 203 557 203C562.778 203 568.5 201.862 573.838 199.651C579.176 197.439 584.027 194.198 588.113 190.113C592.198 186.027 595.439 181.176 597.651 175.838C599.862 170.5 601 164.778 601 159" stroke="#3E97D5" stroke-width="12" stroke-linecap="round"/>
<path d="M198 236C198 241.778 199.138 247.5 201.349 252.838C203.561 258.176 206.802 263.027 210.887 267.113C214.973 271.198 219.824 274.439 225.162 276.651C230.5 278.862 236.222 280 242 280C247.778 280 253.5 278.862 258.838 276.651C264.176 274.439 269.027 271.198 273.113 267.113C277.198 263.027 280.439 258.176 282.651 252.838C284.862 247.5 286 241.778 286 236" stroke="#3E97D5" stroke-width="12" stroke-linecap="round"/>
<path d="M179 398C179 406.405 180.655 414.727 183.872 422.492C187.088 430.257 191.802 437.312 197.745 443.255C203.688 449.198 210.743 453.912 218.508 457.128C226.273 460.345 234.595 462 243 462C251.405 462 259.727 460.345 267.492 457.128C275.257 453.912 282.312 449.198 288.255 443.255C294.198 437.312 298.912 430.257 302.128 422.492C305.345 414.727 307 406.405 307 398" stroke="#3E97D5" stroke-width="12" stroke-linecap="round"/>
<path d="M551 281C551 288.091 552.397 295.113 555.111 301.665C557.824 308.216 561.802 314.169 566.816 319.184C571.831 324.198 577.784 328.176 584.335 330.889C590.887 333.603 597.909 335 605 335C612.091 335 619.113 333.603 625.665 330.889C632.216 328.176 638.169 324.198 643.184 319.184C648.198 314.169 652.176 308.216 654.889 301.665C657.603 295.113 659 288.091 659 281" stroke="#3E97D5" stroke-width="12" stroke-linecap="round"/>
<path d="M439 60C439 63.1517 439.621 66.2726 440.827 69.1844C442.033 72.0962 443.801 74.742 446.029 76.9706C448.258 79.1992 450.904 80.967 453.816 82.1731C456.727 83.3792 459.848 84 463 84C466.152 84 469.273 83.3792 472.184 82.1731C475.096 80.967 477.742 79.1992 479.971 76.9706C482.199 74.742 483.967 72.0962 485.173 69.1844C486.379 66.2726 487 63.1517 487 60" stroke="#3E97D5" stroke-width="12" stroke-linecap="round"/>
<path d="M577 135C577 138.152 577.621 141.273 578.827 144.184C580.033 147.096 581.801 149.742 584.029 151.971C586.258 154.199 588.904 155.967 591.816 157.173C594.727 158.379 597.848 159 601 159C604.152 159 607.273 158.379 610.184 157.173C613.096 155.967 615.742 154.199 617.971 151.971C620.199 149.742 621.967 147.096 623.173 144.184C624.379 141.273 625 138.152 625 135" stroke="#3E97D5" stroke-width="12" stroke-linecap="round"/>
<path d="M625 247C625 251.465 625.879 255.886 627.588 260.011C629.297 264.136 631.801 267.884 634.958 271.042C638.116 274.199 641.864 276.703 645.989 278.412C650.114 280.121 654.535 281 659 281C663.465 281 667.886 280.121 672.011 278.412C676.136 276.703 679.884 274.199 683.042 271.042C686.199 267.884 688.703 264.136 690.412 260.011C692.121 255.886 693 251.465 693 247" stroke="#3E97D5" stroke-width="12" stroke-linecap="round"/>
<path d="M174 212C174 215.152 174.621 218.273 175.827 221.184C177.033 224.096 178.801 226.742 181.029 228.971C183.258 231.199 185.904 232.967 188.816 234.173C191.727 235.379 194.848 236 198 236C201.152 236 204.273 235.379 207.184 234.173C210.096 232.967 212.742 231.199 214.971 228.971C217.199 226.742 218.967 224.096 220.173 221.184C221.379 218.273 222 215.152 222 212" stroke="#3E97D5" stroke-width="12" stroke-linecap="round"/>
<path d="M155 374C155 377.152 155.621 380.273 156.827 383.184C158.033 386.096 159.801 388.742 162.029 390.971C164.258 393.199 166.904 394.967 169.816 396.173C172.727 397.379 175.848 398 179 398C182.152 398 185.273 397.379 188.184 396.173C191.096 394.967 193.742 393.199 195.971 390.971C198.199 388.742 199.967 386.096 201.173 383.184C202.379 380.273 203 377.152 203 374" stroke="#3E97D5" stroke-width="12" stroke-linecap="round"/>
<path d="M269 556C269 559.152 269.621 562.273 270.827 565.184C272.033 568.096 273.801 570.742 276.029 572.971C278.258 575.199 280.904 576.967 283.816 578.173C286.727 579.379 289.848 580 293 580C296.152 580 299.273 579.379 302.184 578.173C305.096 576.967 307.742 575.199 309.971 572.971C312.199 570.742 313.967 568.096 315.173 565.184C316.379 562.273 317 559.152 317 556" stroke="#3E97D5" stroke-width="12" stroke-linecap="round"/>
<path d="M419 241C419 235.222 417.862 229.5 415.651 224.162C413.439 218.824 410.198 213.973 406.113 209.887C402.027 205.802 397.176 202.561 391.838 200.349C386.5 198.138 380.778 197 375 197" stroke="#3E97D5" stroke-width="12" stroke-linecap="round"/>
<path d="M419 658C419 652.222 417.862 646.5 415.651 641.162C413.439 635.824 410.198 630.973 406.113 626.887C402.027 622.802 397.176 619.561 391.838 617.349C386.5 615.138 380.778 614 375 614" stroke="#3E97D5" stroke-width="12" stroke-linecap="round"/>
<path d="M463 746C457.222 746 451.5 744.862 446.162 742.651C440.824 740.439 435.973 737.198 431.887 733.113C427.802 729.027 424.561 724.176 422.349 718.838C420.138 713.5 419 707.778 419 702" stroke="#3E97D5" stroke-width="12" stroke-linecap="round"/>
<path d="M463 247C457.222 247 451.5 248.138 446.162 250.349C440.824 252.561 435.973 255.802 431.887 259.887C427.802 263.973 424.561 268.824 422.349 274.162C420.138 279.5 419 285.222 419 291" stroke="#3E97D5" stroke-width="12" stroke-linecap="round"/>
<path d="M419 388C419 379.595 417.345 371.273 414.128 363.508C410.912 355.743 406.198 348.688 400.255 342.745C394.312 336.802 387.257 332.088 379.492 328.872C371.727 325.655 363.405 324 355 324" stroke="#3E97D5" stroke-width="12" stroke-linecap="round"/>
<path d="M561 379C566.778 379 572.5 377.862 577.838 375.651C583.176 373.439 588.027 370.198 592.113 366.113C596.198 362.027 599.439 357.176 601.651 351.838C603.862 346.5 605 340.778 605 335" stroke="#3E97D5" stroke-width="12" stroke-linecap="round"/>
<path d="M419 463C419 451.969 421.173 441.046 425.394 430.855C429.616 420.663 435.803 411.403 443.603 403.603C451.403 395.803 460.663 389.616 470.855 385.394C481.046 381.173 491.969 379 503 379" stroke="#3E97D5" stroke-width="12" stroke-linecap="round"/>
<path d="M419 590C419 578.969 416.827 568.046 412.606 557.855C408.384 547.663 402.197 538.403 394.397 530.603C386.597 522.803 377.337 516.616 367.145 512.394C356.954 508.173 346.031 506 335 506" stroke="#3E97D5" stroke-width="12" stroke-linecap="round"/>
<line x1="6" y1="-6" x2="54" y2="-6" transform="matrix(1 0 0 -1 497 549)" stroke="#3E97D5" stroke-width="12" stroke-linecap="round"/>
<line x1="375" y1="746" x2="463" y2="746" stroke="#3E97D5" stroke-width="12" stroke-linecap="round"/>
<line x1="6" y1="-6" x2="54" y2="-6" transform="matrix(1 0 0 -1 321 608)" stroke="#3E97D5" stroke-width="12" stroke-linecap="round"/>
<path d="M595 511C595 516.778 593.862 522.5 591.651 527.838C589.439 533.176 586.198 538.027 582.113 542.113C578.027 546.198 573.176 549.439 567.838 551.651C562.5 553.862 556.778 555 551 555" stroke="#3E97D5" stroke-width="12" stroke-linecap="round"/>
<path d="M659 447C659 455.405 657.345 463.727 654.128 471.492C650.912 479.257 646.198 486.312 640.255 492.255C634.312 498.198 627.257 502.912 619.492 506.128C611.727 509.345 603.405 511 595 511C586.595 511 578.273 509.345 570.508 506.128C562.743 502.912 555.688 498.198 549.745 492.255C543.802 486.312 539.088 479.257 535.872 471.492C532.655 463.727 531 455.405 531 447" stroke="#3E97D5" stroke-width="12" stroke-linecap="round"/>
<path d="M683 423C683 426.152 682.379 429.273 681.173 432.184C679.967 435.096 678.199 437.742 675.971 439.971C673.742 442.199 671.096 443.967 668.184 445.173C665.273 446.379 662.152 447 659 447C655.848 447 652.727 446.379 649.816 445.173C646.904 443.967 644.258 442.199 642.029 439.971C639.801 437.742 638.033 435.096 636.827 432.184C635.621 429.273 635 426.152 635 423" stroke="#3E97D5" stroke-width="12" stroke-linecap="round"/>
<path d="M419 639C419 627.969 421.173 617.046 425.394 606.855C429.616 596.663 435.803 587.403 443.603 579.603C451.403 571.803 460.663 565.616 470.855 561.394C481.046 557.173 491.969 555 503 555" stroke="#3E97D5" stroke-width="12" stroke-linecap="round"/>
<path d="M293 163C293 167.465 293.879 171.886 295.588 176.011C297.297 180.136 299.801 183.884 302.958 187.042C306.116 190.199 309.864 192.703 313.989 194.412C318.114 196.121 322.535 197 327 197" stroke="#3E97D5" stroke-width="12" stroke-linecap="round"/>
</g>
<defs>
<filter id="filter0_d_576_188" x="0" y="0" width="838" height="768" filterUnits="userSpaceOnUse" color-interpolation-filters="sRGB">
<feFlood flood-opacity="0" result="BackgroundImageFix"/>
<feColorMatrix in="SourceAlpha" type="matrix" values="0 0 0 0 0 0 0 0 0 0 0 0 0 0 0 0 0 0 127 0" result="hardAlpha"/>
<feOffset dy="8"/>
<feGaussianBlur stdDeviation="4"/>
<feComposite in2="hardAlpha" operator="out"/>
<feColorMatrix type="matrix" values="0 0 0 0 0 0 0 0 0 0 0 0 0 0 0 0 0 0 0.25 0"/>
<feBlend mode="normal" in2="BackgroundImageFix" result="effect1_dropShadow_576_188"/>
<feBlend mode="normal" in="SourceGraphic" in2="effect1_dropShadow_576_188" result="shape"/>
</filter>
</defs>
</svg>
