<svg width="14" height="22" viewBox="0 0 14 22" fill="none" xmlns="http://www.w3.org/2000/svg">
<path d="M7.00002 0C5.62345 0.00172601 4.27794 0.409289 3.13179 1.17171C1.98564 1.93413 1.08973 3.01757 0.55612 4.28651C0.0225046 5.55544 -0.125126 6.95355 0.131694 8.30595C0.388514 9.65835 1.03838 10.905 2.00002 11.89V21C2.00053 21.1705 2.04461 21.338 2.12808 21.4866C2.21154 21.6352 2.33162 21.7601 2.4769 21.8492C2.62218 21.9384 2.78784 21.989 2.95816 21.9961C3.12847 22.0032 3.29779 21.9667 3.45002 21.89L7.00002 20.12L10.55 21.89C10.6893 21.9614 10.8435 21.9991 11 22C11.1872 22.0006 11.3709 21.9486 11.53 21.85C11.6741 21.7599 11.7929 21.6346 11.8751 21.4859C11.9574 21.3372 12.0004 21.1699 12 21V11.89C12.9616 10.905 13.6115 9.65835 13.8683 8.30595C14.1252 6.95355 13.9775 5.55544 13.4439 4.28651C12.9103 3.01757 12.0144 1.93413 10.8682 1.17171C9.72209 0.409289 8.37658 0.00172601 7.00002 0ZM10 19.38L7.45002 18.11C7.31044 18.0397 7.15631 18.003 7.00002 18.003C6.84372 18.003 6.68959 18.0397 6.55002 18.11L4.00002 19.38V13.32C4.63294 13.6189 5.3071 13.8211 6.00002 13.92V15C6.00002 15.2652 6.10537 15.5196 6.29291 15.7071C6.48044 15.8946 6.7348 16 7.00002 16C7.26523 16 7.51959 15.8946 7.70712 15.7071C7.89466 15.5196 8.00002 15.2652 8.00002 15V13.92C8.69293 13.8211 9.36709 13.6189 10 13.32V19.38ZM7.00002 12C6.01111 12 5.04441 11.7068 4.22216 11.1573C3.39992 10.6079 2.75906 9.82705 2.38062 8.91342C2.00218 7.99979 1.90316 6.99445 2.09609 6.02455C2.28902 5.05464 2.76522 4.16373 3.46448 3.46447C4.16374 2.7652 5.05466 2.289 6.02456 2.09607C6.99447 1.90315 7.9998 2.00216 8.91343 2.3806C9.82706 2.75904 10.608 3.3999 11.1574 4.22215C11.7068 5.04439 12 6.01109 12 7C12 8.32608 11.4732 9.59785 10.5355 10.5355C9.59787 11.4732 8.3261 12 7.00002 12Z" fill="#F96326"/>
</svg>
