<svg width="21" height="20" viewBox="0 0 21 20" fill="none" xmlns="http://www.w3.org/2000/svg">
<path d="M18.4396 10.9999C18.2196 10.9999 17.9896 10.9299 17.7696 10.8799C17.3241 10.7817 16.8863 10.6514 16.4596 10.4899C15.9957 10.3211 15.4858 10.3299 15.0279 10.5145C14.5701 10.6991 14.1967 11.0465 13.9796 11.4899L13.7596 11.9399C12.7856 11.398 11.8906 10.7251 11.0996 9.93987C10.3144 9.14888 9.64143 8.25387 9.09961 7.27987L9.51961 6.99987C9.96298 6.78278 10.3104 6.4094 10.495 5.95156C10.6796 5.49372 10.6884 4.98378 10.5196 4.51987C10.3608 4.09229 10.2305 3.65467 10.1296 3.20987C10.0796 2.98987 10.0396 2.75987 10.0096 2.52987C9.88818 1.82549 9.51924 1.18761 8.96923 0.731107C8.41923 0.274605 7.72431 0.0294769 7.00961 0.0398681H4.00961C3.57864 0.0358215 3.15186 0.124682 2.75832 0.300399C2.36478 0.476116 2.01372 0.734564 1.72904 1.05815C1.44436 1.38174 1.23275 1.76286 1.1086 2.17558C0.984454 2.5883 0.950692 3.02293 1.00961 3.44987C1.54235 7.63925 3.45564 11.5317 6.44726 14.5125C9.43889 17.4933 13.3383 19.3924 17.5296 19.9099H17.9096C18.647 19.9109 19.359 19.6404 19.9096 19.1499C20.226 18.8669 20.4787 18.52 20.6511 18.1322C20.8235 17.7443 20.9116 17.3243 20.9096 16.8999V13.8999C20.8974 13.2053 20.6444 12.5364 20.194 12.0075C19.7435 11.4786 19.1234 11.1225 18.4396 10.9999ZM18.9396 16.9999C18.9394 17.1419 18.909 17.2822 18.8504 17.4115C18.7918 17.5408 18.7063 17.6562 18.5996 17.7499C18.4882 17.8469 18.3576 17.9193 18.2163 17.9624C18.075 18.0054 17.9262 18.0182 17.7796 17.9999C14.0345 17.5197 10.5558 15.8064 7.89233 13.1302C5.22881 10.454 3.53202 6.96721 3.06961 3.21987C3.0537 3.07339 3.06765 2.9252 3.11061 2.78426C3.15358 2.64332 3.22468 2.51256 3.31961 2.39987C3.41332 2.2932 3.52867 2.20771 3.65799 2.14909C3.78731 2.09046 3.92763 2.06005 4.06961 2.05987H7.06961C7.30216 2.05469 7.52924 2.13075 7.71176 2.27494C7.89428 2.41913 8.02082 2.62244 8.06961 2.84987C8.10961 3.1232 8.15961 3.3932 8.21961 3.65987C8.33513 4.18701 8.48887 4.70505 8.67961 5.20987L7.27961 5.85987C7.15991 5.91479 7.05223 5.99281 6.96277 6.08946C6.87331 6.18611 6.80381 6.29948 6.75828 6.42306C6.71275 6.54664 6.69208 6.678 6.69746 6.80959C6.70284 6.94118 6.73415 7.07041 6.78961 7.18987C8.22881 10.2726 10.7069 12.7507 13.7896 14.1899C14.0331 14.2899 14.3062 14.2899 14.5496 14.1899C14.6743 14.1453 14.7889 14.0763 14.8868 13.9871C14.9846 13.8978 15.0638 13.79 15.1196 13.6699L15.7396 12.2699C16.2566 12.4547 16.7842 12.6084 17.3196 12.7299C17.5863 12.7899 17.8563 12.8399 18.1296 12.8799C18.357 12.9287 18.5604 13.0552 18.7045 13.2377C18.8487 13.4202 18.9248 13.6473 18.9196 13.8799L18.9396 16.9999Z" fill="#333333"/>
</svg>
