<svg width="21" height="20" viewBox="0 0 21 20" fill="none" xmlns="http://www.w3.org/2000/svg">
<path d="M10.9999 12C10.8021 12 10.6087 12.0586 10.4443 12.1685C10.2798 12.2784 10.1517 12.4346 10.076 12.6173C10.0003 12.8 9.9805 13.0011 10.0191 13.1951C10.0577 13.3891 10.1529 13.5673 10.2928 13.7071C10.4326 13.847 10.6108 13.9422 10.8048 13.9808C10.9988 14.0194 11.1998 13.9996 11.3826 13.9239C11.5653 13.8482 11.7215 13.72 11.8313 13.5556C11.9412 13.3911 11.9999 13.1978 11.9999 13C11.9999 12.7348 11.8945 12.4804 11.707 12.2929C11.5194 12.1054 11.2651 12 10.9999 12ZM10.9999 0C9.68665 0 8.38629 0.258658 7.17303 0.761205C5.95978 1.26375 4.85738 2.00035 3.9288 2.92893C2.05343 4.8043 0.999866 7.34784 0.999866 10C0.991124 12.3091 1.79066 14.5485 3.25987 16.33L1.25987 18.33C1.12111 18.4706 1.02711 18.6492 0.989738 18.8432C0.952364 19.0372 0.973287 19.2379 1.04987 19.42C1.13292 19.5999 1.26757 19.7511 1.43671 19.8544C1.60586 19.9577 1.80187 20.0083 1.99987 20H10.9999C13.652 20 16.1956 18.9464 18.0709 17.0711C19.9463 15.1957 20.9999 12.6522 20.9999 10C20.9999 7.34784 19.9463 4.8043 18.0709 2.92893C16.1956 1.05357 13.652 0 10.9999 0ZM10.9999 18H4.40987L5.33987 17.07C5.43435 16.9774 5.50952 16.8669 5.56102 16.7451C5.61252 16.6232 5.63932 16.4923 5.63987 16.36C5.63611 16.0962 5.52828 15.8446 5.33987 15.66C4.03045 14.352 3.21504 12.6305 3.03256 10.7888C2.85007 8.94705 3.31181 7.09901 4.33909 5.55952C5.36638 4.02004 6.89566 2.88436 8.66638 2.34597C10.4371 1.80759 12.3397 1.8998 14.0501 2.60691C15.7604 3.31402 17.1727 4.59227 18.0463 6.22389C18.9199 7.85551 19.2007 9.73954 18.841 11.555C18.4813 13.3705 17.5032 15.005 16.0734 16.1802C14.6436 17.3554 12.8506 17.9985 10.9999 18ZM10.9999 6C10.7346 6 10.4803 6.10536 10.2928 6.29289C10.1052 6.48043 9.99987 6.73478 9.99987 7V10C9.99987 10.2652 10.1052 10.5196 10.2928 10.7071C10.4803 10.8946 10.7346 11 10.9999 11C11.2651 11 11.5194 10.8946 11.707 10.7071C11.8945 10.5196 11.9999 10.2652 11.9999 10V7C11.9999 6.73478 11.8945 6.48043 11.707 6.29289C11.5194 6.10536 11.2651 6 10.9999 6Z" fill="#F96326"/>
</svg>
