<svg width="15" height="15" viewBox="0 0 15 15" fill="none" xmlns="http://www.w3.org/2000/svg">
<path d="M1.87964 8.88C1.58489 9.15465 1.34848 9.48585 1.18451 9.85385C1.02055 10.2218 0.932379 10.6191 0.925272 11.0219C0.918164 11.4247 0.992263 11.8248 1.14315 12.1984C1.29403 12.5719 1.51861 12.9113 1.80348 13.1962C2.08836 13.481 2.42769 13.7056 2.80125 13.8565C3.1748 14.0074 3.57492 14.0815 3.97773 14.0744C4.38054 14.0673 4.77779 13.9791 5.14579 13.8151C5.51379 13.6512 5.84499 13.4147 6.11964 13.12C6.68144 12.5575 6.997 11.795 6.997 11C6.997 10.205 6.68144 9.4425 6.11964 8.88C5.54736 8.33699 4.78854 8.03428 3.99964 8.03428C3.21074 8.03428 2.45192 8.33699 1.87964 8.88ZM4.70964 11.71C4.61667 11.8037 4.50607 11.8781 4.38421 11.9289C4.26236 11.9797 4.13165 12.0058 3.99964 12.0058C3.86763 12.0058 3.73692 11.9797 3.61506 11.9289C3.4932 11.8781 3.3826 11.8037 3.28964 11.71C3.19591 11.617 3.12152 11.5064 3.07075 11.3846C3.01998 11.2627 2.99384 11.132 2.99384 11C2.99384 10.868 3.01998 10.7373 3.07075 10.6154C3.12152 10.4936 3.19591 10.383 3.28964 10.29C3.3826 10.1963 3.4932 10.1219 3.61506 10.0711C3.73692 10.0203 3.86763 9.9942 3.99964 9.9942C4.13165 9.9942 4.26236 10.0203 4.38421 10.0711C4.50607 10.1219 4.61667 10.1963 4.70964 10.29C4.80337 10.383 4.87776 10.4936 4.92853 10.6154C4.9793 10.7373 5.00544 10.868 5.00544 11C5.00544 11.132 4.9793 11.2627 4.92853 11.3846C4.87776 11.5064 4.80337 11.617 4.70964 11.71ZM3.99964 4C3.73442 4 3.48007 4.10536 3.29253 4.29289C3.10499 4.48043 2.99964 4.73478 2.99964 5C2.99964 5.26522 3.10499 5.51957 3.29253 5.70711C3.48007 5.89464 3.73442 6 3.99964 6C5.32572 6 6.59749 6.52678 7.53517 7.46447C8.47285 8.40215 8.99964 9.67392 8.99964 11C8.99964 11.2652 9.10499 11.5196 9.29253 11.7071C9.48007 11.8946 9.73442 12 9.99964 12C10.2649 12 10.5192 11.8946 10.7067 11.7071C10.8943 11.5196 10.9996 11.2652 10.9996 11C10.9996 9.14348 10.2621 7.36301 8.94938 6.05025C7.63663 4.7375 5.85615 4 3.99964 4ZM3.99964 0C3.73442 0 3.48007 0.105357 3.29253 0.292893C3.10499 0.48043 2.99964 0.734784 2.99964 1C2.99964 1.26522 3.10499 1.51957 3.29253 1.70711C3.48007 1.89464 3.73442 2 3.99964 2C6.38659 2 8.67577 2.94821 10.3636 4.63604C12.0514 6.32387 12.9996 8.61305 12.9996 11C12.9996 11.2652 13.105 11.5196 13.2925 11.7071C13.4801 11.8946 13.7344 12 13.9996 12C14.2649 12 14.5192 11.8946 14.7067 11.7071C14.8943 11.5196 14.9996 11.2652 14.9996 11C14.9996 8.08262 13.8407 5.28473 11.7778 3.22183C9.71491 1.15893 6.91702 0 3.99964 0Z" fill="white"/>
</svg>
