<svg width="32" height="31" viewBox="0 0 32 31" fill="none" xmlns="http://www.w3.org/2000/svg">
<path d="M28.7904 13.9419H26.9343V3.42421C26.9343 2.0631 25.8207 0.949463 24.4596 0.949463H2.80556C1.44445 0.949463 0.330811 2.0631 0.330811 3.42421V20.1288C0.330811 21.4899 1.44445 22.6035 2.80556 22.6035H4.66162V25.6969C4.66162 26.1919 4.90909 26.625 5.34217 26.8106C5.52778 26.8724 5.71339 26.9343 5.89899 26.9343C6.14647 26.9343 6.45581 26.8724 6.64142 26.6868L12.0859 22.6035H14.5606V25.0783C14.5606 26.4394 15.6742 27.553 17.0354 27.553H20.8093L25.0164 30.399C25.202 30.5227 25.4495 30.6464 25.697 30.6464C25.8826 30.6464 26.0682 30.5846 26.2538 30.5227C26.6869 30.3371 26.9343 29.904 26.9343 29.4091V27.553H28.7904C30.1515 27.553 31.2652 26.4394 31.2652 25.0783V16.4166C31.2652 15.0555 30.1515 13.9419 28.7904 13.9419ZM11.6528 20.1288C11.4053 20.1288 11.096 20.1906 10.9104 20.3762L7.13637 23.2222V21.3661C7.13637 20.6856 6.57955 20.1288 5.89899 20.1288H2.80556V3.42421H24.4596V13.9419H17.0354C15.6742 13.9419 14.5606 15.0555 14.5606 16.4166V20.1288H11.6528ZM28.7904 25.0783H25.697C25.0164 25.0783 24.4596 25.6351 24.4596 26.3156V27.058L21.8611 25.2639C21.6755 25.1401 21.428 25.0164 21.1806 25.0164H17.0354V21.3043V16.3548H28.7904V25.0783Z" fill="white"/>
</svg>
