<svg width="18" height="18" viewBox="0 0 18 18" fill="none" xmlns="http://www.w3.org/2000/svg">
<path d="M10.3125 9L17.1562 2.15625C17.5312 1.78125 17.5312 1.21875 17.1562 0.84375C16.7812 0.46875 16.2187 0.46875 15.8437 0.84375L9 7.6875L2.15625 0.84375C1.78125 0.46875 1.21875 0.46875 0.84375 0.84375C0.46875 1.21875 0.46875 1.78125 0.84375 2.15625L7.6875 9L0.84375 15.8437C0.46875 16.2187 0.46875 16.7812 0.84375 17.1562C1.03125 17.3438 1.26562 17.4375 1.5 17.4375C1.73438 17.4375 1.96875 17.3438 2.15625 17.1562L9 10.3125L15.8437 17.1562C16.0312 17.3438 16.2656 17.4375 16.5 17.4375C16.7344 17.4375 16.9688 17.3438 17.1562 17.1562C17.5312 16.7812 17.5312 16.2187 17.1562 15.8437L10.3125 9Z" fill="white"/>
</svg>
