<svg width="34" height="34" viewBox="0 0 34 34" fill="none" xmlns="http://www.w3.org/2000/svg">
<path d="M31.7693 20.4618C31.3341 20.4618 30.9167 20.6347 30.609 20.9425C30.3012 21.2502 30.1283 21.6676 30.1283 22.1029V28.667C30.1283 29.1022 29.9554 29.5196 29.6477 29.8274C29.3399 30.1351 28.9225 30.308 28.4873 30.308H5.51292C5.07769 30.308 4.66029 30.1351 4.35254 29.8274C4.04479 29.5196 3.8719 29.1022 3.8719 28.667V22.1029C3.8719 21.6676 3.699 21.2502 3.39125 20.9425C3.0835 20.6347 2.6661 20.4618 2.23087 20.4618C1.79564 20.4618 1.37824 20.6347 1.07049 20.9425C0.762737 21.2502 0.589844 21.6676 0.589844 22.1029V28.667C0.589844 29.9727 1.10852 31.2249 2.03178 32.1481C2.95504 33.0714 4.20724 33.59 5.51292 33.59H28.4873C29.793 33.59 31.0452 33.0714 31.9684 32.1481C32.8917 31.2249 33.4104 29.9727 33.4104 28.667V22.1029C33.4104 21.6676 33.2375 21.2502 32.9297 20.9425C32.622 20.6347 32.2046 20.4618 31.7693 20.4618ZM15.835 23.268C15.991 23.4174 16.1751 23.5345 16.3765 23.6126C16.5729 23.6994 16.7853 23.7443 17.0001 23.7443C17.2149 23.7443 17.4273 23.6994 17.6237 23.6126C17.8251 23.5345 18.0092 23.4174 18.1652 23.268L24.7293 16.7039C25.0383 16.3949 25.2119 15.9758 25.2119 15.5388C25.2119 15.1018 25.0383 14.6826 24.7293 14.3736C24.4203 14.0646 24.0012 13.891 23.5642 13.891C23.1272 13.891 22.7081 14.0646 22.3991 14.3736L18.6411 18.148V2.41056C18.6411 1.97533 18.4682 1.55793 18.1605 1.25018C17.8527 0.942424 17.4353 0.769531 17.0001 0.769531C16.5649 0.769531 16.1475 0.942424 15.8397 1.25018C15.532 1.55793 15.3591 1.97533 15.3591 2.41056V18.148L11.6011 14.3736C11.4481 14.2206 11.2665 14.0993 11.0666 14.0164C10.8666 13.9336 10.6524 13.891 10.436 13.891C10.2196 13.891 10.0053 13.9336 9.80544 14.0164C9.60552 14.0993 9.42388 14.2206 9.27087 14.3736C9.11786 14.5266 8.99649 14.7083 8.91368 14.9082C8.83088 15.1081 8.78826 15.3224 8.78826 15.5388C8.78826 15.7551 8.83088 15.9694 8.91368 16.1693C8.99649 16.3692 9.11786 16.5509 9.27087 16.7039L15.835 23.268Z" fill="white"/>
</svg>
