<svg width="22" height="20" viewBox="0 0 22 20" fill="none" xmlns="http://www.w3.org/2000/svg">
<path d="M1.625 4.375H6.78125V5.3125C6.78125 5.82812 7.20312 6.25 7.71875 6.25C8.23438 6.25 8.65625 5.82812 8.65625 5.3125V1.5625C8.65625 1.04688 8.23438 0.625 7.71875 0.625C7.20312 0.625 6.78125 1.04688 6.78125 1.5625V2.5H1.625C1.10938 2.5 0.6875 2.92188 0.6875 3.4375C0.6875 3.95312 1.10938 4.375 1.625 4.375Z" fill="white"/>
<path d="M11.4688 4.375H20.375C20.8906 4.375 21.3125 3.95312 21.3125 3.4375C21.3125 2.92188 20.8906 2.5 20.375 2.5H11.4688C10.9531 2.5 10.5312 2.92188 10.5312 3.4375C10.5312 3.95312 10.9531 4.375 11.4688 4.375Z" fill="white"/>
<path d="M20.375 15.625H11.4688C10.9531 15.625 10.5312 16.0469 10.5312 16.5625C10.5312 17.0781 10.9531 17.5 11.4688 17.5H20.375C20.8906 17.5 21.3125 17.0781 21.3125 16.5625C21.3125 16.0469 20.8906 15.625 20.375 15.625Z" fill="white"/>
<path d="M1.625 10.9375H13.3438V11.875C13.3438 12.3906 13.7656 12.8125 14.2812 12.8125C14.7969 12.8125 15.2188 12.3906 15.2188 11.875V8.125C15.2188 7.60938 14.7969 7.1875 14.2812 7.1875C13.7656 7.1875 13.3438 7.60938 13.3438 8.125V9.0625H1.625C1.10938 9.0625 0.6875 9.48438 0.6875 10C0.6875 10.5156 1.10938 10.9375 1.625 10.9375Z" fill="white"/>
<path d="M20.375 9.0625H18.0312C17.5156 9.0625 17.0938 9.48438 17.0938 10C17.0938 10.5156 17.5156 10.9375 18.0312 10.9375H20.375C20.8906 10.9375 21.3125 10.5156 21.3125 10C21.3125 9.48438 20.8906 9.0625 20.375 9.0625Z" fill="white"/>
<path d="M7.71875 13.75C7.20312 13.75 6.78125 14.1719 6.78125 14.6875V15.625H1.625C1.10938 15.625 0.6875 16.0469 0.6875 16.5625C0.6875 17.0781 1.10938 17.5 1.625 17.5H6.78125V18.4375C6.78125 18.9531 7.20312 19.375 7.71875 19.375C8.23438 19.375 8.65625 18.9531 8.65625 18.4375V14.6875C8.65625 14.1719 8.23438 13.75 7.71875 13.75Z" fill="white"/>
</svg>
