<svg width="24" height="24" viewBox="0 0 24 24" fill="none" xmlns="http://www.w3.org/2000/svg">
<path d="M12 0.625C5.74375 0.625 0.625 5.74375 0.625 12C0.625 18.2563 5.74375 23.375 12 23.375C18.2563 23.375 23.375 18.2563 23.375 12C23.375 5.74375 18.2563 0.625 12 0.625ZM9.2375 16.875H14.7625C14.1531 18.5406 13.2188 20.0844 12 21.3844C10.7812 20.0844 9.84688 18.5406 9.2375 16.875ZM8.75 15.25C8.50625 14.1938 8.34375 13.0969 8.34375 12C8.34375 10.9031 8.46562 9.80625 8.75 8.75H15.25C15.4937 9.80625 15.6562 10.9031 15.6562 12C15.6562 13.0969 15.5344 14.1938 15.25 15.25H8.75ZM14.7625 7.125H9.2375C9.84688 5.45937 10.7812 3.91563 12 2.61563C13.2188 3.91563 14.1531 5.45937 14.7625 7.125ZM16.9156 8.75H21.1812C21.5469 9.76562 21.75 10.8625 21.75 12C21.75 13.1375 21.5469 14.2344 21.1812 15.25H16.9156C17.1594 14.1938 17.2812 13.0969 17.2812 12C17.2812 10.9031 17.1594 9.80625 16.9156 8.75ZM20.45 7.125H16.4688C15.9 5.45937 15.0875 3.875 13.9906 2.45312C16.7531 3.02187 19.0688 4.76875 20.45 7.125ZM10.0094 2.45312C8.9125 3.875 8.05937 5.45937 7.53125 7.125H3.55C4.93125 4.76875 7.24688 3.02187 10.0094 2.45312ZM2.81875 8.75H7.08437C6.84062 9.80625 6.71875 10.9031 6.71875 12C6.71875 13.0969 6.84062 14.1938 7.08437 15.25H2.81875C2.45312 14.2344 2.25 13.1375 2.25 12C2.25 10.8625 2.45312 9.76562 2.81875 8.75ZM3.55 16.875H7.53125C8.1 18.5406 8.9125 20.125 10.0094 21.5469C7.24688 20.9781 4.93125 19.2313 3.55 16.875ZM13.9906 21.5469C15.0875 20.125 15.9406 18.5406 16.4688 16.875H20.4094C19.0688 19.2313 16.7531 20.9781 13.9906 21.5469Z" fill="white"/>
</svg>
