<svg width="18" height="18" viewBox="0 0 18 18" fill="none" xmlns="http://www.w3.org/2000/svg">
<path d="M9 0.25C4.1875 0.25 0.25 4.1875 0.25 9C0.25 13.8125 4.1875 17.75 9 17.75C13.8125 17.75 17.75 13.8125 17.75 9C17.75 4.1875 13.8125 0.25 9 0.25ZM9 16.5C8.28125 16.5 7.34375 15.1562 6.84375 12.6562C6.90625 12.6562 6.9375 12.6562 7 12.6562C7.25 12.6875 7.5 12.6875 7.78125 12.7188C7.875 12.7188 7.96875 12.7188 8.0625 12.7188C8.375 12.7188 8.71875 12.75 9.03125 12.75C9.375 12.75 9.65625 12.4688 9.65625 12.125C9.65625 11.7812 9.375 11.5 9.03125 11.5C8.65625 11.5 8.3125 11.5 7.96875 11.4688C7.90625 11.4688 7.84375 11.4688 7.78125 11.4688C7.4375 11.4375 7.09375 11.4062 6.78125 11.375C6.75 11.375 6.71875 11.375 6.71875 11.375C6.71875 11.3437 6.71875 11.3125 6.71875 11.3125C6.6875 10.9688 6.65625 10.6562 6.625 10.3125C6.625 10.25 6.625 10.1875 6.625 10.125C6.5 9.71875 6.5 9.375 6.5 9C6.5 8.65625 6.21875 8.375 5.875 8.375C5.53125 8.375 5.25 8.65625 5.25 9C5.25 9.3125 5.25 9.65625 5.28125 9.96875C5.28125 10.0625 5.28125 10.1562 5.28125 10.2188C5.28125 10.4688 5.3125 10.75 5.34375 11C5.34375 11.0313 5.34375 11.0938 5.34375 11.125C2.84375 10.6562 1.5 9.71875 1.5 9C1.5 8.21875 3.125 7.15625 6.1875 6.6875C6.40625 6.65625 6.625 6.625 6.84375 6.59375C6.9375 6.59375 7 6.59375 7.09375 6.5625C7.25 6.5625 7.375 6.53125 7.53125 6.53125C7.625 6.53125 7.71875 6.53125 7.8125 6.5C7.9375 6.5 8.09375 6.46875 8.21875 6.46875C8.3125 6.46875 8.40625 6.46875 8.5 6.46875C8.625 6.46875 8.78125 6.46875 8.90625 6.46875C9 6.46875 9.09375 6.46875 9.1875 6.46875C9.34375 6.46875 9.46875 6.46875 9.625 6.46875C9.71875 6.46875 9.8125 6.46875 9.875 6.46875C10.0312 6.46875 10.1562 6.46875 10.3125 6.5C10.4062 6.5 10.4688 6.5 10.5625 6.53125C10.7188 6.53125 10.8438 6.5625 11 6.5625C11.0938 6.5625 11.1562 6.59375 11.25 6.59375C11.2812 6.59375 11.3437 6.59375 11.375 6.625C11.375 6.65625 11.375 6.6875 11.375 6.6875C11.4062 7.03125 11.4375 7.34375 11.4688 7.6875C11.4688 7.75 11.4688 7.8125 11.4688 7.875C11.5 8.28125 11.5 8.625 11.5 9C11.5 9.96875 11.4375 10.9375 11.3125 11.8125C10.8438 14.875 9.78125 16.5 9 16.5ZM6.84375 5.34375C7.34375 2.84375 8.28125 1.5 9 1.5C9.71875 1.5 10.6562 2.84375 11.1562 5.34375C11.0938 5.34375 11.0312 5.34375 10.9688 5.34375C10.75 5.3125 10.5 5.3125 10.2812 5.28125C10.1562 5.28125 10.0625 5.28125 9.9375 5.25C9.6875 5.25 9.40625 5.21875 9.15625 5.21875C9.09375 5.21875 9.0625 5.21875 9 5.21875C8.9375 5.21875 8.90625 5.21875 8.84375 5.21875C8.59375 5.21875 8.3125 5.21875 8.0625 5.25C7.9375 5.25 7.84375 5.25 7.71875 5.28125C7.46875 5.28125 7.25 5.3125 7.03125 5.34375C6.96875 5.34375 6.90625 5.34375 6.84375 5.34375ZM12.6562 11.0312C12.6875 10.7812 12.6875 10.5 12.7188 10.25C12.7188 10.1562 12.7188 10.0625 12.7188 10C12.7188 9.6875 12.75 9.34375 12.75 9.03125C12.75 8.71875 12.75 8.375 12.7188 8.0625C12.7188 7.96875 12.7188 7.875 12.7188 7.8125C12.7188 7.5625 12.6875 7.28125 12.6562 7.03125C12.6562 7 12.6562 6.9375 12.6562 6.90625C15.1562 7.40625 16.5 8.34375 16.5 9.0625C16.5 9.78125 15.1562 10.7187 12.6562 11.2188C12.6562 11.125 12.6562 11.0625 12.6562 11.0312ZM16.1562 6.78125C15.25 6.25 14 5.8125 12.4375 5.53125C12.1562 4 11.75 2.71875 11.1875 1.8125C13.5625 2.5625 15.4375 4.4375 16.1562 6.78125ZM6.78125 1.84375C6.25 2.75 5.8125 4 5.53125 5.5625C4 5.84375 2.71875 6.25 1.8125 6.8125C2.5625 4.4375 4.4375 2.5625 6.78125 1.84375ZM1.84375 11.2188C2.75 11.75 4 12.1875 5.5625 12.4688C5.84375 14 6.25 15.2812 6.8125 16.1875C4.4375 15.4375 2.5625 13.5625 1.84375 11.2188ZM11.2188 16.1562C11.75 15.25 12.1875 14 12.4688 12.4375C14 12.1562 15.2812 11.75 16.1875 11.1875C15.4375 13.5625 13.5625 15.4375 11.2188 16.1562Z" fill="#333333"/>
</svg>
