<svg width="78" height="16" viewBox="0 0 78 16" fill="none" xmlns="http://www.w3.org/2000/svg">
<path d="M8.86702 3.79718V11.0246C8.86702 14.024 7.38403 15.5238 4.41806 15.5238C3.62508 15.5238 2.87328 15.4174 2.16269 15.2047C1.45209 15.0026 0.865077 14.7048 0.401644 14.3112L1.26672 12.8115C1.62717 13.12 2.0803 13.3646 2.62612 13.5454C3.18224 13.7369 3.74351 13.8326 4.30993 13.8326C5.21619 13.8326 5.88045 13.6199 6.30269 13.1944C6.72493 12.769 6.93605 12.1201 6.93605 11.248V10.8012C6.60649 11.1735 6.20485 11.4554 5.73112 11.6468C5.25739 11.8383 4.73731 11.934 4.1709 11.934C3.38821 11.934 2.67761 11.7638 2.0391 11.4235C1.4109 11.0725 0.911419 10.5832 0.540673 9.95564C0.180225 9.32809 0 8.61014 0 7.80177C0 6.99341 0.180225 6.28077 0.540673 5.66386C0.911419 5.03632 1.4109 4.55236 2.0391 4.212C2.67761 3.87164 3.38821 3.70145 4.1709 3.70145C4.76821 3.70145 5.30888 3.8025 5.79291 4.00459C6.28724 4.20668 6.69918 4.51514 7.02873 4.92995V3.79718H8.86702ZM4.4644 10.2428C5.1956 10.2428 5.79291 10.0195 6.25634 9.57273C6.73008 9.11536 6.96694 8.52504 6.96694 7.80177C6.96694 7.08914 6.73008 6.50945 6.25634 6.06273C5.79291 5.616 5.1956 5.39264 4.4644 5.39264C3.72291 5.39264 3.1153 5.616 2.64157 6.06273C2.17813 6.50945 1.94642 7.08914 1.94642 7.80177C1.94642 8.52504 2.17813 9.11536 2.64157 9.57273C3.1153 10.0195 3.72291 10.2428 4.4644 10.2428ZM13.2439 5.04164C13.8 4.14818 14.7784 3.70145 16.179 3.70145V5.60005C16.0142 5.56814 15.8649 5.55218 15.731 5.55218C14.9792 5.55218 14.3922 5.78086 13.9699 6.23823C13.5477 6.68495 13.3366 7.33377 13.3366 8.18468V12.3169H11.4056V3.79718H13.2439V5.04164ZM20.396 12.4286C19.7266 12.4286 19.0726 12.3382 18.4341 12.1574C17.7956 11.9765 17.2858 11.7479 16.9048 11.4713L17.6463 9.95564C18.017 10.2109 18.4599 10.4183 18.9748 10.5779C19.5 10.7268 20.0149 10.8012 20.5196 10.8012C21.673 10.8012 22.2497 10.4875 22.2497 9.85991C22.2497 9.56209 22.1004 9.35468 21.8017 9.23768C21.5134 9.12068 21.0448 9.009 20.396 8.90264C19.7163 8.79627 19.1602 8.67395 18.7276 8.53568C18.3054 8.39741 17.9346 8.15809 17.6154 7.81773C17.3064 7.46673 17.152 6.98277 17.152 6.36586C17.152 5.5575 17.4764 4.914 18.1252 4.43536C18.7843 3.94609 19.6699 3.70145 20.7822 3.70145C21.3486 3.70145 21.915 3.77059 22.4814 3.90886C23.0478 4.0365 23.5113 4.212 23.8717 4.43536L23.1302 5.95105C22.4299 5.52559 21.6421 5.31286 20.7667 5.31286C20.2003 5.31286 19.7678 5.40327 19.4691 5.58409C19.1808 5.75427 19.0366 5.98295 19.0366 6.27014C19.0366 6.58923 19.1911 6.81791 19.5 6.95618C19.8193 7.08382 20.3084 7.20613 20.9676 7.32313C21.6267 7.4295 22.1673 7.55182 22.5896 7.69009C23.0118 7.82836 23.3723 8.06236 23.6709 8.39209C23.9799 8.72182 24.1343 9.18982 24.1343 9.79609C24.1343 10.5938 23.7996 11.232 23.1302 11.7106C22.4608 12.1893 21.5494 12.4286 20.396 12.4286ZM33.7838 3.79718V12.3169H31.9455V11.232C31.6366 11.6149 31.2504 11.9127 30.787 12.1255C30.3235 12.3275 29.8241 12.4286 29.2885 12.4286C28.1866 12.4286 27.3164 12.1148 26.6779 11.4873C26.0496 10.8491 25.7355 9.90777 25.7355 8.66332V3.79718H27.6665V8.39209C27.6665 9.15791 27.8313 9.73227 28.1608 10.1152C28.5007 10.4875 28.9796 10.6736 29.5975 10.6736C30.2875 10.6736 30.8333 10.4555 31.235 10.0195C31.6469 9.57273 31.8529 8.93454 31.8529 8.10491V3.79718H33.7838ZM36.93 12.4286C36.5799 12.4286 36.2812 12.3063 36.0341 12.0616C35.7869 11.8064 35.6633 11.4873 35.6633 11.1044C35.6633 10.7108 35.7817 10.3917 36.0186 10.1471C36.2658 9.90245 36.5696 9.78014 36.93 9.78014C37.2905 9.78014 37.5891 9.90245 37.826 10.1471C38.0732 10.3917 38.1967 10.7108 38.1967 11.1044C38.1967 11.4873 38.0732 11.8064 37.826 12.0616C37.5788 12.3063 37.2802 12.4286 36.93 12.4286ZM42.6324 12.4286C41.963 12.4286 41.309 12.3382 40.6705 12.1574C40.032 11.9765 39.5222 11.7479 39.1412 11.4713L39.8827 9.95564C40.2534 10.2109 40.6963 10.4183 41.2112 10.5779C41.7364 10.7268 42.2514 10.8012 42.756 10.8012C43.9094 10.8012 44.4861 10.4875 44.4861 9.85991C44.4861 9.56209 44.3368 9.35468 44.0381 9.23768C43.7498 9.12068 43.2812 9.009 42.6324 8.90264C41.9527 8.79627 41.3966 8.67395 40.964 8.53568C40.5418 8.39741 40.1711 8.15809 39.8518 7.81773C39.5428 7.46673 39.3884 6.98277 39.3884 6.36586C39.3884 5.5575 39.7128 4.914 40.3616 4.43536C41.0207 3.94609 41.9064 3.70145 43.0186 3.70145C43.585 3.70145 44.1514 3.77059 44.7178 3.90886C45.2843 4.0365 45.7477 4.212 46.1081 4.43536L45.3666 5.95105C44.6664 5.52559 43.8785 5.31286 43.0031 5.31286C42.4367 5.31286 42.0042 5.40327 41.7055 5.58409C41.4172 5.75427 41.273 5.98295 41.273 6.27014C41.273 6.58923 41.4275 6.81791 41.7364 6.95618C42.0557 7.08382 42.5449 7.20613 43.204 7.32313C43.8631 7.4295 44.4037 7.55182 44.826 7.69009C45.2482 7.82836 45.6087 8.06236 45.9073 8.39209C46.2163 8.72182 46.3708 9.18982 46.3708 9.79609C46.3708 10.5938 46.0361 11.232 45.3666 11.7106C44.6972 12.1893 43.7858 12.4286 42.6324 12.4286ZM51.4011 8.66332L49.9645 10.0673V12.3169H48.0335V0.478636H49.9645V7.62627L53.9655 3.79718H56.2826L52.8378 7.371L56.607 12.3169H54.259L51.4011 8.66332ZM57.7789 3.79718H59.7099V12.3169H57.7789V3.79718ZM58.7521 2.39318C58.402 2.39318 58.1085 2.2815 57.8716 2.05814C57.6347 1.82414 57.5163 1.53695 57.5163 1.19659C57.5163 0.856228 57.6347 0.574364 57.8716 0.351C58.1085 0.117 58.402 0 58.7521 0C59.1023 0 59.3958 0.111682 59.6327 0.335046C59.8695 0.547773 59.988 0.819 59.988 1.14873C59.988 1.49973 59.8695 1.79755 59.6327 2.04218C59.4061 2.27618 59.1126 2.39318 58.7521 2.39318ZM62.2444 0.478636H64.1754V12.3169H62.2444V0.478636ZM66.7097 0.478636H68.6406V12.3169H66.7097V0.478636ZM73.724 12.4286C73.0546 12.4286 72.4007 12.3382 71.7622 12.1574C71.1236 11.9765 70.6139 11.7479 70.2328 11.4713L70.9743 9.95564C71.3451 10.2109 71.7879 10.4183 72.3028 10.5779C72.8281 10.7268 73.343 10.8012 73.8476 10.8012C75.001 10.8012 75.5778 10.4875 75.5778 9.85991C75.5778 9.56209 75.4284 9.35468 75.1298 9.23768C74.8414 9.12068 74.3728 9.009 73.724 8.90264C73.0443 8.79627 72.4882 8.67395 72.0557 8.53568C71.6334 8.39741 71.2627 8.15809 70.9434 7.81773C70.6345 7.46673 70.48 6.98277 70.48 6.36586C70.48 5.5575 70.8044 4.914 71.4532 4.43536C72.1123 3.94609 72.998 3.70145 74.1102 3.70145C74.6766 3.70145 75.2431 3.77059 75.8095 3.90886C76.3759 4.0365 76.8393 4.212 77.1998 4.43536L76.4583 5.95105C75.758 5.52559 74.9701 5.31286 74.0948 5.31286C73.5284 5.31286 73.0958 5.40327 72.7971 5.58409C72.5088 5.75427 72.3646 5.98295 72.3646 6.27014C72.3646 6.58923 72.5191 6.81791 72.8281 6.95618C73.1473 7.08382 73.6365 7.20613 74.2956 7.32313C74.9547 7.4295 75.4954 7.55182 75.9176 7.69009C76.3398 7.82836 76.7003 8.06236 76.999 8.39209C77.3079 8.72182 77.4624 9.18982 77.4624 9.79609C77.4624 10.5938 77.1277 11.232 76.4583 11.7106C75.7889 12.1893 74.8774 12.4286 73.724 12.4286Z" fill="#333333"/>
</svg>
