<svg width="128" height="27" viewBox="0 0 128 27" fill="none" xmlns="http://www.w3.org/2000/svg">
<path d="M14.9011 7.20564V19.066C14.9011 23.9882 12.4704 26.4493 7.60895 26.4493C6.30919 26.4493 5.07695 26.2747 3.91223 25.9256C2.74751 25.594 1.78535 25.1053 1.02575 24.4595L2.44367 21.9984C3.03447 22.5045 3.77719 22.906 4.67183 23.2027C5.58335 23.5169 6.50331 23.674 7.4317 23.674C8.91714 23.674 10.0059 23.3249 10.698 22.6267C11.3901 21.9285 11.7361 20.8638 11.7361 19.4325V18.6995C11.1959 19.3104 10.5376 19.7729 9.76115 20.0871C8.98467 20.4013 8.13223 20.5584 7.20383 20.5584C5.92095 20.5584 4.75623 20.2791 3.70967 19.7205C2.67999 19.1445 1.86131 18.3416 1.25363 17.3118C0.662833 16.282 0.367432 15.1038 0.367432 13.7773C0.367432 12.4507 0.662833 11.2813 1.25363 10.2689C1.86131 9.23909 2.67999 8.44491 3.70967 7.88637C4.75623 7.32782 5.92095 7.04855 7.20383 7.04855C8.18287 7.04855 9.06906 7.21436 9.86242 7.546C10.6727 7.87764 11.3479 8.38382 11.888 9.06455V7.20564H14.9011ZM7.6849 17.7831C8.88338 17.7831 9.86242 17.4165 10.622 16.6835C11.3985 15.9329 11.7867 14.9642 11.7867 13.7773C11.7867 12.6078 11.3985 11.6565 10.622 10.9235C9.86242 10.1904 8.88338 9.82382 7.6849 9.82382C6.46955 9.82382 5.47363 10.1904 4.69715 10.9235C3.93755 11.6565 3.55775 12.6078 3.55775 13.7773C3.55775 14.9642 3.93755 15.9329 4.69715 16.6835C5.47363 17.4165 6.46955 17.7831 7.6849 17.7831ZM22.0751 9.24782C22.9866 7.78164 24.5902 7.04855 26.8859 7.04855V10.1642C26.6158 10.1118 26.3711 10.0856 26.1516 10.0856C24.9194 10.0856 23.9572 10.4609 23.2651 11.2115C22.5731 11.9445 22.227 13.0093 22.227 14.4056V21.1867H19.062V7.20564H22.0751V9.24782ZM33.7979 21.37C32.7007 21.37 31.6288 21.2216 30.5823 20.9249C29.5357 20.6282 28.7001 20.2529 28.0756 19.7991L29.2909 17.3118C29.8986 17.7307 30.6245 18.0711 31.4685 18.3329C32.3293 18.5773 33.1733 18.6995 34.0005 18.6995C35.891 18.6995 36.8363 18.1845 36.8363 17.1547C36.8363 16.666 36.5915 16.3256 36.102 16.1336C35.6294 15.9416 34.8613 15.7584 33.7979 15.5838C32.6838 15.4093 31.7723 15.2085 31.0633 14.9816C30.3713 14.7547 29.7636 14.362 29.2403 13.8035C28.7339 13.2275 28.4807 12.4333 28.4807 11.4209C28.4807 10.0944 29.0124 9.03836 30.0759 8.25291C31.1562 7.45 32.6079 7.04855 34.4309 7.04855C35.3593 7.04855 36.2877 7.162 37.2161 7.38891C38.1445 7.59836 38.9041 7.88636 39.4949 8.25291L38.2795 10.7402C37.1317 10.042 35.8404 9.69291 34.4056 9.69291C33.4772 9.69291 32.7682 9.84127 32.2787 10.138C31.8061 10.4173 31.5697 10.7925 31.5697 11.2638C31.5697 11.7875 31.8229 12.1627 32.3293 12.3896C32.8526 12.5991 33.6544 12.7998 34.7347 12.9918C35.8151 13.1664 36.7012 13.3671 37.3933 13.594C38.0854 13.8209 38.6762 14.2049 39.1657 14.746C39.6721 15.2871 39.9253 16.0551 39.9253 17.05C39.9253 18.3591 39.3767 19.4064 38.2795 20.1918C37.1823 20.9773 35.6884 21.37 33.7979 21.37ZM55.7415 7.20564V21.1867H52.7284V19.4064C52.222 20.0347 51.589 20.5235 50.8294 20.8725C50.0698 21.2042 49.2512 21.37 48.3734 21.37C46.5672 21.37 45.1409 20.8551 44.0943 19.8253C43.0646 18.778 42.5498 17.2333 42.5498 15.1911V7.20564H45.7148V14.746C45.7148 16.0027 45.9849 16.9453 46.5251 17.5736C47.0821 18.1845 47.867 18.49 48.8798 18.49C50.0108 18.49 50.9054 18.1322 51.5637 17.4165C52.2389 16.6835 52.5765 15.6362 52.5765 14.2747V7.20564H55.7415ZM60.8984 21.37C60.3244 21.37 59.8349 21.1693 59.4298 20.7678C59.0247 20.3489 58.8221 19.8253 58.8221 19.1969C58.8221 18.5511 59.0162 18.0275 59.4045 17.626C59.8096 17.2245 60.3076 17.0238 60.8984 17.0238C61.4892 17.0238 61.9787 17.2245 62.3669 17.626C62.772 18.0275 62.9746 18.5511 62.9746 19.1969C62.9746 19.8253 62.772 20.3489 62.3669 20.7678C61.9618 21.1693 61.4723 21.37 60.8984 21.37ZM70.2449 21.37C69.1477 21.37 68.0759 21.2216 67.0293 20.9249C65.9827 20.6282 65.1472 20.2529 64.5226 19.7991L65.738 17.3118C66.3457 17.7307 67.0715 18.0711 67.9155 18.3329C68.7764 18.5773 69.6204 18.6995 70.4475 18.6995C72.3381 18.6995 73.2833 18.1845 73.2833 17.1547C73.2833 16.666 73.0386 16.3256 72.5491 16.1336C72.0764 15.9416 71.3084 15.7584 70.2449 15.5838C69.1309 15.4093 68.2193 15.2085 67.5104 14.9816C66.8183 14.7547 66.2106 14.362 65.6873 13.8035C65.1809 13.2275 64.9277 12.4333 64.9277 11.4209C64.9277 10.0944 65.4595 9.03836 66.5229 8.25291C67.6032 7.45 69.0549 7.04855 70.8779 7.04855C71.8064 7.04855 72.7347 7.162 73.6631 7.38891C74.5915 7.59836 75.3511 7.88636 75.9419 8.25291L74.7266 10.7402C73.5787 10.042 72.2874 9.69291 70.8526 9.69291C69.9242 9.69291 69.2153 9.84127 68.7258 10.138C68.2531 10.4173 68.0168 10.7925 68.0168 11.2638C68.0168 11.7875 68.27 12.1627 68.7764 12.3896C69.2997 12.5991 70.1015 12.7998 71.1818 12.9918C72.2621 13.1664 73.1483 13.3671 73.8404 13.594C74.5325 13.8209 75.1233 14.2049 75.6128 14.746C76.1192 15.2871 76.3724 16.0551 76.3724 17.05C76.3724 18.3591 75.8238 19.4064 74.7266 20.1918C73.6294 20.9773 72.1355 21.37 70.2449 21.37ZM84.6175 15.1911L82.2628 17.4951V21.1867H79.0978V1.75982H82.2628V13.4893L88.8207 7.20564H92.6187L86.9723 13.0704L93.1504 21.1867H89.3017L84.6175 15.1911ZM95.0712 7.20564H98.2362V21.1867H95.0712V7.20564ZM96.6663 4.90164C96.0924 4.90164 95.6113 4.71837 95.2231 4.35182C94.8349 3.96782 94.6407 3.49655 94.6407 2.938C94.6407 2.37946 94.8349 1.91691 95.2231 1.55037C95.6113 1.16637 96.0924 0.974365 96.6663 0.974365C97.2403 0.974365 97.7213 1.15764 98.1096 1.52418C98.4978 1.87327 98.6919 2.31836 98.6919 2.85946C98.6919 3.43546 98.4978 3.92418 98.1096 4.32564C97.7382 4.70964 97.2571 4.90164 96.6663 4.90164ZM102.39 1.75982H105.555V21.1867H102.39V1.75982ZM109.709 1.75982H112.874V21.1867H109.709V1.75982ZM121.206 21.37C120.109 21.37 119.037 21.2216 117.991 20.9249C116.944 20.6282 116.109 20.2529 115.484 19.7991L116.699 17.3118C117.307 17.7307 118.033 18.0711 118.877 18.3329C119.738 18.5773 120.582 18.6995 121.409 18.6995C123.299 18.6995 124.245 18.1845 124.245 17.1547C124.245 16.666 124 16.3256 123.51 16.1336C123.038 15.9416 122.27 15.7584 121.206 15.5838C120.092 15.4093 119.181 15.2085 118.472 14.9816C117.78 14.7547 117.172 14.362 116.649 13.8035C116.142 13.2275 115.889 12.4333 115.889 11.4209C115.889 10.0944 116.421 9.03836 117.484 8.25291C118.565 7.45 120.016 7.04855 121.839 7.04855C122.768 7.04855 123.696 7.162 124.625 7.38891C125.553 7.59836 126.313 7.88636 126.903 8.25291L125.688 10.7402C124.54 10.042 123.249 9.69291 121.814 9.69291C120.886 9.69291 120.177 9.84127 119.687 10.138C119.214 10.4173 118.978 10.7925 118.978 11.2638C118.978 11.7875 119.231 12.1627 119.738 12.3896C120.261 12.5991 121.063 12.7998 122.143 12.9918C123.223 13.1664 124.11 13.3671 124.802 13.594C125.494 13.8209 126.085 14.2049 126.574 14.746C127.081 15.2871 127.334 16.0551 127.334 17.05C127.334 18.3591 126.785 19.4064 125.688 20.1918C124.591 20.9773 123.097 21.37 121.206 21.37Z" fill="white"/>
</svg>
