<svg width="56" height="56" viewBox="0 0 56 56" fill="none" xmlns="http://www.w3.org/2000/svg">
<path d="M28 0C12.6 0 0 12.6 0 28C0 43.4 12.6 56 28 56C43.4 56 56 43.4 56 28C56 12.6 43.4 0 28 0ZM28 4C41.2 4 52 14.8 52 28C52 33.5 50.1 38.6 47 42.7C45.1 37.1 40.9 32.6 35.4 30.4C38.2 28.2 40 24.8 40 21C40 14.4 34.6 9 28 9C21.4 9 16 14.4 16 21C16 24.8 17.8 28.2 20.6 30.4C15.2 32.6 10.9 37 9 42.7C5.9 38.6 4 33.5 4 28C4 14.8 14.8 4 28 4ZM20 21C20 16.6 23.6 13 28 13C32.4 13 36 16.6 36 21C36 25.4 32.4 29 28 29C23.6 29 20 25.4 20 21ZM12.3 46.1C13.7 38.6 20.2 33 28 33C35.8 33 42.3 38.6 43.7 46.1C39.5 49.8 34 52 28 52C22 52 16.5 49.8 12.3 46.1Z" fill="#333333"/>
</svg>
