<svg width="24" height="24" viewBox="0 0 24 24" fill="none" xmlns="http://www.w3.org/2000/svg">
<path d="M12 0.625C5.74375 0.625 0.625 5.74375 0.625 12C0.625 18.2563 5.74375 23.375 12 23.375C18.2563 23.375 23.375 18.2563 23.375 12C23.375 5.74375 18.2563 0.625 12 0.625ZM12 21.75C6.6375 21.75 2.25 17.3625 2.25 12C2.25 6.6375 6.6375 2.25 12 2.25C17.3625 2.25 21.75 6.6375 21.75 12C21.75 17.3625 17.3625 21.75 12 21.75Z" fill="#333333"/>
<path d="M12 7.9375C12.6731 7.9375 13.2188 7.39185 13.2188 6.71875C13.2188 6.04565 12.6731 5.5 12 5.5C11.3269 5.5 10.7812 6.04565 10.7812 6.71875C10.7812 7.39185 11.3269 7.9375 12 7.9375Z" fill="#333333"/>
<path d="M13.625 16.0625H12.8125V10.375C12.8125 9.92813 12.4469 9.5625 12 9.5625H10.375C9.92813 9.5625 9.5625 9.92813 9.5625 10.375C9.5625 10.8219 9.92813 11.1875 10.375 11.1875H11.1875V16.0625H10.375C9.92813 16.0625 9.5625 16.4281 9.5625 16.875C9.5625 17.3219 9.92813 17.6875 10.375 17.6875H13.625C14.0719 17.6875 14.4375 17.3219 14.4375 16.875C14.4375 16.4281 14.0719 16.0625 13.625 16.0625Z" fill="#333333"/>
</svg>
