<svg width="20" height="21" viewBox="0 0 20 21" fill="none" xmlns="http://www.w3.org/2000/svg">
<path d="M17 4.3199H14V3.23993C14 2.38064 13.6839 1.55656 13.1213 0.948952C12.5587 0.341348 11.7956 0 11 0H9C8.20435 0 7.44129 0.341348 6.87868 0.948952C6.31607 1.55656 6 2.38064 6 3.23993V4.3199H3C2.20435 4.3199 1.44129 4.66125 0.87868 5.26885C0.316071 5.87646 0 6.70055 0 7.55983V17.2796C0 18.1389 0.316071 18.963 0.87868 19.5706C1.44129 20.1782 2.20435 20.5195 3 20.5195H17C17.7956 20.5195 18.5587 20.1782 19.1213 19.5706C19.6839 18.963 20 18.1389 20 17.2796V7.55983C20 6.70055 19.6839 5.87646 19.1213 5.26885C18.5587 4.66125 17.7956 4.3199 17 4.3199ZM8 3.23993C8 2.9535 8.10536 2.6788 8.29289 2.47627C8.48043 2.27373 8.73478 2.15995 9 2.15995H11C11.2652 2.15995 11.5196 2.27373 11.7071 2.47627C11.8946 2.6788 12 2.9535 12 3.23993V4.3199H8V3.23993ZM18 17.2796C18 17.566 17.8946 17.8407 17.7071 18.0433C17.5196 18.2458 17.2652 18.3596 17 18.3596H3C2.73478 18.3596 2.48043 18.2458 2.29289 18.0433C2.10536 17.8407 2 17.566 2 17.2796V11.8257H5V12.9597C5 13.2461 5.10536 13.5208 5.29289 13.7234C5.48043 13.9259 5.73478 14.0397 6 14.0397C6.26522 14.0397 6.51957 13.9259 6.70711 13.7234C6.89464 13.5208 7 13.2461 7 12.9597V11.8257H13V12.9597C13 13.2461 13.1054 13.5208 13.2929 13.7234C13.4804 13.9259 13.7348 14.0397 14 14.0397C14.2652 14.0397 14.5196 13.9259 14.7071 13.7234C14.8946 13.5208 15 13.2461 15 12.9597V11.8257H18V17.2796ZM18 9.71978H2V7.55983C2 7.2734 2.10536 6.9987 2.29289 6.79617C2.48043 6.59364 2.73478 6.47985 3 6.47985H17C17.2652 6.47985 17.5196 6.59364 17.7071 6.79617C17.8946 6.9987 18 7.2734 18 7.55983V9.71978Z" fill="#F96326"/>
</svg>
