<svg width="25" height="34" viewBox="0 0 25 34" fill="none" xmlns="http://www.w3.org/2000/svg">
<path d="M12.0455 33.5025C11.1794 33.5025 10.3751 33.0694 9.88011 32.2651L1.65158 18.0353C-0.513824 14.3232 -0.513824 9.80677 1.65158 6.09465C3.81698 2.32066 7.71471 0.0933838 12.0455 0.0933838C16.3763 0.0933838 20.2122 2.32066 22.3776 6.09465C24.543 9.80677 24.543 14.3232 22.3776 18.0353L14.1491 32.2651C13.716 33.0075 12.9117 33.5025 12.0455 33.5025ZM12.0455 2.56813C8.58087 2.56813 5.54931 4.36232 3.81698 7.33202C2.08466 10.3017 2.08466 13.8282 3.81698 16.7979L12.0455 31.0277L20.2741 16.7979C22.0064 13.8282 22.0064 10.3017 20.2741 7.33202C18.5417 4.36232 15.4483 2.56813 12.0455 2.56813Z" fill="white"/>
<path d="M12.0454 16.7979C9.32318 16.7979 7.0959 14.5707 7.0959 11.8484C7.0959 9.12621 9.32318 6.89894 12.0454 6.89894C14.7676 6.89894 16.9949 9.12621 16.9949 11.8484C16.9949 14.5707 14.7676 16.7979 12.0454 16.7979ZM12.0454 9.37369C10.6843 9.37369 9.57065 10.4873 9.57065 11.8484C9.57065 13.2095 10.6843 14.3232 12.0454 14.3232C13.4065 14.3232 14.5201 13.2095 14.5201 11.8484C14.5201 10.4873 13.4065 9.37369 12.0454 9.37369Z" fill="white"/>
</svg>
