<svg width="76" height="76" viewBox="0 0 76 76" fill="none" xmlns="http://www.w3.org/2000/svg">
<path d="M37.134 72.5C37.5189 73.1667 38.4811 73.1667 38.866 72.5L68.3109 21.5C68.6958 20.8333 68.2147 20 67.4449 20H8.55514C7.78534 20 7.30421 20.8333 7.68911 21.5L37.134 72.5L36.2679 73L37.134 72.5Z" stroke="white" stroke-width="2"/>
<path d="M38 26L34.5359 20H41.4641L38 26Z" stroke="white" stroke-width="2"/>
<path d="M20 48.9999L35 74.9999" stroke="white" stroke-width="2"/>
<circle cx="20" cy="49" r="1" fill="white"/>
<circle cx="35" cy="75" r="1" fill="white"/>
<path d="M30.32 42L30.314 39.48L29.078 41.556H28.64L27.41 39.534V42H26.498V37.8H27.302L28.874 40.41L30.422 37.8H31.22L31.232 42H30.32ZM34.2385 42.072C33.8105 42.072 33.4225 41.98 33.0745 41.796C32.7305 41.608 32.4585 41.35 32.2585 41.022C32.0625 40.69 31.9645 40.316 31.9645 39.9C31.9645 39.484 32.0625 39.112 32.2585 38.784C32.4585 38.452 32.7305 38.194 33.0745 38.01C33.4225 37.822 33.8125 37.728 34.2445 37.728C34.6085 37.728 34.9365 37.792 35.2285 37.92C35.5245 38.048 35.7725 38.232 35.9725 38.472L35.3485 39.048C35.0645 38.72 34.7125 38.556 34.2925 38.556C34.0325 38.556 33.8005 38.614 33.5965 38.73C33.3925 38.842 33.2325 39 33.1165 39.204C33.0045 39.408 32.9485 39.64 32.9485 39.9C32.9485 40.16 33.0045 40.392 33.1165 40.596C33.2325 40.8 33.3925 40.96 33.5965 41.076C33.8005 41.188 34.0325 41.244 34.2925 41.244C34.7125 41.244 35.0645 41.078 35.3485 40.746L35.9725 41.322C35.7725 41.566 35.5245 41.752 35.2285 41.88C34.9325 42.008 34.6025 42.072 34.2385 42.072ZM40.4509 42L40.4449 39.48L39.2089 41.556H38.7709L37.5409 39.534V42H36.6289V37.8H37.4329L39.0049 40.41L40.5529 37.8H41.3509L41.3629 42H40.4509ZM45.0053 42L43.9913 40.542L42.9953 42H41.8793L43.4333 39.864L41.9573 37.8H43.0613L44.0273 39.162L44.9753 37.8H46.0253L44.5613 39.828L46.1273 42H45.0053ZM46.5078 37.8H47.4798V41.208H49.5858V42H46.5078V37.8Z" fill="white"/>
<path d="M38 30.0897L48.7624 34.75H27.2376L38 30.0897Z" stroke="white" stroke-width="2"/>
<line x1="27" y1="45" x2="49" y2="45" stroke="white" stroke-width="2"/>
<line x1="28" y1="49" x2="48" y2="49" stroke="white" stroke-width="2"/>
<circle cx="27" cy="45" r="1" fill="white"/>
<circle cx="49" cy="45" r="1" fill="white"/>
<circle cx="28" cy="49" r="1" fill="white"/>
<circle cx="48" cy="49" r="1" fill="white"/>
</svg>
