<svg width="24" height="24" viewBox="0 0 24 24" fill="none" xmlns="http://www.w3.org/2000/svg">
<path d="M14.3438 21.8438H2.625V2.15625H14.3438C14.8594 2.15625 15.2812 1.73438 15.2812 1.21875C15.2812 0.703125 14.8594 0.28125 14.3438 0.28125H2.625C1.59375 0.28125 0.75 1.125 0.75 2.15625V21.8438C0.75 22.875 1.59375 23.7188 2.625 23.7188H14.3438C14.8594 23.7188 15.2812 23.2969 15.2812 22.7812C15.2812 22.2656 14.8594 21.8438 14.3438 21.8438Z" fill="#FF0000"/>
<path d="M23.0156 12.6094L23.0625 12.5625C23.2969 12.1875 23.2969 11.7188 22.9688 11.3906L18.2812 6.70312C17.9063 6.32812 17.3437 6.32812 16.9688 6.70312C16.5938 7.07812 16.5938 7.64062 16.9688 8.01562L20.0625 11.1094H6.375C5.85938 11.1094 5.4375 11.5312 5.4375 12.0469C5.4375 12.5625 5.85938 12.9844 6.375 12.9844H20.0625L16.9688 16.0781C16.5938 16.4531 16.5938 17.0156 16.9688 17.3906C17.1562 17.5312 17.3906 17.625 17.625 17.625C17.8594 17.625 18.0938 17.5312 18.2812 17.3438L22.9688 12.6562C23.0156 12.6562 23.0156 12.6094 23.0156 12.6094Z" fill="#FF0000"/>
</svg>
