<svg width="37" height="32" viewBox="0 0 37 32" fill="none" xmlns="http://www.w3.org/2000/svg">
<path fill-rule="evenodd" clip-rule="evenodd" d="M28.0033 13.18C30.0133 9.58035 27.5009 5.08081 23.4813 5.08081H5.59975C1.58007 5.08081 -0.932232 9.58035 1.0776 13.18L10.0184 29.1929C12.0282 32.7925 17.0528 32.7925 19.0626 29.1929L28.0033 13.18ZM24.8375 11.9045C25.6417 10.4646 24.6366 8.66479 23.0287 8.66479H6.14308C4.53521 8.66479 3.53028 10.4646 4.33421 11.9045L12.7771 27.0257C13.581 28.4655 15.5908 28.4655 16.3948 27.0257L24.8375 11.9045Z" fill="white"/>
<path d="M35.6618 8.56499C37.6718 4.96536 35.1594 0.46582 31.1398 0.46582H13.2583C9.23858 0.46582 6.72628 4.96536 8.73611 8.56499L8.79184 8.66479H23.0287C24.6366 8.66479 25.6417 10.4646 24.8375 11.9045L17.7195 24.653C19.7569 28.1774 24.7252 28.1523 26.7212 24.5779L35.6618 8.56499Z" fill="white"/>
</svg>
