<svg width="16" height="16" viewBox="0 0 16 16" fill="none" xmlns="http://www.w3.org/2000/svg">
<path d="M15.1875 15.8125H10.1875C9.84375 15.8125 9.5625 15.5312 9.5625 15.1875V10.1875H6.4375V15.1875C6.4375 15.5312 6.15625 15.8125 5.8125 15.8125H0.8125C0.46875 15.8125 0.1875 15.5312 0.1875 15.1875V5.8125C0.1875 5.59375 0.28125 5.40625 0.46875 5.3125L7.65625 0.3125C7.875 0.15625 8.15625 0.15625 8.375 0.3125L15.5625 5.3125C15.7188 5.4375 15.8438 5.625 15.8438 5.8125V15.1875C15.8125 15.5312 15.5312 15.8125 15.1875 15.8125ZM10.8125 14.5625H14.5625V6.125L8 1.5625L1.4375 6.125V14.5625H5.1875V9.5625C5.1875 9.21875 5.46875 8.9375 5.8125 8.9375H10.1875C10.5312 8.9375 10.8125 9.21875 10.8125 9.5625V14.5625Z" fill="#333333"/>
</svg>
