<svg width="24" height="16" viewBox="0 0 24 16" fill="none" xmlns="http://www.w3.org/2000/svg">
<path d="M11.8781 15.7188C5.6625 15.7188 1.88438 10.4781 0.86875 8.85313C0.54375 8.325 0.54375 7.63437 0.86875 7.10625C1.88438 5.52187 5.6625 0.28125 11.8781 0.28125C18.0938 0.28125 21.8719 5.52187 22.8875 7.14687C23.2125 7.675 23.2125 8.36563 22.8875 8.89375C21.8313 10.4781 18.0531 15.7188 11.8781 15.7188ZM11.8781 1.90625C6.51563 1.90625 3.14375 6.57812 2.25 8C3.14375 9.42188 6.51563 14.0938 11.8781 14.0938C17.2406 14.0938 20.6125 9.42188 21.5063 8C20.5719 6.57812 17.2406 1.90625 11.8781 1.90625Z" fill="#333333"/>
<path d="M11.8781 11.6562C9.84686 11.6562 8.22186 10.0312 8.22186 8C8.22186 5.96875 9.84686 4.34375 11.8781 4.34375C13.9094 4.34375 15.5344 5.96875 15.5344 8C15.5344 10.0312 13.8687 11.6562 11.8781 11.6562ZM11.8781 5.96875C10.7406 5.96875 9.84686 6.8625 9.84686 8C9.84686 9.1375 10.7406 10.0312 11.8781 10.0312C13.0156 10.0312 13.9094 9.1375 13.9094 8C13.9094 6.8625 12.975 5.96875 11.8781 5.96875Z" fill="#333333"/>
</svg>
