<svg width="36" height="28" viewBox="0 0 36 28" fill="none" xmlns="http://www.w3.org/2000/svg">
<path d="M34.6875 12.6876C33.8125 11.3126 31.5625 8.06256 28 5.56256L31.125 2.43756C31.625 1.93756 31.625 1.18756 31.125 0.687561C30.625 0.187561 29.875 0.187561 29.375 0.687561L25.8125 4.25006C23.5 3.00006 20.8125 2.18756 17.75 2.18756C8.25 2.12506 2.4375 10.1876 0.875 12.6876C0.375 13.5001 0.375 14.5626 0.875 15.3751C1.75 16.7501 4 20.0001 7.5625 22.5001L4.4375 25.6251C3.9375 26.1251 3.9375 26.8751 4.4375 27.3751C4.6875 27.6251 5 27.7501 5.3125 27.7501C5.625 27.7501 5.9375 27.6251 6.1875 27.3751L9.75 23.8126C12.0625 25.0626 14.75 25.8751 17.8125 25.8751C27.375 25.8751 33.1875 17.8126 34.75 15.3126C35.25 14.5001 35.25 13.5001 34.6875 12.6876ZM3 14.0001C4.375 11.8126 9.5625 4.62506 17.8125 4.62506C20.125 4.62506 22.1875 5.18756 24 6.06256L9.375 20.6876C6 18.3751 3.8125 15.3126 3 14.0001ZM32.5625 14.0001C31.1875 16.1876 26 23.3751 17.75 23.3751C15.4375 23.3751 13.375 22.8126 11.5625 21.9376L26.1875 7.31256C29.625 9.62506 31.75 12.6876 32.5625 14.0001Z" fill="#333333"/>
<path d="M18.2501 9.50004C18.1251 8.81254 17.5001 8.37504 16.8126 8.50004C14.5001 8.87504 12.6251 10.75 12.2501 13.0625C12.1251 13.75 12.5626 14.375 13.2501 14.5C13.3126 14.5 13.3751 14.5 13.4376 14.5C14.0626 14.5 14.5626 14.0625 14.6876 13.4375C14.9376 12.125 15.9376 11.125 17.2501 10.875C17.9376 10.8125 18.3751 10.1875 18.2501 9.50004Z" fill="#333333"/>
<path d="M22.3124 13.5626C21.6249 13.4376 20.9999 13.8751 20.8749 14.5626C20.6249 15.8126 19.6249 16.8126 18.3749 17.0626C17.6874 17.1876 17.2499 17.8751 17.3749 18.5001C17.4999 19.1251 17.9999 19.5001 18.6249 19.5001C18.6874 19.5001 18.7499 19.5001 18.8749 19.5001C21.1249 19.0626 22.9374 17.2501 23.3749 15.0001C23.4374 14.3751 22.9999 13.6876 22.3124 13.5626Z" fill="#333333"/>
</svg>
