<svg width="20" height="21" viewBox="0 0 20 21" fill="none" xmlns="http://www.w3.org/2000/svg">
<path d="M9.99975 1.00001C8.69913 0.952782 7.4024 1.16913 6.18756 1.63605C4.97273 2.10297 3.86489 2.8108 2.9307 3.71696C1.99651 4.62313 1.25528 5.7089 0.751584 6.90895C0.247892 8.10901 -0.0078455 9.39855 -0.000244978 10.7C-0.0170048 12.0512 0.254374 13.3904 0.79581 14.6285C1.33725 15.8665 2.13631 16.975 3.13975 17.88C3.21942 17.951 3.28429 18.037 3.33062 18.1331C3.37695 18.2292 3.40385 18.3335 3.40975 18.44V20.22C3.41524 20.3512 3.45254 20.4791 3.51845 20.5927C3.58437 20.7063 3.67691 20.8022 3.78811 20.8721C3.89932 20.9419 4.02584 20.9837 4.15678 20.9938C4.28772 21.0039 4.41916 20.982 4.53975 20.93L6.53975 20.06C6.71053 19.9955 6.89898 19.9955 7.06975 20.06C8.0152 20.3152 8.99048 20.443 9.96976 20.44C12.5477 20.444 15.0216 19.4237 16.8472 17.6037C18.6729 15.7837 19.7008 13.3129 19.7048 10.735C19.7087 8.1571 18.6885 5.6832 16.8684 3.85754C15.0484 2.03187 12.5777 1.00399 9.99975 1.00001ZM15.9998 8.46001L13.0698 13.12C12.9593 13.2955 12.8136 13.4461 12.6419 13.5624C12.4703 13.6787 12.2764 13.7582 12.0724 13.7957C11.8685 13.8333 11.659 13.8282 11.4572 13.7808C11.2554 13.7333 11.0656 13.6445 10.8998 13.52L8.55976 11.77C8.4559 11.6921 8.32958 11.65 8.19975 11.65C8.06993 11.65 7.94361 11.6921 7.83976 11.77L4.67975 14.17C4.59175 14.2379 4.48254 14.2724 4.37151 14.2674C4.26049 14.2623 4.15483 14.2181 4.0733 14.1426C3.99178 14.0671 3.93965 13.9651 3.92619 13.8548C3.91272 13.7445 3.93879 13.6329 3.99975 13.54L6.92976 8.88001C7.04026 8.70456 7.18594 8.55393 7.35759 8.43763C7.52925 8.32132 7.72315 8.24187 7.92706 8.20428C8.13097 8.16669 8.34046 8.17179 8.5423 8.21925C8.74415 8.2667 8.93396 8.35549 9.09976 8.48001L11.4398 10.23C11.5436 10.3079 11.6699 10.35 11.7998 10.35C11.9296 10.35 12.0559 10.3079 12.1598 10.23L15.3198 7.83001C15.4078 7.76214 15.517 7.72765 15.628 7.73266C15.739 7.73768 15.8447 7.78188 15.9262 7.85741C16.0077 7.93294 16.0599 8.03492 16.0733 8.14524C16.0868 8.25556 16.0607 8.36708 15.9998 8.46001Z" fill="#333333"/>
</svg>
