<svg width="64" height="55" viewBox="0 0 64 55" fill="none" xmlns="http://www.w3.org/2000/svg">
<path d="M54.1663 9.58357H50.113L49.0997 6.4169C48.4428 4.5588 47.2242 2.95099 45.6129 1.81624C44.0015 0.681491 42.0771 0.0759692 40.1063 0.0835667H23.893C21.9029 0.0872898 19.9642 0.715897 18.3506 1.88067C16.737 3.04544 15.5299 4.68755 14.8997 6.57523L13.8863 9.7419H9.83301C7.31345 9.7419 4.89709 10.7428 3.11549 12.5244C1.3339 14.306 0.333008 16.7223 0.333008 19.2419V44.5752C0.333008 47.0948 1.3339 49.5112 3.11549 51.2927C4.89709 53.0743 7.31345 54.0752 9.83301 54.0752H54.1663C56.6859 54.0752 59.1023 53.0743 60.8839 51.2927C62.6655 49.5112 63.6663 47.0948 63.6663 44.5752V19.2419C63.6874 17.9811 63.4572 16.7287 62.9892 15.5578C62.5212 14.3868 61.8247 13.3208 60.9405 12.4218C60.0562 11.5228 59.0018 10.8088 57.8388 10.3216C56.6757 9.83426 55.4273 9.58339 54.1663 9.58357ZM57.333 44.4169C57.333 45.2567 56.9994 46.0622 56.4055 46.6561C55.8117 47.2499 55.0062 47.5836 54.1663 47.5836H9.83301C8.99316 47.5836 8.1877 47.2499 7.59384 46.6561C6.99997 46.0622 6.66634 45.2567 6.66634 44.4169V19.0836C6.66634 18.2437 6.99997 17.4383 7.59384 16.8444C8.1877 16.2505 8.99316 15.9169 9.83301 15.9169H16.1663C16.8569 15.9529 17.5402 15.762 18.112 15.3731C18.6839 14.9843 19.1127 14.419 19.333 13.7636L21.043 8.57023C21.2554 7.94127 21.6602 7.39497 22.2 7.00857C22.7398 6.62216 23.3875 6.41519 24.0513 6.4169H40.2647C40.9285 6.41519 41.5762 6.62216 42.116 7.00857C42.6558 7.39497 43.0606 7.94127 43.273 8.57023L44.983 13.7636C45.1862 14.3676 45.5669 14.8963 46.0754 15.2804C46.5839 15.6646 47.1964 15.8864 47.833 15.9169H54.1663C55.0062 15.9169 55.8117 16.2505 56.4055 16.8444C56.9994 17.4383 57.333 18.2437 57.333 19.0836V44.4169ZM31.9997 15.9169C29.4944 15.9169 27.0455 16.6598 24.9625 18.0516C22.8794 19.4434 21.2559 21.4217 20.2972 23.7362C19.3385 26.0508 19.0876 28.5976 19.5764 31.0547C20.0651 33.5118 21.2715 35.7688 23.043 37.5402C24.8145 39.3117 27.0714 40.5181 29.5285 41.0068C31.9856 41.4956 34.5325 41.2447 36.847 40.286C39.1615 39.3273 41.1398 37.7038 42.5316 35.6208C43.9235 33.5378 44.6663 31.0888 44.6663 28.5836C44.6663 25.2242 43.3318 22.0023 40.9564 19.6269C38.5809 17.2514 35.3591 15.9169 31.9997 15.9169ZM31.9997 34.9169C30.7471 34.9169 29.5226 34.5455 28.4811 33.8495C27.4396 33.1536 26.6278 32.1645 26.1484 31.0072C25.6691 29.85 25.5437 28.5765 25.788 27.348C26.0324 26.1194 26.6356 24.991 27.5213 24.1052C28.4071 23.2195 29.5356 22.6163 30.7641 22.3719C31.9926 22.1276 33.2661 22.253 34.4233 22.7323C35.5806 23.2117 36.5697 24.0234 37.2656 25.065C37.9616 26.1065 38.333 27.3309 38.333 28.5836C38.333 30.2633 37.6657 31.8742 36.478 33.0619C35.2903 34.2496 33.6794 34.9169 31.9997 34.9169Z" fill="white"/>
</svg>
