<svg width="16" height="16" viewBox="0 0 16 16" fill="none" xmlns="http://www.w3.org/2000/svg">
<path d="M15.1875 14.5625H1.4375V0.8125C1.4375 0.46875 1.15625 0.1875 0.8125 0.1875C0.46875 0.1875 0.1875 0.46875 0.1875 0.8125V15.1875C0.1875 15.5312 0.46875 15.8125 0.8125 15.8125H15.1875C15.5312 15.8125 15.8125 15.5312 15.8125 15.1875C15.8125 14.8438 15.5312 14.5625 15.1875 14.5625Z" fill="#333333"/>
<path d="M3.3125 9.875C3.46875 9.875 3.625 9.8125 3.75 9.6875L7.0625 6.40625C7.15625 6.4375 7.28125 6.4375 7.375 6.4375C7.5 6.4375 7.59375 6.40625 7.6875 6.40625L9.90625 8.625C9.875 8.71875 9.875 8.84375 9.875 8.9375C9.875 9.625 10.4375 10.1875 11.125 10.1875C11.8125 10.1875 12.375 9.625 12.375 8.9375C12.375 8.8125 12.3438 8.71875 12.3438 8.625L15.6562 5.3125C15.9062 5.0625 15.9062 4.6875 15.6562 4.4375C15.4062 4.1875 15.0312 4.1875 14.7812 4.4375L11.4375 7.71875C11.3438 7.6875 11.2188 7.6875 11.125 7.6875C11 7.6875 10.9062 7.71875 10.8125 7.71875L8.59375 5.5C8.625 5.40625 8.625 5.28125 8.625 5.1875C8.625 4.5 8.0625 3.9375 7.375 3.9375C6.6875 3.9375 6.125 4.5 6.125 5.1875C6.125 5.3125 6.15625 5.40625 6.15625 5.5L2.875 8.8125C2.625 9.0625 2.625 9.4375 2.875 9.6875C3 9.8125 3.15625 9.875 3.3125 9.875Z" fill="#333333"/>
</svg>
