<svg width="16" height="18" viewBox="0 0 16 18" fill="none" xmlns="http://www.w3.org/2000/svg">
<path d="M15.3125 4.8125L11.25 0.75C11.125 0.625 10.9688 0.5625 10.8125 0.5625H4.25C3.5625 0.5625 3 1.125 3 1.8125V5.5625H1.125C0.78125 5.5625 0.5 5.84375 0.5 6.1875V14.3125C0.5 14.6562 0.78125 14.9375 1.125 14.9375H3V16.1875C3 16.875 3.5625 17.4375 4.25 17.4375H14.25C14.9375 17.4375 15.5 16.875 15.5 16.1875V5.25C15.5 5.09375 15.4375 4.9375 15.3125 4.8125ZM11.4375 2.6875L13.375 4.625H11.4375V2.6875ZM1.75 6.8125H8.625V13.6875H1.75V6.8125ZM4.25 16.1875V14.9375H9.25C9.59375 14.9375 9.875 14.6562 9.875 14.3125V6.1875C9.875 5.84375 9.59375 5.5625 9.25 5.5625H4.25V1.8125H10.1875V5.25C10.1875 5.59375 10.4688 5.875 10.8125 5.875H14.25V16.1875H4.25Z" fill="#333333"/>
<path d="M7.0625 8.0625C6.71875 8.0625 6.4375 8.34375 6.4375 8.6875V10.2812L5.625 9.46875C5.5 9.34375 5.34375 9.28125 5.1875 9.28125C5.03125 9.28125 4.875 9.34375 4.75 9.46875L3.9375 10.2812V8.6875C3.9375 8.34375 3.65625 8.0625 3.3125 8.0625C2.96875 8.0625 2.6875 8.34375 2.6875 8.6875V11.8125C2.6875 12.0625 2.84375 12.2813 3.0625 12.4062C3.3125 12.5 3.5625 12.4375 3.75 12.2812L5.15625 10.8438L6.59375 12.2812C6.75 12.375 6.90625 12.4375 7.0625 12.4375C7.15625 12.4375 7.21875 12.4375 7.3125 12.375C7.53125 12.2812 7.6875 12.0625 7.6875 11.8125V8.6875C7.6875 8.34375 7.40625 8.0625 7.0625 8.0625Z" fill="#333333"/>
</svg>
