<svg width="30" height="30" viewBox="0 0 30 30" fill="none" xmlns="http://www.w3.org/2000/svg">
<path d="M29.1208 27.875L22.9607 21.5C24.7725 19.25 25.8596 16.3125 25.8596 13.125C25.8596 5.875 20.1826 0 13.177 0C6.17135 0 0.494385 5.875 0.494385 13.125C0.494385 20.375 6.17135 26.25 13.177 26.25C16.257 26.25 19.0351 25.125 21.2697 23.25L27.4298 29.625C27.6713 29.875 27.9733 30 28.2753 30C28.5772 30 28.8792 29.875 29.1208 29.625C29.6039 29.125 29.6039 28.375 29.1208 27.875ZM2.91012 13.125C2.91012 7.25 7.5 2.5 13.177 2.5C18.8539 2.5 23.4438 7.25 23.4438 13.125C23.4438 19 18.8539 23.75 13.177 23.75C7.5 23.75 2.91012 19 2.91012 13.125Z" fill="#333333"/>
</svg>
