<svg width="21" height="20" viewBox="0 0 21 20" fill="none" xmlns="http://www.w3.org/2000/svg">
<path d="M21.0005 9.00018C21.0033 8.29534 20.8198 7.60227 20.4686 6.99116C20.1173 6.38005 19.6109 5.87259 19.0005 5.52018C19.0155 5.34717 19.0155 5.17318 19.0005 5.00018C19.0005 4.20453 18.6844 3.44147 18.1218 2.87886C17.5592 2.31625 16.7961 2.00018 16.0005 2.00018H15.8205C15.6539 1.53849 15.3767 1.12471 15.013 0.795124C14.6493 0.465537 14.2104 0.230211 13.7346 0.109781C13.2588 -0.010649 12.7607 -0.0125045 12.284 0.104378C11.8073 0.22126 11.3666 0.453309 11.0005 0.780177C10.6344 0.453309 10.1936 0.22126 9.71695 0.104378C9.24026 -0.0125045 8.74219 -0.010649 8.26639 0.109781C7.79059 0.230211 7.35161 0.465537 6.98793 0.795124C6.62426 1.12471 6.347 1.53849 6.18047 2.00018H6.00047C5.20482 2.00018 4.44176 2.31625 3.87915 2.87886C3.31654 3.44147 3.00047 4.20453 3.00047 5.00018C2.98542 5.17318 2.98542 5.34717 3.00047 5.52018C2.43293 5.84097 1.9524 6.29562 1.60071 6.84455C1.24902 7.39348 1.03683 8.02005 0.98261 8.66972C0.928388 9.31939 1.03378 9.97246 1.28961 10.5721C1.54544 11.1717 1.94396 11.6997 2.45047 12.1102C2.12274 12.7214 1.95959 13.4074 1.97702 14.1008C1.99445 14.7941 2.19187 15.471 2.5499 16.0651C2.90792 16.6591 3.41426 17.1498 4.0192 17.4891C4.62415 17.8283 5.30691 18.0045 6.00047 18.0002H6.18047C6.347 18.4619 6.62426 18.8756 6.98793 19.2052C7.35161 19.5348 7.79059 19.7701 8.26639 19.8906C8.74219 20.011 9.24026 20.0129 9.71695 19.896C10.1936 19.7791 10.6344 19.547 11.0005 19.2202C11.3666 19.547 11.8073 19.7791 12.284 19.896C12.7607 20.0129 13.2588 20.011 13.7346 19.8906C14.2104 19.7701 14.6493 19.5348 15.013 19.2052C15.3767 18.8756 15.6539 18.4619 15.8205 18.0002H16.0005C16.6898 17.9958 17.3663 17.8134 17.9644 17.4706C18.5624 17.1278 19.0617 16.6362 19.4139 16.0436C19.766 15.451 19.9591 14.7775 19.9742 14.0883C19.9894 13.3991 19.8262 12.7177 19.5005 12.1102C19.9669 11.7367 20.3438 11.2635 20.6033 10.7254C20.8629 10.1872 20.9986 9.59768 21.0005 9.00018ZM10.0005 6.55018C9.78267 6.42561 9.55528 6.3186 9.32047 6.23018C9.06852 6.14531 8.79317 6.164 8.555 6.28215C8.31682 6.4003 8.13534 6.60822 8.05047 6.86018C7.9656 7.11213 7.9843 7.38748 8.10245 7.62565C8.22059 7.86382 8.42852 8.04531 8.68047 8.13018C9.06541 8.26934 9.39839 8.52327 9.63444 8.85767C9.87049 9.19208 9.99825 9.59086 10.0005 10.0002V11.5502C9.78267 11.4256 9.55528 11.3186 9.32047 11.2302C9.06852 11.1453 8.79317 11.164 8.555 11.2822C8.31682 11.4003 8.13534 11.6082 8.05047 11.8602C7.9656 12.1121 7.9843 12.3875 8.10245 12.6257C8.22059 12.8638 8.42852 13.0453 8.68047 13.1302C9.06541 13.2693 9.39839 13.5233 9.63444 13.8577C9.87049 14.1921 9.99825 14.5909 10.0005 15.0002V17.0002C10.0005 17.2654 9.89512 17.5197 9.70758 17.7073C9.52004 17.8948 9.26569 18.0002 9.00047 18.0002C8.80701 17.9989 8.61806 17.9416 8.45654 17.8351C8.29502 17.7286 8.16786 17.5775 8.09047 17.4002C8.25815 17.3018 8.41856 17.1915 8.57047 17.0702C8.67159 16.9861 8.75516 16.883 8.81642 16.7666C8.87768 16.6503 8.91542 16.523 8.92749 16.3921C8.93957 16.2612 8.92573 16.1291 8.88678 16.0036C8.84783 15.878 8.78452 15.7613 8.70047 15.6602C8.61643 15.5591 8.51329 15.4755 8.39694 15.4142C8.2806 15.353 8.15333 15.3152 8.0224 15.3032C7.89147 15.2911 7.75944 15.3049 7.63386 15.3439C7.50827 15.3828 7.39159 15.4461 7.29047 15.5302C6.9294 15.8342 6.47246 16.0006 6.00047 16.0002C5.47004 16.0002 4.96133 15.7895 4.58626 15.4144C4.21119 15.0393 4.00047 14.5306 4.00047 14.0002C4.00526 13.6238 4.11618 13.2564 4.32047 12.9402C4.54489 12.9804 4.77247 13.0005 5.00047 13.0002C5.26569 13.0002 5.52004 12.8948 5.70758 12.7073C5.89512 12.5197 6.00047 12.2654 6.00047 12.0002C6.00047 11.735 5.89512 11.4806 5.70758 11.2931C5.52004 11.1055 5.26569 11.0002 5.00047 11.0002C4.76426 11.0015 4.53 10.9574 4.31047 10.8702C3.95082 10.7405 3.63588 10.5104 3.40296 10.2072C3.17005 9.90399 3.02892 9.54038 2.9963 9.15944C2.96368 8.77851 3.04093 8.3962 3.2189 8.05782C3.39687 7.71943 3.66811 7.43915 4.00047 7.25018C4.14257 7.38092 4.29657 7.49809 4.46047 7.60018C4.69121 7.73279 4.96518 7.7683 5.2221 7.69891C5.47903 7.62952 5.69786 7.46091 5.83047 7.23018C5.96308 6.99944 5.9986 6.72547 5.92921 6.46855C5.85982 6.21162 5.69121 5.99279 5.46047 5.86018C5.3197 5.78252 5.2023 5.66857 5.12047 5.53018C5.02802 5.36962 4.98619 5.1849 5.00047 5.00018C5.00047 4.73496 5.10583 4.48061 5.29337 4.29307C5.4809 4.10553 5.73526 4.00018 6.00047 4.00018C6.07014 3.99046 6.14081 3.99046 6.21047 4.00018C6.26341 4.16085 6.32688 4.31785 6.40047 4.47018C6.4658 4.58476 6.55316 4.6853 6.6575 4.76598C6.76185 4.84666 6.88113 4.90591 7.00847 4.9403C7.13581 4.97469 7.2687 4.98355 7.39947 4.96637C7.53025 4.94918 7.65634 4.9063 7.77047 4.84018C7.99218 4.70678 8.15355 4.49265 8.22068 4.24277C8.28781 3.99289 8.25548 3.72672 8.13047 3.50018C8.04657 3.34678 8.00191 3.17501 8.00047 3.00018C8.00047 2.73496 8.10583 2.48061 8.29337 2.29307C8.4809 2.10553 8.73526 2.00018 9.00047 2.00018C9.26569 2.00018 9.52004 2.10553 9.70758 2.29307C9.89512 2.48061 10.0005 2.73496 10.0005 3.00018V6.55018ZM17.6905 10.8702C17.471 10.9574 17.2367 11.0015 17.0005 11.0002C16.7353 11.0002 16.4809 11.1055 16.2934 11.2931C16.1058 11.4806 16.0005 11.735 16.0005 12.0002C16.0005 12.2654 16.1058 12.5197 16.2934 12.7073C16.4809 12.8948 16.7353 13.0002 17.0005 13.0002C17.2285 13.0005 17.4561 12.9804 17.6805 12.9402C17.8848 13.2564 17.9957 13.6238 18.0005 14.0002C18.0005 14.5306 17.7898 15.0393 17.4147 15.4144C17.0396 15.7895 16.5309 16.0002 16.0005 16.0002C15.5285 16.0006 15.0715 15.8342 14.7105 15.5302C14.5063 15.3604 14.243 15.2788 13.9785 15.3032C13.7141 15.3275 13.4702 15.456 13.3005 15.6602C13.1307 15.8644 13.0491 16.1277 13.0735 16.3921C13.0978 16.6565 13.2263 16.9004 13.4305 17.0702C13.5824 17.1915 13.7428 17.3018 13.9105 17.4002C13.8331 17.5775 13.7059 17.7286 13.5444 17.8351C13.3829 17.9416 13.1939 17.9989 13.0005 18.0002C12.7353 18.0002 12.4809 17.8948 12.2934 17.7073C12.1058 17.5197 12.0005 17.2654 12.0005 17.0002V15.0002C12.0027 14.5909 12.1305 14.1921 12.3665 13.8577C12.6026 13.5233 12.9355 13.2693 13.3205 13.1302C13.5724 13.0453 13.7804 12.8638 13.8985 12.6257C14.0166 12.3875 14.0353 12.1121 13.9505 11.8602C13.8656 11.6082 13.6841 11.4003 13.446 11.2822C13.2078 11.164 12.9324 11.1453 12.6805 11.2302C12.4457 11.3186 12.2183 11.4256 12.0005 11.5502V10.0002C12.0027 9.59086 12.1305 9.19208 12.3665 8.85767C12.6026 8.52327 12.9355 8.26934 13.3205 8.13018C13.5724 8.04531 13.7804 7.86382 13.8985 7.62565C14.0166 7.38748 14.0353 7.11213 13.9505 6.86018C13.8656 6.60822 13.6841 6.4003 13.446 6.28215C13.2078 6.164 12.9324 6.14531 12.6805 6.23018C12.4457 6.3186 12.2183 6.42561 12.0005 6.55018V3.00018C12.0005 2.73496 12.1058 2.48061 12.2934 2.29307C12.4809 2.10553 12.7353 2.00018 13.0005 2.00018C13.2657 2.00018 13.52 2.10553 13.7076 2.29307C13.8951 2.48061 14.0005 2.73496 14.0005 3.00018C13.999 3.17501 13.9544 3.34678 13.8705 3.50018C13.8039 3.61371 13.7605 3.73927 13.7426 3.86964C13.7246 4.00001 13.7326 4.13263 13.7661 4.25991C13.7995 4.38718 13.8578 4.5066 13.9375 4.61133C14.0171 4.71605 14.1167 4.80401 14.2305 4.87018C14.3446 4.9363 14.4707 4.97918 14.6015 4.99637C14.7323 5.01355 14.8651 5.00469 14.9925 4.9703C15.1198 4.93591 15.2391 4.87666 15.3434 4.79598C15.4478 4.7153 15.5351 4.61476 15.6005 4.50018C15.6753 4.33812 15.7388 4.17105 15.7905 4.00018C15.8601 3.99046 15.9308 3.99046 16.0005 4.00018C16.2657 4.00018 16.52 4.10553 16.7076 4.29307C16.8951 4.48061 17.0005 4.73496 17.0005 5.00018C16.9989 5.19621 16.9398 5.38747 16.8305 5.55018C16.7487 5.67994 16.6351 5.78665 16.5005 5.86018C16.2697 5.99279 16.1011 6.21162 16.0317 6.46855C15.9623 6.72547 15.9979 6.99944 16.1305 7.23018C16.2631 7.46091 16.4819 7.62952 16.7388 7.69891C16.9958 7.7683 17.2697 7.73279 17.5005 7.60018C17.68 7.50308 17.8478 7.38564 18.0005 7.25018C18.334 7.43581 18.6074 7.713 18.7884 8.04901C18.9695 8.38502 19.0506 8.76583 19.0222 9.14645C18.9938 9.52708 18.8571 9.89163 18.6282 10.1971C18.3993 10.5025 18.0878 10.7361 17.7305 10.8702H17.6905Z" fill="#3E97D5"/>
</svg>
