<svg width="20" height="20" viewBox="0 0 20 20" fill="none" xmlns="http://www.w3.org/2000/svg">
<path d="M19.9734 4.68079C19.9722 4.32058 19.9391 3.96119 19.8747 3.60679C19.8028 3.17355 19.666 2.75362 19.469 2.36113C19.2533 1.94866 18.9725 1.57372 18.6373 1.25077C18.1311 0.755246 17.5057 0.398433 16.8216 0.2147C16.1933 0.0624046 15.5478 -0.00646449 14.9016 0.00987005L14.8979 0H5.09916L5.09861 0.00989008C4.73104 0.00700307 4.36357 0.0234423 3.99772 0.05914C3.59681 0.101883 3.20218 0.190727 2.82163 0.32391C2.19463 0.560349 1.63223 0.941307 1.18007 1.43586C0.727906 1.93041 0.398736 2.52461 0.21928 3.17023C0.0680699 3.79342 -0.000796949 4.43374 0.0144399 5.07483L0.00784999 14.913V14.9139C0.00659468 15.3594 0.0368636 15.8044 0.09843 16.2456C0.165304 16.7125 0.303319 17.1663 0.50767 17.5914C0.795897 18.1586 1.2063 18.655 1.70933 19.0447C2.06864 19.331 2.47569 19.5516 2.91172 19.6964C3.55183 19.8943 4.21862 19.9922 4.88859 19.9869C5.30796 19.9895 5.72703 20 6.14659 19.9982C9.19323 19.9854 12.2399 20.0202 15.2867 19.9794C15.6891 19.9706 16.0901 19.928 16.4855 19.852C17.2328 19.7205 17.9283 19.3821 18.4931 18.8754C19.1584 18.297 19.6229 17.5224 19.8196 16.6631C19.9408 16.0877 19.9987 15.5008 19.9923 14.9129V14.7957C19.9923 14.7502 19.975 4.81219 19.9734 4.68079ZM17.2973 13.9306C17.1695 14.23 16.5233 14.4782 15.4294 14.6472C15.3268 14.663 15.2835 14.829 15.2243 15.1007C15.1999 15.2128 15.175 15.3228 15.1409 15.4384C15.1307 15.4871 15.1031 15.5304 15.0633 15.5602C15.0235 15.59 14.9742 15.6042 14.9246 15.6002H14.9075C14.8027 15.5965 14.6986 15.5833 14.5962 15.5609C14.3264 15.5044 14.0515 15.4753 13.7759 15.474C13.5776 15.4745 13.3798 15.4912 13.1842 15.524C12.7717 15.6285 12.3879 15.8245 12.0614 16.0975C11.5094 16.5688 10.8158 16.8422 10.0907 16.8743C10.0492 16.8743 10.0096 16.8728 9.97953 16.8713C9.95561 16.8734 9.93095 16.8743 9.90623 16.8743C9.18156 16.8424 8.48835 16.5692 7.93675 16.0981C7.6099 15.8248 7.22575 15.6285 6.81275 15.5239C6.61728 15.4911 6.41946 15.4744 6.22126 15.4739C5.94537 15.4768 5.67051 15.5079 5.40095 15.5667C5.29871 15.5905 5.1946 15.6054 5.08979 15.6113C5.03699 15.6174 4.98384 15.6036 4.94065 15.5726C4.89746 15.5416 4.86732 15.4957 4.85609 15.4438C4.8216 15.3267 4.79688 15.2132 4.77302 15.1039C4.71333 14.8308 4.67002 14.6641 4.56782 14.6483C3.4741 14.4795 2.82792 14.231 2.69926 13.93C2.68614 13.8999 2.67845 13.8678 2.67655 13.835C2.67413 13.7917 2.68777 13.7491 2.71487 13.7153C2.74197 13.6815 2.7806 13.6589 2.82334 13.6519C3.72779 13.4881 4.54279 13.0035 5.11869 12.2871C5.43569 11.9203 5.69926 11.5106 5.90159 11.0701L5.90559 11.0617C5.96517 10.9641 6.00274 10.8548 6.01566 10.7412C6.02859 10.6277 6.01656 10.5127 5.98042 10.4043C5.83949 10.072 5.37281 9.92391 5.06403 9.82595C4.98725 9.80166 4.91462 9.77865 4.85676 9.75564C4.58302 9.64754 4.13288 9.41909 4.19282 9.10378C4.23874 8.985 4.32065 8.88355 4.42708 8.81362C4.53351 8.74369 4.65913 8.70879 4.78638 8.71378C4.84817 8.7124 4.9095 8.72465 4.96601 8.74966C5.19647 8.86774 5.44973 8.9346 5.70844 8.94566C5.86221 8.95665 6.01457 8.9101 6.13593 8.81504C6.12788 8.66911 6.1191 8.52321 6.10957 8.37736C5.96894 7.39162 6.02902 6.38763 6.2862 5.4257C6.58859 4.73525 7.08766 4.14917 7.7211 3.74063C8.35455 3.33208 9.0943 3.11917 9.848 3.12848L10.1427 3.12573C10.8975 3.11611 11.6384 3.32898 12.2729 3.73777C12.9075 4.14657 13.4076 4.7332 13.7109 5.42444C13.9681 6.38725 14.0281 7.39209 13.8873 8.37866L13.8843 8.42645C13.8757 8.56207 13.8678 8.69045 13.861 8.81488C13.9712 8.90204 14.1084 8.94794 14.2488 8.94464C14.4925 8.92628 14.7301 8.86008 14.9482 8.74982C15.0205 8.7185 15.0986 8.703 15.1773 8.70435C15.2667 8.70404 15.3553 8.72099 15.4383 8.75427L15.4423 8.75586C15.5362 8.77817 15.6213 8.82796 15.6867 8.89887C15.7521 8.96978 15.7949 9.05858 15.8095 9.15393C15.8123 9.3067 15.6987 9.5351 15.1402 9.75574C15.083 9.77838 15.01 9.80151 14.9329 9.82599C14.6239 9.92407 14.1576 10.0721 14.0166 10.4042C13.9804 10.5125 13.9684 10.6275 13.9813 10.7411C13.9942 10.8546 14.0318 10.9639 14.0915 11.0614L14.0955 11.07C14.3749 11.7084 14.7982 12.2736 15.3322 12.7215C15.8662 13.1693 16.4964 13.4877 17.1738 13.6517C17.2165 13.6588 17.2551 13.6814 17.2822 13.7152C17.3093 13.749 17.3229 13.7916 17.3205 13.8348C17.3185 13.8679 17.3107 13.9003 17.2973 13.9306Z" fill="#333333"/>
</svg>
