<svg width="16" height="18" viewBox="0 0 16 18" fill="none" xmlns="http://www.w3.org/2000/svg">
<path d="M15.4688 5C15.5 4.84375 15.5 4.6875 15.4062 4.53125C15.3125 4.40625 15.1875 4.3125 15.0625 4.25C15 4.21875 14.9688 4.15625 14.9062 4.125L8.625 0.4375C8.21875 0.21875 7.75 0.21875 7.34375 0.4375L1.125 4.125C1.0625 4.15625 1 4.21875 0.96875 4.25C0.8125 4.28125 0.6875 4.375 0.625 4.53125C0.53125 4.6875 0.53125 4.84375 0.5625 5C0.5 5.0625 0.5 5.125 0.5 5.1875V12.5938C0.5 13.0312 0.75 13.4375 1.125 13.6562L7.375 17.3438C7.5625 17.4688 7.78125 17.5312 8 17.5312C8.21875 17.5312 8.4375 17.4688 8.625 17.3438L14.875 13.6875C15.25 13.4688 15.5 13.0625 15.5 12.625V5.1875C15.5 5.125 15.5 5.0625 15.4688 5ZM8 1.5L13.6562 4.84375L8 8.21875L2.34375 4.84375L8 1.5ZM1.75 12.5938V5.9375L7.375 9.28125V15.9062L1.75 12.5938ZM8.625 15.9375V9.28125L14.25 5.9375V12.5938L8.625 15.9375Z" fill="#333333"/>
</svg>
