<svg width="457" height="310" viewBox="0 0 457 310" fill="none" xmlns="http://www.w3.org/2000/svg">
<circle cx="122.5" cy="262.5" r="47.5" fill="white"/>
<circle cx="333.5" cy="262.5" r="47.5" fill="white"/>
<circle r="66.5" transform="matrix(-1 0 0 1 390.5 176.5)" fill="#DFF7FF"/>
<line y1="-4" x2="40" y2="-4" transform="matrix(-1 8.74228e-08 8.74228e-08 1 410 263)" stroke="#B1E2FD" stroke-width="8"/>
<line y1="-4" x2="76" y2="-4" transform="matrix(-4.37114e-08 1 1 4.37114e-08 394 167)" stroke="#B1E2FD" stroke-width="8"/>
<path d="M374 259C376.101 259 378.182 258.586 380.123 257.782C382.064 256.978 383.828 255.799 385.314 254.314C386.799 252.828 387.978 251.064 388.782 249.123C389.586 247.182 390 245.101 390 243" stroke="#B1E2FD" stroke-width="8"/>
<path d="M343 174C343 176.917 344.159 179.715 346.222 181.778C348.285 183.841 351.083 185 354 185C356.917 185 359.715 183.841 361.778 181.778C363.841 179.715 365 176.917 365 174" stroke="#B1E2FD" stroke-width="8"/>
<path d="M400 135C400 137.917 401.159 140.715 403.222 142.778C405.285 144.841 408.083 146 411 146C413.917 146 416.715 144.841 418.778 142.778C420.841 140.715 422 137.917 422 135" stroke="#B1E2FD" stroke-width="8"/>
<path d="M369 146C369 151.57 371.212 156.911 375.151 160.849C379.089 164.788 384.43 167 390 167C395.57 167 400.911 164.788 404.849 160.849C408.788 156.911 411 151.57 411 146" stroke="#B1E2FD" stroke-width="8"/>
<path d="M354 185C354 194.548 357.793 203.705 364.544 210.456C371.295 217.207 380.452 221 390 221C399.548 221 408.705 217.207 415.456 210.456C422.207 203.705 426 194.548 426 185" stroke="#B1E2FD" stroke-width="8"/>
<circle r="4" transform="matrix(-1 0 0 1 410 259)" fill="#B1E2FD"/>
<circle r="4" transform="matrix(-1 0 0 1 369 146)" fill="#B1E2FD"/>
<circle r="4" transform="matrix(-1 0 0 1 365 174)" fill="#B1E2FD"/>
<circle r="4" transform="matrix(-1 0 0 1 422 135)" fill="#B1E2FD"/>
<circle r="4" transform="matrix(-1 0 0 1 411 146)" fill="#B1E2FD"/>
<circle r="4" transform="matrix(-1 0 0 1 426 185)" fill="#B1E2FD"/>
<circle r="4" transform="matrix(-1 0 0 1 343 174)" fill="#B1E2FD"/>
<circle r="4" transform="matrix(-1 0 0 1 400 135)" fill="#B1E2FD"/>
<circle r="4" transform="matrix(-1 0 0 1 370 259)" fill="#B1E2FD"/>
<circle cx="66.5" cy="176.5" r="66.5" fill="#DFF7FF"/>
<line x1="47" y1="259" x2="87" y2="259" stroke="#B1E2FD" stroke-width="8"/>
<line x1="67" y1="167" x2="67" y2="243" stroke="#B1E2FD" stroke-width="8"/>
<path d="M83 259C80.8989 259 78.8183 258.586 76.8771 257.782C74.9359 256.978 73.172 255.799 71.6863 254.314C70.2006 252.828 69.022 251.064 68.2179 249.123C67.4139 247.182 67 245.101 67 243" stroke="#B1E2FD" stroke-width="8"/>
<path d="M114 174C114 176.917 112.841 179.715 110.778 181.778C108.715 183.841 105.917 185 103 185C100.083 185 97.2847 183.841 95.2218 181.778C93.1589 179.715 92 176.917 92 174" stroke="#B1E2FD" stroke-width="8"/>
<path d="M57 135C57 137.917 55.8411 140.715 53.7782 142.778C51.7153 144.841 48.9174 146 46 146C43.0826 146 40.2847 144.841 38.2218 142.778C36.1589 140.715 35 137.917 35 135" stroke="#B1E2FD" stroke-width="8"/>
<path d="M88 146C88 151.57 85.7875 156.911 81.8492 160.849C77.911 164.788 72.5695 167 67 167C61.4305 167 56.089 164.788 52.1508 160.849C48.2125 156.911 46 151.57 46 146" stroke="#B1E2FD" stroke-width="8"/>
<path d="M103 185C103 194.548 99.2071 203.705 92.4558 210.456C85.7045 217.207 76.5478 221 67 221C57.4522 221 48.2955 217.207 41.5442 210.456C34.7928 203.705 31 194.548 31 185" stroke="#B1E2FD" stroke-width="8"/>
<circle cx="47" cy="259" r="4" fill="#B1E2FD"/>
<circle cx="88" cy="146" r="4" fill="#B1E2FD"/>
<circle cx="92" cy="174" r="4" fill="#B1E2FD"/>
<circle cx="35" cy="135" r="4" fill="#B1E2FD"/>
<circle cx="46" cy="146" r="4" fill="#B1E2FD"/>
<circle cx="31" cy="185" r="4" fill="#B1E2FD"/>
<circle cx="114" cy="174" r="4" fill="#B1E2FD"/>
<circle cx="57" cy="135" r="4" fill="#B1E2FD"/>
<circle cx="87" cy="259" r="4" fill="#B1E2FD"/>
<circle r="74.5" transform="matrix(-1 0 0 1 148.5 166.5)" fill="#B1E2FD"/>
<circle cx="309.5" cy="166.5" r="74.5" fill="#B1E2FD"/>
<line y1="-4" x2="40" y2="-4" transform="matrix(-1 8.74228e-08 8.74228e-08 1 168 271)" stroke="#96C0DF" stroke-width="8"/>
<line y1="-4" x2="80" y2="-4" transform="matrix(-4.37114e-08 1 1 4.37114e-08 152 171)" stroke="#96C0DF" stroke-width="8"/>
<line y1="-4" x2="16" y2="-4" transform="matrix(-4.37114e-08 1 1 4.37114e-08 131 134)" stroke="#96C0DF" stroke-width="8"/>
<path d="M132 267C134.101 267 136.182 266.586 138.123 265.782C140.064 264.978 141.828 263.799 143.314 262.314C144.799 260.828 145.978 259.064 146.782 257.123C147.586 255.182 148 253.101 148 251" stroke="#96C0DF" stroke-width="8"/>
<path d="M158 137C158 139.917 159.159 142.715 161.222 144.778C163.285 146.841 166.083 148 169 148C171.917 148 174.715 146.841 176.778 144.778C178.841 142.715 180 139.917 180 137" stroke="#96C0DF" stroke-width="8"/>
<path d="M173 180C173 182.917 174.159 185.715 176.222 187.778C178.285 189.841 181.083 191 184 191C186.917 191 189.715 189.841 191.778 187.778C193.841 185.715 195 182.917 195 180" stroke="#96C0DF" stroke-width="8"/>
<path d="M116 121C116 123.917 117.159 126.715 119.222 128.778C121.285 130.841 124.083 132 127 132C129.917 132 132.715 130.841 134.778 128.778C136.841 126.715 138 123.917 138 121" stroke="#96C0DF" stroke-width="8"/>
<path d="M101 180C101 182.917 102.159 185.715 104.222 187.778C106.285 189.841 109.083 191 112 191C114.917 191 117.715 189.841 119.778 187.778C121.841 185.715 123 182.917 123 180" stroke="#96C0DF" stroke-width="8"/>
<path d="M127 150C127 155.57 129.212 160.911 133.151 164.849C137.089 168.788 142.43 171 148 171C153.57 171 158.911 168.788 162.849 164.849C166.788 160.911 169 155.57 169 150" stroke="#96C0DF" stroke-width="8"/>
<path d="M112 191C112 200.548 115.793 209.705 122.544 216.456C129.295 223.207 138.452 227 148 227C157.548 227 166.705 223.207 173.456 216.456C180.207 209.705 184 200.548 184 191" stroke="#96C0DF" stroke-width="8"/>
<circle cx="129" cy="267" r="4" fill="#96C0DF"/>
<circle r="4" transform="matrix(-1 0 0 1 180 137)" fill="#96C0DF"/>
<circle r="4" transform="matrix(-1 0 0 1 195 180)" fill="#96C0DF"/>
<circle r="4" transform="matrix(-1 0 0 1 158 137)" fill="#96C0DF"/>
<circle r="4" transform="matrix(-1 0 0 1 173 180)" fill="#96C0DF"/>
<circle r="4" transform="matrix(-1 0 0 1 138 121)" fill="#96C0DF"/>
<circle r="4" transform="matrix(-1 0 0 1 123 180)" fill="#96C0DF"/>
<circle r="4" transform="matrix(-1 0 0 1 168 267)" fill="#96C0DF"/>
<circle r="4" transform="matrix(-1 0 0 1 101 180)" fill="#96C0DF"/>
<circle r="4" transform="matrix(-1 0 0 1 116 121)" fill="#96C0DF"/>
<circle r="4" transform="matrix(-1 0 0 1 128 267)" fill="#96C0DF"/>
<line x1="290" y1="267" x2="330" y2="267" stroke="#96C0DF" stroke-width="8"/>
<line x1="310" y1="171" x2="310" y2="251" stroke="#96C0DF" stroke-width="8"/>
<line x1="331" y1="134" x2="331" y2="150" stroke="#96C0DF" stroke-width="8"/>
<path d="M326 267C323.899 267 321.818 266.586 319.877 265.782C317.936 264.978 316.172 263.799 314.686 262.314C313.201 260.828 312.022 259.064 311.218 257.123C310.414 255.182 310 253.101 310 251" stroke="#96C0DF" stroke-width="8"/>
<path d="M300 138C300 140.917 298.841 143.715 296.778 145.778C294.715 147.841 291.917 149 289 149C286.083 149 283.285 147.841 281.222 145.778C279.159 143.715 278 140.917 278 138" stroke="#96C0DF" stroke-width="8"/>
<path d="M285 180C285 182.917 283.841 185.715 281.778 187.778C279.715 189.841 276.917 191 274 191C271.083 191 268.285 189.841 266.222 187.778C264.159 185.715 263 182.917 263 180" stroke="#96C0DF" stroke-width="8"/>
<path d="M342 121C342 123.917 340.841 126.715 338.778 128.778C336.715 130.841 333.917 132 331 132C328.083 132 325.285 130.841 323.222 128.778C321.159 126.715 320 123.917 320 121" stroke="#96C0DF" stroke-width="8"/>
<path d="M357 180C357 182.917 355.841 185.715 353.778 187.778C351.715 189.841 348.917 191 346 191C343.083 191 340.285 189.841 338.222 187.778C336.159 185.715 335 182.917 335 180" stroke="#96C0DF" stroke-width="8"/>
<path d="M331 150C331 155.57 328.788 160.911 324.849 164.849C320.911 168.788 315.57 171 310 171C304.43 171 299.089 168.788 295.151 164.849C291.212 160.911 289 155.57 289 150" stroke="#96C0DF" stroke-width="8"/>
<path d="M346 191C346 200.548 342.207 209.705 335.456 216.456C328.705 223.207 319.548 227 310 227C300.452 227 291.295 223.207 284.544 216.456C277.793 209.705 274 200.548 274 191" stroke="#96C0DF" stroke-width="8"/>
<circle cx="290" cy="267" r="4" fill="#96C0DF"/>
<circle cx="278" cy="138" r="4" fill="#96C0DF"/>
<circle cx="263" cy="180" r="4" fill="#96C0DF"/>
<circle cx="300" cy="138" r="4" fill="#96C0DF"/>
<circle cx="285" cy="180" r="4" fill="#96C0DF"/>
<circle cx="320" cy="121" r="4" fill="#96C0DF"/>
<circle cx="335" cy="180" r="4" fill="#96C0DF"/>
<circle cx="357" cy="180" r="4" fill="#96C0DF"/>
<circle cx="342" cy="121" r="4" fill="#96C0DF"/>
<circle cx="330" cy="267" r="4" fill="#96C0DF"/>
<g filter="url(#filter0_d_804_55)">
<circle cx="229" cy="154" r="94" fill="#FFA47F"/>
</g>
<line x1="209" y1="287" x2="249" y2="287" stroke="#F96326" stroke-width="8"/>
<line x1="229" y1="151" x2="229" y2="271" stroke="#F96326" stroke-width="8"/>
<line x1="255" y1="106" x2="255" y2="129" stroke="#F96326" stroke-width="8"/>
<path d="M245 287C242.899 287 240.818 286.586 238.877 285.782C236.936 284.978 235.172 283.799 233.686 282.314C232.201 280.828 231.022 279.064 230.218 277.123C229.414 275.182 229 273.101 229 271" stroke="#F96326" stroke-width="8"/>
<path d="M219 117C219 121.243 217.314 125.313 214.314 128.314C211.313 131.314 207.243 133 203 133C198.757 133 194.687 131.314 191.686 128.314C188.686 125.313 187 121.243 187 117" stroke="#F96326" stroke-width="8"/>
<path d="M196 163C196 167.243 194.314 171.313 191.314 174.314C188.313 177.314 184.243 179 180 179C175.757 179 171.687 177.314 168.686 174.314C165.686 171.313 164 167.243 164 163" stroke="#F96326" stroke-width="8"/>
<path d="M271 93C271 97.2435 269.314 101.313 266.314 104.314C263.313 107.314 259.243 109 255 109C250.757 109 246.687 107.314 243.686 104.314C240.686 101.313 239 97.2435 239 93" stroke="#F96326" stroke-width="8"/>
<path d="M294 163C294 167.243 292.314 171.313 289.314 174.314C286.313 177.314 282.243 179 278 179C273.757 179 269.687 177.314 266.686 174.314C263.686 171.313 262 167.243 262 163" stroke="#F96326" stroke-width="8"/>
<path d="M255 129C255 135.896 252.261 142.509 247.385 147.385C242.509 152.261 235.896 155 229 155C222.104 155 215.491 152.261 210.615 147.385C205.739 142.509 203 135.896 203 129" stroke="#F96326" stroke-width="8"/>
<path d="M278 178C278 190.996 272.838 203.459 263.648 212.648C254.459 221.838 241.996 227 229 227C216.004 227 203.541 221.838 194.352 212.648C185.162 203.459 180 190.996 180 178" stroke="#F96326" stroke-width="8"/>
<circle cx="209" cy="287" r="4" fill="#F96326"/>
<circle cx="187" cy="117" r="4" fill="#F96326"/>
<circle cx="164" cy="163" r="4" fill="#F96326"/>
<circle cx="219" cy="117" r="4" fill="#F96326"/>
<circle cx="196" cy="163" r="4" fill="#F96326"/>
<circle cx="239" cy="93" r="4" fill="#F96326"/>
<circle cx="262" cy="163" r="4" fill="#F96326"/>
<circle cx="271" cy="93" r="4" fill="#F96326"/>
<circle cx="294" cy="163" r="4" fill="#F96326"/>
<circle cx="249" cy="287" r="4" fill="#F96326"/>
<path d="M176.272 32.2721C178.789 29.7547 181.997 28.0404 185.488 27.3459C188.98 26.6513 192.599 27.0078 195.888 28.3702C199.177 29.7325 201.989 32.0397 203.966 34.9997C205.944 37.9598 207 41.4399 207 45" stroke="white" stroke-width="4" stroke-linecap="round"/>
<path d="M237.728 32.2721C235.211 29.7547 232.003 28.0404 228.512 27.3459C225.02 26.6513 221.401 27.0078 218.112 28.3702C214.823 29.7325 212.011 32.0397 210.034 34.9997C208.056 37.9598 207 41.4399 207 45" stroke="white" stroke-width="4" stroke-linecap="round"/>
<path d="M111.272 7.27208C113.789 4.75473 116.997 3.0404 120.488 2.34586C123.98 1.65133 127.599 2.00779 130.888 3.37017C134.177 4.73255 136.989 7.03965 138.966 9.99974C140.944 12.9598 142 16.4399 142 20" stroke="white" stroke-width="4" stroke-linecap="round"/>
<path d="M172.728 7.27208C170.211 4.75473 167.003 3.0404 163.512 2.34586C160.02 1.65133 156.401 2.00779 153.112 3.37017C149.823 4.73255 147.011 7.03965 145.034 9.99974C143.056 12.9598 142 16.4399 142 20" stroke="white" stroke-width="4" stroke-linecap="round"/>
<defs>
<filter id="filter0_d_804_55" x="131" y="60" width="196" height="196" filterUnits="userSpaceOnUse" color-interpolation-filters="sRGB">
<feFlood flood-opacity="0" result="BackgroundImageFix"/>
<feColorMatrix in="SourceAlpha" type="matrix" values="0 0 0 0 0 0 0 0 0 0 0 0 0 0 0 0 0 0 127 0" result="hardAlpha"/>
<feOffset dy="4"/>
<feGaussianBlur stdDeviation="2"/>
<feComposite in2="hardAlpha" operator="out"/>
<feColorMatrix type="matrix" values="0 0 0 0 0 0 0 0 0 0 0 0 0 0 0 0 0 0 0.25 0"/>
<feBlend mode="normal" in2="BackgroundImageFix" result="effect1_dropShadow_804_55"/>
<feBlend mode="normal" in="SourceGraphic" in2="effect1_dropShadow_804_55" result="shape"/>
</filter>
</defs>
</svg>
