<svg width="395" height="271" viewBox="0 0 395 271" fill="none" xmlns="http://www.w3.org/2000/svg">
<ellipse cx="296.5" cy="219.5" rx="50.5" ry="51.5" fill="white"/>
<ellipse cx="107" cy="215.5" rx="50" ry="51.5" fill="white"/>
<circle cx="112.5" cy="143.5" r="66.5" fill="#DFF7FF"/>
<line x1="93" y1="226" x2="133" y2="226" stroke="#B1E2FD" stroke-width="8"/>
<line x1="113" y1="134" x2="113" y2="210" stroke="#B1E2FD" stroke-width="8"/>
<path d="M129 226C126.899 226 124.818 225.586 122.877 224.782C120.936 223.978 119.172 222.799 117.686 221.314C116.201 219.828 115.022 218.064 114.218 216.123C113.414 214.182 113 212.101 113 210" stroke="#B1E2FD" stroke-width="8"/>
<path d="M160 141C160 143.917 158.841 146.715 156.778 148.778C154.715 150.841 151.917 152 149 152C146.083 152 143.285 150.841 141.222 148.778C139.159 146.715 138 143.917 138 141" stroke="#B1E2FD" stroke-width="8"/>
<path d="M103 102C103 104.917 101.841 107.715 99.7782 109.778C97.7153 111.841 94.9174 113 92 113C89.0826 113 86.2847 111.841 84.2218 109.778C82.1589 107.715 81 104.917 81 102" stroke="#B1E2FD" stroke-width="8"/>
<path d="M134 113C134 118.57 131.788 123.911 127.849 127.849C123.911 131.788 118.57 134 113 134C107.43 134 102.089 131.788 98.1508 127.849C94.2125 123.911 92 118.57 92 113" stroke="#B1E2FD" stroke-width="8"/>
<path d="M149 152C149 161.548 145.207 170.705 138.456 177.456C131.705 184.207 122.548 188 113 188C103.452 188 94.2955 184.207 87.5442 177.456C80.7928 170.705 77 161.548 77 152" stroke="#B1E2FD" stroke-width="8"/>
<circle cx="93" cy="226" r="4" fill="#B1E2FD"/>
<circle cx="134" cy="113" r="4" fill="#B1E2FD"/>
<circle cx="138" cy="141" r="4" fill="#B1E2FD"/>
<circle cx="81" cy="102" r="4" fill="#B1E2FD"/>
<circle cx="92" cy="113" r="4" fill="#B1E2FD"/>
<circle cx="77" cy="152" r="4" fill="#B1E2FD"/>
<circle cx="160" cy="141" r="4" fill="#B1E2FD"/>
<circle cx="103" cy="102" r="4" fill="#B1E2FD"/>
<circle cx="133" cy="226" r="4" fill="#B1E2FD"/>
<circle r="74.5" transform="matrix(-1 0 0 1 203.5 125.5)" fill="#B1E2FD"/>
<line y1="-4" x2="40" y2="-4" transform="matrix(-1 8.74228e-08 8.74228e-08 1 223 230)" stroke="#96C0DF" stroke-width="8"/>
<line y1="-4" x2="80" y2="-4" transform="matrix(-4.37114e-08 1 1 4.37114e-08 207 130)" stroke="#96C0DF" stroke-width="8"/>
<line y1="-4" x2="16" y2="-4" transform="matrix(-4.37114e-08 1 1 4.37114e-08 186 93)" stroke="#96C0DF" stroke-width="8"/>
<path d="M187 226C189.101 226 191.182 225.586 193.123 224.782C195.064 223.978 196.828 222.799 198.314 221.314C199.799 219.828 200.978 218.064 201.782 216.123C202.586 214.182 203 212.101 203 210" stroke="#96C0DF" stroke-width="8"/>
<path d="M171 80C171 82.9174 172.159 85.7153 174.222 87.7782C176.285 89.8411 179.083 91 182 91C184.917 91 187.715 89.8411 189.778 87.7782C191.841 85.7153 193 82.9174 193 80" stroke="#96C0DF" stroke-width="8"/>
<path d="M156 139C156 141.917 157.159 144.715 159.222 146.778C161.285 148.841 164.083 150 167 150C169.917 150 172.715 148.841 174.778 146.778C176.841 144.715 178 141.917 178 139" stroke="#96C0DF" stroke-width="8"/>
<path d="M182 109C182 114.57 184.212 119.911 188.151 123.849C192.089 127.788 197.43 130 203 130C208.57 130 213.911 127.788 217.849 123.849C221.788 119.911 224 114.57 224 109" stroke="#96C0DF" stroke-width="8"/>
<path d="M167 150C167 159.548 170.793 168.705 177.544 175.456C184.295 182.207 193.452 186 203 186C212.548 186 221.705 182.207 228.456 175.456C235.207 168.705 239 159.548 239 150" stroke="#96C0DF" stroke-width="8"/>
<circle r="4" transform="matrix(-1 0 0 1 193 80)" fill="#96C0DF"/>
<circle r="4" transform="matrix(-1 0 0 1 178 139)" fill="#96C0DF"/>
<circle r="4" transform="matrix(-1 0 0 1 183 226)" fill="#96C0DF"/>
<circle r="4" transform="matrix(-1 0 0 1 223 226)" fill="#96C0DF"/>
<circle r="4" transform="matrix(-1 0 0 1 156 139)" fill="#96C0DF"/>
<circle r="4" transform="matrix(-1 0 0 1 171 80)" fill="#96C0DF"/>
<g filter="url(#filter0_d_809_58)">
<circle cx="297" cy="105" r="94" fill="#FFA47F"/>
</g>
<line x1="277" y1="238" x2="317" y2="238" stroke="#F96326" stroke-width="8"/>
<line x1="297" y1="102" x2="297" y2="222" stroke="#F96326" stroke-width="8"/>
<line x1="323" y1="57" x2="323" y2="80" stroke="#F96326" stroke-width="8"/>
<path d="M313 238C310.899 238 308.818 237.586 306.877 236.782C304.936 235.978 303.172 234.799 301.686 233.314C300.201 231.828 299.022 230.064 298.218 228.123C297.414 226.182 297 224.101 297 222" stroke="#F96326" stroke-width="8"/>
<path d="M287 68C287 72.2435 285.314 76.3131 282.314 79.3137C279.313 82.3143 275.243 84 271 84C266.757 84 262.687 82.3143 259.686 79.3137C256.686 76.3131 255 72.2435 255 68" stroke="#F96326" stroke-width="8"/>
<path d="M264 114C264 118.243 262.314 122.313 259.314 125.314C256.313 128.314 252.243 130 248 130C243.757 130 239.687 128.314 236.686 125.314C233.686 122.313 232 118.243 232 114" stroke="#F96326" stroke-width="8"/>
<path d="M339 44C339 48.2435 337.314 52.3131 334.314 55.3137C331.313 58.3143 327.243 60 323 60C318.757 60 314.687 58.3143 311.686 55.3137C308.686 52.3131 307 48.2435 307 44" stroke="#F96326" stroke-width="8"/>
<path d="M362 114C362 118.243 360.314 122.313 357.314 125.314C354.313 128.314 350.243 130 346 130C341.757 130 337.687 128.314 334.686 125.314C331.686 122.313 330 118.243 330 114" stroke="#F96326" stroke-width="8"/>
<path d="M323 80C323 86.8956 320.261 93.5088 315.385 98.3848C310.509 103.261 303.896 106 297 106C290.104 106 283.491 103.261 278.615 98.3848C273.739 93.5088 271 86.8956 271 80" stroke="#F96326" stroke-width="8"/>
<path d="M346 129C346 141.996 340.838 154.459 331.648 163.648C322.459 172.838 309.996 178 297 178C284.004 178 271.541 172.838 262.352 163.648C253.162 154.459 248 141.996 248 129" stroke="#F96326" stroke-width="8"/>
<circle cx="277" cy="238" r="4" fill="#F96326"/>
<circle cx="255" cy="68" r="4" fill="#F96326"/>
<circle cx="232" cy="114" r="4" fill="#F96326"/>
<circle cx="287" cy="68" r="4" fill="#F96326"/>
<circle cx="264" cy="114" r="4" fill="#F96326"/>
<circle cx="307" cy="44" r="4" fill="#F96326"/>
<circle cx="330" cy="114" r="4" fill="#F96326"/>
<circle cx="339" cy="44" r="4" fill="#F96326"/>
<circle cx="362" cy="114" r="4" fill="#F96326"/>
<circle cx="317" cy="238" r="4" fill="#F96326"/>
<circle cx="43" cy="170" r="43" fill="#FFA47F"/>
<line x1="23" y1="238" x2="63" y2="238" stroke="#F96326" stroke-width="8"/>
<line x1="43" y1="190" x2="43" y2="222" stroke="#F96326" stroke-width="8"/>
<path d="M59 238C56.8989 238 54.8183 237.586 52.8771 236.782C50.9359 235.978 49.172 234.799 47.6863 233.314C46.2006 231.828 45.022 230.064 44.2179 228.123C43.4139 226.182 43 224.101 43 222" stroke="#F96326" stroke-width="8"/>
<path d="M63 170C63 175.304 60.8929 180.391 57.1421 184.142C53.3914 187.893 48.3043 190 43 190C37.6957 190 32.6086 187.893 28.8579 184.142C25.1071 180.391 23 175.304 23 170" stroke="#F96326" stroke-width="8"/>
<circle cx="23" cy="238" r="4" fill="#F96326"/>
<circle cx="63" cy="238" r="4" fill="#F96326"/>
<circle cx="63" cy="170" r="4" fill="#F96326"/>
<circle cx="23" cy="170" r="4" fill="#F96326"/>
<path d="M107.272 7.27208C109.789 4.75473 112.997 3.0404 116.488 2.34586C119.98 1.65133 123.599 2.00779 126.888 3.37017C130.177 4.73255 132.989 7.03965 134.966 9.99974C136.944 12.9598 138 16.4399 138 20" stroke="white" stroke-width="4" stroke-linecap="round"/>
<path d="M168.728 7.27208C166.211 4.75473 163.003 3.0404 159.512 2.34586C156.02 1.65133 152.401 2.00779 149.112 3.37017C145.823 4.73255 143.011 7.03965 141.034 9.99974C139.056 12.9598 138 16.4399 138 20" stroke="white" stroke-width="4" stroke-linecap="round"/>
<defs>
<filter id="filter0_d_809_58" x="199" y="11" width="196" height="196" filterUnits="userSpaceOnUse" color-interpolation-filters="sRGB">
<feFlood flood-opacity="0" result="BackgroundImageFix"/>
<feColorMatrix in="SourceAlpha" type="matrix" values="0 0 0 0 0 0 0 0 0 0 0 0 0 0 0 0 0 0 127 0" result="hardAlpha"/>
<feOffset dy="4"/>
<feGaussianBlur stdDeviation="2"/>
<feComposite in2="hardAlpha" operator="out"/>
<feColorMatrix type="matrix" values="0 0 0 0 0 0 0 0 0 0 0 0 0 0 0 0 0 0 0.25 0"/>
<feBlend mode="normal" in2="BackgroundImageFix" result="effect1_dropShadow_809_58"/>
<feBlend mode="normal" in="SourceGraphic" in2="effect1_dropShadow_809_58" result="shape"/>
</filter>
</defs>
</svg>
