<svg width="18" height="18" viewBox="0 0 18 18" fill="none" xmlns="http://www.w3.org/2000/svg">
<path d="M9 0.25C4.1875 0.25 0.25 4.1875 0.25 9C0.25 13.8125 4.1875 17.75 9 17.75C13.8125 17.75 17.75 13.8125 17.75 9C17.75 4.1875 13.8125 0.25 9 0.25ZM6.875 12.75H11.125C10.6562 14.0312 9.9375 15.2187 9 16.2188C8.0625 15.2187 7.34375 14.0312 6.875 12.75ZM6.5 11.5C6.3125 10.6875 6.1875 9.84375 6.1875 9C6.1875 8.15625 6.28125 7.3125 6.5 6.5H11.5C11.6875 7.3125 11.8125 8.15625 11.8125 9C11.8125 9.84375 11.7188 10.6875 11.5 11.5H6.5ZM11.125 5.25H6.875C7.34375 3.96875 8.0625 2.78125 9 1.78125C9.9375 2.78125 10.6562 3.96875 11.125 5.25ZM12.7812 6.5H16.0625C16.3438 7.28125 16.5 8.125 16.5 9C16.5 9.875 16.3438 10.7188 16.0625 11.5H12.7812C12.9688 10.6875 13.0625 9.84375 13.0625 9C13.0625 8.15625 12.9688 7.3125 12.7812 6.5ZM15.5 5.25H12.4375C12 3.96875 11.375 2.75 10.5312 1.65625C12.6563 2.09375 14.4375 3.4375 15.5 5.25ZM7.46875 1.65625C6.625 2.75 5.96875 3.96875 5.5625 5.25H2.5C3.5625 3.4375 5.34375 2.09375 7.46875 1.65625ZM1.9375 6.5H5.21875C5.03125 7.3125 4.9375 8.15625 4.9375 9C4.9375 9.84375 5.03125 10.6875 5.21875 11.5H1.9375C1.65625 10.7188 1.5 9.875 1.5 9C1.5 8.125 1.65625 7.28125 1.9375 6.5ZM2.5 12.75H5.5625C6 14.0312 6.625 15.25 7.46875 16.3438C5.34375 15.9062 3.5625 14.5625 2.5 12.75ZM10.5312 16.3438C11.375 15.25 12.0312 14.0312 12.4375 12.75H15.4688C14.4375 14.5625 12.6563 15.9062 10.5312 16.3438Z" fill="#333333"/>
</svg>
