<svg width="1920" height="676" viewBox="0 0 1920 676" fill="none" xmlns="http://www.w3.org/2000/svg">
<mask id="mask0_819_50" style="mask-type:alpha" maskUnits="userSpaceOnUse" x="265" y="0" width="224" height="224">
<circle cx="377" cy="112" r="112" fill="#C4C4C4"/>
</mask>
<g mask="url(#mask0_819_50)">
<line x1="403.257" y1="-58.5546" x2="207.979" y2="136.723" stroke="#96C0DF" stroke-width="4"/>
<line x1="427.124" y1="-34.6873" x2="231.847" y2="160.59" stroke="#96C0DF" stroke-width="4"/>
<line x1="450.992" y1="-10.8201" x2="255.714" y2="184.458" stroke="#96C0DF" stroke-width="4"/>
<line x1="474.859" y1="13.0473" x2="279.581" y2="208.325" stroke="#96C0DF" stroke-width="4"/>
<line x1="498.726" y1="36.9145" x2="303.448" y2="232.192" stroke="#96C0DF" stroke-width="4"/>
<line x1="522.594" y1="60.7818" x2="327.316" y2="256.059" stroke="#96C0DF" stroke-width="4"/>
<line x1="546.461" y1="84.649" x2="351.183" y2="279.927" stroke="#96C0DF" stroke-width="4"/>
<line x1="570.328" y1="108.516" x2="375.051" y2="303.794" stroke="#96C0DF" stroke-width="4"/>
</g>
<mask id="mask1_819_50" style="mask-type:alpha" maskUnits="userSpaceOnUse" x="1503" y="50" width="224" height="224">
<circle cx="1615" cy="162" r="112" fill="#C4C4C4"/>
</mask>
<g mask="url(#mask1_819_50)">
<line x1="1641.26" y1="-8.55457" x2="1445.98" y2="186.723" stroke="#96C0DF" stroke-width="4"/>
<line x1="1665.12" y1="15.3127" x2="1469.85" y2="210.59" stroke="#96C0DF" stroke-width="4"/>
<line x1="1688.99" y1="39.1799" x2="1493.71" y2="234.458" stroke="#96C0DF" stroke-width="4"/>
<line x1="1712.86" y1="63.0473" x2="1517.58" y2="258.325" stroke="#96C0DF" stroke-width="4"/>
<line x1="1736.73" y1="86.9145" x2="1541.45" y2="282.192" stroke="#96C0DF" stroke-width="4"/>
<line x1="1760.59" y1="110.782" x2="1565.32" y2="306.059" stroke="#96C0DF" stroke-width="4"/>
<line x1="1784.46" y1="134.649" x2="1589.18" y2="329.927" stroke="#96C0DF" stroke-width="4"/>
<line x1="1808.33" y1="158.516" x2="1613.05" y2="353.794" stroke="#96C0DF" stroke-width="4"/>
</g>
<g filter="url(#filter0_d_819_50)">
<circle r="108" transform="matrix(-1 0 0 1 1825 424)" fill="#C4C4C4"/>
<path d="M2045 410C2045 338.203 1986.8 280 1915 280H1735C1663.2 280 1605 338.203 1605 410C1605 481.797 1663.2 540 1735 540H1915C1986.8 540 2045 481.797 2045 410Z" fill="#96C0DF"/>
<circle r="170" transform="matrix(-1 0 0 1 1825 242)" fill="#96C0DF"/>
<circle r="108" transform="matrix(-1 0 0 1 1825 456)" fill="#7AB0D7"/>
<line y1="-4" x2="460" y2="-4" transform="matrix(4.37114e-08 -1 -1 -4.37114e-08 1821 600)" stroke="#376EA7" stroke-width="8"/>
<line y1="-4" x2="28" y2="-4" transform="matrix(4.37114e-08 -1 -1 -4.37114e-08 1873 228)" stroke="#376EA7" stroke-width="8"/>
<line y1="-4" x2="14" y2="-4" transform="matrix(4.37114e-08 -1 -1 -4.37114e-08 1909 254)" stroke="#376EA7" stroke-width="8"/>
<path d="M1789 636C1793.73 636 1798.41 635.069 1802.78 633.26C1807.14 631.45 1811.11 628.799 1814.46 625.456C1817.8 622.113 1820.45 618.144 1822.26 613.777C1824.07 609.409 1825 604.728 1825 600" stroke="#376EA7" stroke-width="8"/>
<path d="M1903 312C1912.55 312 1921.7 308.207 1928.46 301.456C1935.21 294.705 1939 285.548 1939 276" stroke="#376EA7" stroke-width="8"/>
<path d="M1907 330C1907 336.896 1909.74 343.509 1914.62 348.385C1919.49 353.261 1926.1 356 1933 356C1939.9 356 1946.51 353.261 1951.38 348.385C1956.26 343.509 1959 336.896 1959 330" stroke="#376EA7" stroke-width="8"/>
<path d="M1825 280C1825 276.586 1825.67 273.205 1826.98 270.05C1828.29 266.896 1830.2 264.03 1832.62 261.615C1835.03 259.201 1837.9 257.286 1841.05 255.979C1844.2 254.673 1847.59 254 1851 254" stroke="#376EA7" stroke-width="8"/>
<path d="M1851 254C1857.9 254 1864.51 251.261 1869.38 246.385C1874.26 241.509 1877 234.896 1877 228" stroke="#376EA7" stroke-width="8"/>
<path d="M1913 254C1913 260.896 1915.74 267.509 1920.62 272.385C1925.49 277.261 1932.1 280 1939 280C1945.9 280 1952.51 277.261 1957.38 272.385C1962.26 267.509 1965 260.896 1965 254" stroke="#376EA7" stroke-width="8"/>
<path d="M1851 178C1851 184.896 1853.74 191.509 1858.62 196.385C1863.49 201.261 1870.1 204 1877 204C1883.9 204 1890.51 201.261 1895.38 196.385C1900.26 191.509 1903 184.896 1903 178" stroke="#376EA7" stroke-width="8"/>
<path d="M1861 386C1867.9 386 1874.51 383.261 1879.38 378.385C1884.26 373.509 1887 366.896 1887 360" stroke="#376EA7" stroke-width="8"/>
<path d="M1897 228C1897 232.243 1898.69 236.313 1901.69 239.314C1904.69 242.314 1908.76 244 1913 244C1917.24 244 1921.31 242.314 1924.31 239.314C1927.31 236.313 1929 232.243 1929 228" stroke="#376EA7" stroke-width="8"/>
<path d="M1809 126C1809 130.243 1810.69 134.313 1813.69 137.314C1816.69 140.314 1820.76 142 1825 142C1829.24 142 1833.31 140.314 1836.31 137.314C1839.31 134.313 1841 130.243 1841 126" stroke="#376EA7" stroke-width="8"/>
<path d="M1885 524C1887.1 524 1889.18 523.586 1891.12 522.782C1893.06 521.978 1894.83 520.799 1896.31 519.314C1897.8 517.828 1898.98 516.064 1899.78 514.123C1900.59 512.182 1901 510.101 1901 508" stroke="#376EA7" stroke-width="8"/>
<path d="M1861 476C1856.27 476 1851.59 476.931 1847.22 478.74C1842.86 480.55 1838.89 483.201 1835.54 486.544C1832.2 489.887 1829.55 493.856 1827.74 498.223C1825.93 502.591 1825 507.272 1825 512" stroke="#376EA7" stroke-width="8"/>
<path d="M1861 312C1856.27 312 1851.59 312.931 1847.22 314.74C1842.86 316.55 1838.89 319.201 1835.54 322.544C1832.2 325.887 1829.55 329.856 1827.74 334.223C1825.93 338.591 1825 343.272 1825 348" stroke="#376EA7" stroke-width="8"/>
<path d="M1861 386C1856.27 386 1851.59 386.931 1847.22 388.74C1842.86 390.55 1838.89 393.201 1835.54 396.544C1832.2 399.887 1829.55 403.856 1827.74 408.223C1825.93 412.591 1825 417.272 1825 422" stroke="#376EA7" stroke-width="8"/>
<path d="M1861 524C1856.27 524 1851.59 524.931 1847.22 526.74C1842.86 528.55 1838.89 531.201 1835.54 534.544C1832.2 537.887 1829.55 541.856 1827.74 546.223C1825.93 550.591 1825 555.272 1825 560" stroke="#376EA7" stroke-width="8"/>
<circle r="4" transform="matrix(-1 0 0 1 1789 636)" fill="#376EA7"/>
<circle r="4" transform="matrix(-1 0 0 1 1861 636)" fill="#376EA7"/>
<path d="M1861 636H1789" stroke="#376EA7" stroke-width="8"/>
<line y1="-4" x2="72" y2="-4" transform="matrix(-1 0 0 1 1933 480)" stroke="#376EA7" stroke-width="8"/>
<line y1="-4" x2="24" y2="-4" transform="matrix(-1 -8.74228e-08 -8.74228e-08 1 1885 528)" stroke="#376EA7" stroke-width="8"/>
<line y1="-4" x2="42" y2="-4" transform="matrix(-1 8.74228e-08 8.74228e-08 1 1903 316)" stroke="#376EA7" stroke-width="8"/>
<line x1="1717" y1="436" x2="1717" y2="380" stroke="#376EA7" stroke-width="8"/>
<line y1="-4" x2="32" y2="-4" transform="matrix(-4.37114e-08 -1 -1 4.37114e-08 1769 212)" stroke="#376EA7" stroke-width="8"/>
<line x1="1737" y1="278" x2="1737" y2="264" stroke="#376EA7" stroke-width="8"/>
<line x1="1645" y1="436" x2="1645" y2="420" stroke="#376EA7" stroke-width="8"/>
<path d="M1717 504C1712.27 504 1707.59 503.069 1703.22 501.26C1698.86 499.45 1694.89 496.799 1691.54 493.456C1688.2 490.113 1685.55 486.144 1683.74 481.777C1681.93 477.409 1681 472.728 1681 468" stroke="#376EA7" stroke-width="8"/>
<path d="M1717 436C1717 445.548 1713.21 454.705 1706.46 461.456C1699.7 468.207 1690.55 472 1681 472C1671.45 472 1662.3 468.207 1655.54 461.456C1648.79 454.705 1645 445.548 1645 436" stroke="#376EA7" stroke-width="8"/>
<path d="M1747 336C1737.45 336 1728.3 332.207 1721.54 325.456C1714.79 318.705 1711 309.548 1711 300" stroke="#376EA7" stroke-width="8"/>
<path d="M1743 358C1743 364.896 1740.26 371.509 1735.38 376.385C1730.51 381.261 1723.9 384 1717 384C1710.1 384 1703.49 381.261 1698.62 376.385C1693.74 371.509 1691 364.896 1691 358" stroke="#376EA7" stroke-width="8"/>
<path d="M1825 264C1825 260.586 1824.33 257.205 1823.02 254.05C1821.71 250.896 1819.8 248.03 1817.38 245.615C1814.97 243.201 1812.1 241.286 1808.95 239.979C1805.8 238.673 1802.41 238 1799 238" stroke="#376EA7" stroke-width="8"/>
<path d="M1799 238C1792.1 238 1785.49 235.261 1780.62 230.385C1775.74 225.509 1773 218.896 1773 212" stroke="#376EA7" stroke-width="8"/>
<path d="M1737 278C1737 284.896 1734.26 291.509 1729.38 296.385C1724.51 301.261 1717.9 304 1711 304C1704.1 304 1697.49 301.261 1692.62 296.385C1687.74 291.509 1685 284.896 1685 278" stroke="#376EA7" stroke-width="8"/>
<path d="M1799 158C1799 164.896 1796.26 171.509 1791.38 176.385C1786.51 181.261 1779.9 184 1773 184C1766.1 184 1759.49 181.261 1754.62 176.385C1749.74 171.509 1747 164.896 1747 158" stroke="#376EA7" stroke-width="8"/>
<path d="M1789 438C1782.1 438 1775.49 435.261 1770.62 430.385C1765.74 425.509 1763 418.896 1763 412" stroke="#376EA7" stroke-width="8"/>
<path d="M1661 408C1661 412.243 1659.31 416.313 1656.31 419.314C1653.31 422.314 1649.24 424 1645 424C1640.76 424 1636.69 422.314 1633.69 419.314C1630.69 416.313 1629 412.243 1629 408" stroke="#376EA7" stroke-width="8"/>
<path d="M1707 345C1707 349.243 1705.31 353.313 1702.31 356.314C1699.31 359.314 1695.24 361 1691 361C1686.76 361 1682.69 359.314 1679.69 356.314C1676.69 353.313 1675 349.243 1675 345" stroke="#376EA7" stroke-width="8"/>
<path d="M1753 252C1753 256.243 1751.31 260.313 1748.31 263.314C1745.31 266.314 1741.24 268 1737 268C1732.76 268 1728.69 266.314 1725.69 263.314C1722.69 260.313 1721 256.243 1721 252" stroke="#376EA7" stroke-width="8"/>
<path d="M1789 504C1793.73 504 1798.41 504.931 1802.78 506.74C1807.14 508.55 1811.11 511.201 1814.46 514.544C1817.8 517.887 1820.45 521.856 1822.26 526.223C1824.07 530.591 1825 535.272 1825 540" stroke="#376EA7" stroke-width="8"/>
<path d="M1789 336C1793.73 336 1798.41 336.931 1802.78 338.74C1807.14 340.55 1811.11 343.201 1814.46 346.544C1817.8 349.887 1820.45 353.856 1822.26 358.223C1824.07 362.591 1825 367.272 1825 372" stroke="#376EA7" stroke-width="8"/>
<path d="M1789 438C1793.73 438 1798.41 438.931 1802.78 440.74C1807.14 442.55 1811.11 445.201 1814.46 448.544C1817.8 451.887 1820.45 455.856 1822.26 460.223C1824.07 464.591 1825 469.272 1825 474" stroke="#376EA7" stroke-width="8"/>
<line x1="1717" y1="504" x2="1789" y2="504" stroke="#376EA7" stroke-width="8"/>
<line x1="1747" y1="336" x2="1789" y2="336" stroke="#376EA7" stroke-width="8"/>
<circle r="4" transform="matrix(-1 0 0 1 1897 228)" fill="#376EA7"/>
<circle r="4" transform="matrix(-1 0 0 1 1903 178)" fill="#376EA7"/>
<circle r="4" transform="matrix(-1 0 0 1 1851 178)" fill="#376EA7"/>
<circle r="4" transform="matrix(-1 0 0 1 1841 126)" fill="#376EA7"/>
<circle r="4" transform="matrix(-1 0 0 1 1809 126)" fill="#376EA7"/>
<circle r="4" transform="matrix(-1 0 0 1 1799 158)" fill="#376EA7"/>
<circle r="4" transform="matrix(-1 0 0 1 1747 158)" fill="#376EA7"/>
<circle r="4" transform="matrix(-1 0 0 1 1721 252)" fill="#376EA7"/>
<circle r="4" transform="matrix(-1 0 0 1 1685 278)" fill="#376EA7"/>
<circle r="4" transform="matrix(-1 0 0 1 1707 345)" fill="#376EA7"/>
<circle r="4" transform="matrix(-1 0 0 1 1675 345)" fill="#376EA7"/>
<circle r="4" transform="matrix(-1 0 0 1 1743 358)" fill="#376EA7"/>
<circle r="4" transform="matrix(-1 0 0 1 1661 408)" fill="#376EA7"/>
<circle r="4" transform="matrix(-1 0 0 1 1763 412)" fill="#376EA7"/>
<circle r="4" transform="matrix(-1 0 0 1 1901 508)" fill="#376EA7"/>
<circle r="4" transform="matrix(-1 0 0 1 1629 408)" fill="#376EA7"/>
<circle r="4" transform="matrix(-1 0 0 1 1753 252)" fill="#376EA7"/>
<circle r="4" transform="matrix(-1 0 0 1 1907 330)" fill="#376EA7"/>
<circle r="4" transform="matrix(-1 0 0 1 1887 360)" fill="#376EA7"/>
</g>
<g filter="url(#filter1_d_819_50)">
<rect x="-95" y="220" width="360" height="360" rx="102" fill="#96C0DF"/>
<rect x="-125" y="173" width="204" height="204" rx="102" fill="#7AB0D7"/>
<line x1="85" y1="600" x2="85" y2="320" stroke="#376EA7" stroke-width="8"/>
<line x1="25" y1="544" x2="69" y2="544" stroke="#376EA7" stroke-width="8"/>
<line y1="-4" x2="44" y2="-4" transform="matrix(-1 0 0 1 145 508)" stroke="#376EA7" stroke-width="8"/>
<line x1="49" y1="636" x2="121" y2="636" stroke="#376EA7" stroke-width="8"/>
<line x1="100" y1="392" x2="125" y2="392" stroke="#376EA7" stroke-width="8"/>
<line y1="-4" x2="44" y2="-4" transform="matrix(-1 0 0 1 145 568)" stroke="#376EA7" stroke-width="8"/>
<line x1="45" y1="432" x2="69" y2="432" stroke="#376EA7" stroke-width="8"/>
<line x1="217" y1="436" x2="217" y2="417" stroke="#376EA7" stroke-width="8"/>
<line y1="-4" x2="19" y2="-4" transform="matrix(4.37114e-08 -1 -1 -4.37114e-08 31 372)" stroke="#376EA7" stroke-width="8"/>
<line x1="59" y1="284" x2="59" y2="297" stroke="#376EA7" stroke-width="8"/>
<path d="M49 636C53.7276 636 58.4089 635.069 62.7766 633.26C67.1443 631.45 71.1129 628.799 74.4558 625.456C77.7988 622.113 80.4505 618.144 82.2597 613.777C84.0688 609.409 85 604.728 85 600" stroke="#376EA7" stroke-width="8"/>
<path d="M-11 508C-11 512.728 -10.0688 517.409 -8.25966 521.777C-6.45049 526.144 -3.79875 530.113 -0.455844 533.456C2.88707 536.799 6.85568 539.45 11.2234 541.26C15.5911 543.069 20.2724 544 25 544" stroke="#376EA7" stroke-width="8"/>
<path d="M181 468C181 472.728 180.069 477.409 178.26 481.777C176.45 486.144 173.799 490.113 170.456 493.456C167.113 496.799 163.144 499.45 158.777 501.26C154.409 503.069 149.728 504 145 504" stroke="#376EA7" stroke-width="8"/>
<path d="M161 356C161 360.728 160.069 365.409 158.26 369.777C156.45 374.144 153.799 378.113 150.456 381.456C147.113 384.799 143.144 387.45 138.777 389.26C134.409 391.069 129.728 392 125 392" stroke="#376EA7" stroke-width="8"/>
<path d="M9 396C9 400.728 9.93117 405.409 11.7403 409.777C13.5495 414.144 16.2012 418.113 19.5442 421.456C22.8871 424.799 26.8557 427.45 31.2234 429.26C35.5911 431.069 40.2724 432 45 432" stroke="#376EA7" stroke-width="8"/>
<path d="M25 476C25 480.728 24.0688 485.409 22.2597 489.777C20.4505 494.144 17.7988 498.113 14.4558 501.456C11.1129 504.799 7.14433 507.45 2.7766 509.26C-1.59112 511.069 -6.27241 512 -11 512C-15.7276 512 -20.4089 511.069 -24.7766 509.26C-29.1443 507.45 -33.1129 504.799 -36.4558 501.456C-39.7988 498.113 -42.4505 494.144 -44.2597 489.777C-46.0688 485.409 -47 480.728 -47 476" stroke="#376EA7" stroke-width="8"/>
<path d="M145 436C145 440.728 145.931 445.409 147.74 449.777C149.55 454.144 152.201 458.113 155.544 461.456C158.887 464.799 162.856 467.45 167.223 469.26C171.591 471.069 176.272 472 181 472C185.728 472 190.409 471.069 194.777 469.26C199.144 467.45 203.113 464.799 206.456 461.456C209.799 458.113 212.45 454.144 214.26 449.777C216.069 445.409 217 440.728 217 436" stroke="#376EA7" stroke-width="8"/>
<path d="M35 372C35 375.414 34.3275 378.795 33.0209 381.95C31.7142 385.104 29.7991 387.97 27.3848 390.385C24.9705 392.799 22.1042 394.714 18.9498 396.021C15.7953 397.327 12.4144 398 9 398C5.58563 398 2.2047 397.327 -0.949769 396.021C-4.10423 394.714 -6.97045 392.799 -9.38478 390.385C-11.7991 387.97 -13.7142 385.104 -15.0209 381.95C-16.3275 378.795 -17 375.414 -17 372" stroke="#376EA7" stroke-width="8"/>
<path d="M111 297C111 300.414 110.327 303.795 109.021 306.95C107.714 310.104 105.799 312.97 103.385 315.385C100.97 317.799 98.1042 319.714 94.9498 321.021C91.7953 322.327 88.4144 323 85 323C81.5856 323 78.2047 322.327 75.0502 321.021C71.8958 319.714 69.0295 317.799 66.6152 315.385C64.2009 312.97 62.2858 310.104 60.9791 306.95C59.6725 303.795 59 300.414 59 297" stroke="#376EA7" stroke-width="8"/>
<path d="M41 460C41 462.101 40.5861 464.182 39.7821 466.123C38.978 468.064 37.7994 469.828 36.3137 471.314C34.828 472.799 33.0641 473.978 31.1229 474.782C29.1817 475.586 27.1012 476 25 476C22.8989 476 20.8183 475.586 18.8771 474.782C16.9359 473.978 15.172 472.799 13.6863 471.314C12.2006 469.828 11.022 468.064 10.2179 466.123C9.41385 464.182 9 462.101 9 460" stroke="#376EA7" stroke-width="8"/>
<path d="M201 400C201 402.101 201.414 404.182 202.218 406.123C203.022 408.064 204.201 409.828 205.686 411.314C207.172 412.799 208.936 413.978 210.877 414.782C212.818 415.586 214.899 416 217 416C219.101 416 221.182 415.586 223.123 414.782C225.064 413.978 226.828 412.799 228.314 411.314C229.799 409.828 230.978 408.064 231.782 406.123C232.586 404.182 233 402.101 233 400" stroke="#376EA7" stroke-width="8"/>
<path d="M145 340C145 342.101 145.414 344.182 146.218 346.123C147.022 348.064 148.201 349.828 149.686 351.314C151.172 352.799 152.936 353.978 154.877 354.782C156.818 355.586 158.899 356 161 356C163.101 356 165.182 355.586 167.123 354.782C169.064 353.978 170.828 352.799 172.314 351.314C173.799 349.828 174.978 348.064 175.782 346.123C176.586 344.182 177 342.101 177 340" stroke="#376EA7" stroke-width="8"/>
<path d="M-1 357C-1 359.101 -1.41385 361.182 -2.21793 363.123C-3.022 365.064 -4.20055 366.828 -5.68629 368.314C-7.17203 369.799 -8.93586 370.978 -10.8771 371.782C-12.8183 372.586 -14.8988 373 -17 373C-19.1011 373 -21.1817 372.586 -23.1229 371.782C-25.0641 370.978 -26.828 369.799 -28.3137 368.314C-29.7994 366.828 -30.978 365.064 -31.7821 363.123C-32.5861 361.182 -33 359.101 -33 357" stroke="#376EA7" stroke-width="8"/>
<path d="M161 548C161 550.101 160.586 552.182 159.782 554.123C158.978 556.064 157.799 557.828 156.314 559.314C154.828 560.799 153.064 561.978 151.123 562.782C149.182 563.586 147.101 564 145 564" stroke="#376EA7" stroke-width="8"/>
<path d="M129 420C129 422.101 129.414 424.182 130.218 426.123C131.022 428.064 132.201 429.828 133.686 431.314C135.172 432.799 136.936 433.978 138.877 434.782C140.818 435.586 142.899 436 145 436C147.101 436 149.182 435.586 151.123 434.782C153.064 433.978 154.828 432.799 156.314 431.314C157.799 429.828 158.978 428.064 159.782 426.123C160.586 424.182 161 422.101 161 420" stroke="#376EA7" stroke-width="8"/>
<path d="M145 532C145 534.101 145.414 536.182 146.218 538.123C147.022 540.064 148.201 541.828 149.686 543.314C151.172 544.799 152.936 545.978 154.877 546.782C156.818 547.586 158.899 548 161 548C163.101 548 165.182 547.586 167.123 546.782C169.064 545.978 170.828 544.799 172.314 543.314C173.799 541.828 174.978 540.064 175.782 538.123C176.586 536.182 177 534.101 177 532" stroke="#376EA7" stroke-width="8"/>
<path d="M51 337C51 339.101 50.5861 341.182 49.7821 343.123C48.978 345.064 47.7994 346.828 46.3137 348.314C44.828 349.799 43.0641 350.978 41.1229 351.782C39.1817 352.586 37.1012 353 35 353C32.8989 353 30.8183 352.586 28.8771 351.782C26.9359 350.978 25.172 349.799 23.6863 348.314C22.2006 346.828 21.022 345.064 20.2179 343.123C19.4139 341.182 19 339.101 19 337" stroke="#376EA7" stroke-width="8"/>
<path d="M75 269C75 271.101 74.5861 273.182 73.7821 275.123C72.978 277.064 71.7994 278.828 70.3137 280.314C68.828 281.799 67.0641 282.978 65.1229 283.782C63.1817 284.586 61.1012 285 59 285C56.8989 285 54.8183 284.586 52.8771 283.782C50.9359 282.978 49.172 281.799 47.6863 280.314C46.2006 278.828 45.022 277.064 44.2179 275.123C43.4139 273.182 43 271.101 43 269" stroke="#376EA7" stroke-width="8"/>
<path d="M85 560C85 557.899 84.5861 555.818 83.7821 553.877C82.978 551.936 81.7994 550.172 80.3137 548.686C78.828 547.201 77.0641 546.022 75.1229 545.218C73.1817 544.414 71.1011 544 69 544" stroke="#376EA7" stroke-width="8"/>
<path d="M85 520C85 517.899 85.4139 515.818 86.2179 513.877C87.022 511.936 88.2006 510.172 89.6863 508.686C91.172 507.201 92.9359 506.022 94.8771 505.218C96.8183 504.414 98.8989 504 101 504" stroke="#376EA7" stroke-width="8"/>
<path d="M85 448C85 445.899 84.5861 443.818 83.7821 441.877C82.978 439.936 81.7994 438.172 80.3137 436.686C78.828 435.201 77.0641 434.022 75.1229 433.218C73.1817 432.414 71.1011 432 69 432" stroke="#376EA7" stroke-width="8"/>
<path d="M85 408C85 405.899 85.4139 403.818 86.2179 401.877C87.022 399.936 88.2006 398.172 89.6863 396.686C91.172 395.201 92.9359 394.022 94.8771 393.218C96.8183 392.414 98.8989 392 101 392" stroke="#376EA7" stroke-width="8"/>
<path d="M85 580C85 577.899 85.4139 575.818 86.2179 573.877C87.022 571.936 88.2006 570.172 89.6863 568.686C91.172 567.201 92.9359 566.022 94.8771 565.218C96.8183 564.414 98.8989 564 101 564" stroke="#376EA7" stroke-width="8"/>
<circle cx="49" cy="636" r="4" fill="#376EA7"/>
<circle cx="121" cy="636" r="4" fill="#376EA7"/>
<circle cx="145" cy="532" r="4" fill="#376EA7"/>
<circle cx="25" cy="476" r="4" fill="#376EA7"/>
<circle cx="41" cy="460" r="4" fill="#376EA7"/>
<circle cx="-1" cy="357" r="4" fill="#376EA7"/>
<circle cx="19" cy="337" r="4" fill="#376EA7"/>
<circle cx="43" cy="269" r="4" fill="#376EA7"/>
<circle cx="75" cy="269" r="4" fill="#376EA7"/>
<circle cx="111" cy="297" r="4" fill="#376EA7"/>
<circle cx="145" cy="340" r="4" fill="#376EA7"/>
<circle cx="177" cy="340" r="4" fill="#376EA7"/>
<circle cx="161" cy="420" r="4" fill="#376EA7"/>
<circle cx="129" cy="420" r="4" fill="#376EA7"/>
<circle cx="201" cy="400" r="4" fill="#376EA7"/>
<circle cx="233" cy="400" r="4" fill="#376EA7"/>
<circle cx="51" cy="337" r="4" fill="#376EA7"/>
<circle cx="9" cy="460" r="4" fill="#376EA7"/>
<circle cx="177" cy="532" r="4" fill="#376EA7"/>
</g>
<g filter="url(#filter2_d_819_50)">
<circle cx="265" cy="444" r="108" fill="#C4C4C4"/>
<path d="M45 430C45 358.203 103.203 300 175 300H355C426.797 300 485 358.203 485 430C485 501.797 426.797 560 355 560H175C103.203 560 45 501.797 45 430Z" fill="#B1E2FD"/>
<circle cx="265" cy="262" r="170" fill="#B1E2FD"/>
<circle cx="201" cy="140" r="88" fill="#C4EAFF"/>
<circle cx="265" cy="476" r="108" fill="#B1E2FD"/>
<line x1="265" y1="620" x2="265" y2="160" stroke="#3E97D5" stroke-width="8"/>
<line x1="157" y1="428" x2="157" y2="372" stroke="#3E97D5" stroke-width="8"/>
<line x1="213" y1="248" x2="213" y2="220" stroke="#3E97D5" stroke-width="8"/>
<line x1="177" y1="274" x2="177" y2="260" stroke="#3E97D5" stroke-width="8"/>
<line x1="85" y1="430" x2="85" y2="414" stroke="#3E97D5" stroke-width="8"/>
<path d="M301 656C296.272 656 291.591 655.069 287.223 653.26C282.856 651.45 278.887 648.799 275.544 645.456C272.201 642.113 269.55 638.144 267.74 633.777C265.931 629.409 265 624.728 265 620" stroke="#3E97D5" stroke-width="8"/>
<path d="M157 496C152.272 496 147.591 495.069 143.223 493.26C138.856 491.45 134.887 488.799 131.544 485.456C128.201 482.113 125.55 478.144 123.74 473.777C121.931 469.409 121 464.728 121 460" stroke="#3E97D5" stroke-width="8"/>
<path d="M157 428C157 437.548 153.207 446.705 146.456 453.456C139.705 460.207 130.548 464 121 464C111.452 464 102.295 460.207 95.5442 453.456C88.7928 446.705 85 437.548 85 428" stroke="#3E97D5" stroke-width="8"/>
<path d="M187 332C177.452 332 168.295 328.207 161.544 321.456C154.793 314.705 151 305.548 151 296" stroke="#3E97D5" stroke-width="8"/>
<path d="M183 350C183 356.896 180.261 363.509 175.385 368.385C170.509 373.261 163.896 376 157 376C150.104 376 143.491 373.261 138.615 368.385C133.739 363.509 131 356.896 131 350" stroke="#3E97D5" stroke-width="8"/>
<path d="M265 300C265 296.586 264.327 293.205 263.021 290.05C261.714 286.896 259.799 284.03 257.385 281.615C254.97 279.201 252.104 277.286 248.95 275.979C245.795 274.673 242.414 274 239 274" stroke="#3E97D5" stroke-width="8"/>
<path d="M239 274C232.104 274 225.491 271.261 220.615 266.385C215.739 261.509 213 254.896 213 248" stroke="#3E97D5" stroke-width="8"/>
<path d="M177 274C177 280.896 174.261 287.509 169.385 292.385C164.509 297.261 157.896 300 151 300C144.104 300 137.491 297.261 132.615 292.385C127.739 287.509 125 280.896 125 274" stroke="#3E97D5" stroke-width="8"/>
<path d="M239 198C239 204.896 236.261 211.509 231.385 216.385C226.509 221.261 219.896 224 213 224C206.104 224 199.491 221.261 194.615 216.385C189.739 211.509 187 204.896 187 198" stroke="#3E97D5" stroke-width="8"/>
<path d="M229 406C222.104 406 215.491 403.261 210.615 398.385C205.739 393.509 203 386.896 203 380" stroke="#3E97D5" stroke-width="8"/>
<path d="M101 400C101 404.243 99.3143 408.313 96.3137 411.314C93.3131 414.314 89.2435 416 85 416C80.7565 416 76.6869 414.314 73.6863 411.314C70.6857 408.313 69 404.243 69 400" stroke="#3E97D5" stroke-width="8"/>
<path d="M147 337C147 341.243 145.314 345.313 142.314 348.314C139.313 351.314 135.243 353 131 353C126.757 353 122.687 351.314 119.686 348.314C116.686 345.313 115 341.243 115 337" stroke="#3E97D5" stroke-width="8"/>
<path d="M193 248C193 252.243 191.314 256.313 188.314 259.314C185.313 262.314 181.243 264 177 264C172.757 264 168.687 262.314 165.686 259.314C162.686 256.313 161 252.243 161 248" stroke="#3E97D5" stroke-width="8"/>
<path d="M281 146C281 150.243 279.314 154.313 276.314 157.314C273.313 160.314 269.243 162 265 162C260.757 162 256.687 160.314 253.686 157.314C250.686 154.313 249 150.243 249 146" stroke="#3E97D5" stroke-width="8"/>
<path d="M205 544C202.899 544 200.818 543.586 198.877 542.782C196.936 541.978 195.172 540.799 193.686 539.314C192.201 537.828 191.022 536.064 190.218 534.123C189.414 532.182 189 530.101 189 528" stroke="#3E97D5" stroke-width="8"/>
<path d="M229 496C233.728 496 238.409 496.931 242.777 498.74C247.144 500.55 251.113 503.201 254.456 506.544C257.799 509.887 260.45 513.856 262.26 518.223C264.069 522.591 265 527.272 265 532" stroke="#3E97D5" stroke-width="8"/>
<path d="M229 332C233.728 332 238.409 332.931 242.777 334.74C247.144 336.55 251.113 339.201 254.456 342.544C257.799 345.887 260.45 349.856 262.26 354.223C264.069 358.591 265 363.272 265 368" stroke="#3E97D5" stroke-width="8"/>
<path d="M229 406C233.728 406 238.409 406.931 242.777 408.74C247.144 410.55 251.113 413.201 254.456 416.544C257.799 419.887 260.45 423.856 262.26 428.223C264.069 432.591 265 437.272 265 442" stroke="#3E97D5" stroke-width="8"/>
<path d="M229 544C233.728 544 238.409 544.931 242.777 546.74C247.144 548.55 251.113 551.201 254.456 554.544C257.799 557.887 260.45 561.856 262.26 566.223C264.069 570.591 265 575.272 265 580" stroke="#3E97D5" stroke-width="8"/>
<circle cx="301" cy="656" r="4" fill="#3E97D5"/>
<circle cx="229" cy="656" r="4" fill="#3E97D5"/>
<path d="M229 656H301" stroke="#3E97D5" stroke-width="8"/>
<line x1="157" y1="496" x2="229" y2="496" stroke="#3E97D5" stroke-width="8"/>
<line x1="205" y1="544" x2="229" y2="544" stroke="#3E97D5" stroke-width="8"/>
<line x1="187" y1="332" x2="229" y2="332" stroke="#3E97D5" stroke-width="8"/>
<line y1="-4" x2="56" y2="-4" transform="matrix(4.37114e-08 -1 -1 -4.37114e-08 369 456)" stroke="#3E97D5" stroke-width="8"/>
<line x1="317" y1="232" x2="317" y2="200" stroke="#3E97D5" stroke-width="8"/>
<line y1="-4" x2="14" y2="-4" transform="matrix(4.37114e-08 -1 -1 -4.37114e-08 349 298)" stroke="#3E97D5" stroke-width="8"/>
<line y1="-4" x2="16" y2="-4" transform="matrix(4.37114e-08 -1 -1 -4.37114e-08 441 456)" stroke="#3E97D5" stroke-width="8"/>
<path d="M373 524C377.728 524 382.409 523.069 386.777 521.26C391.144 519.45 395.113 516.799 398.456 513.456C401.799 510.113 404.45 506.144 406.26 501.777C408.069 497.409 409 492.728 409 488" stroke="#3E97D5" stroke-width="8"/>
<path d="M373 456C373 465.548 376.793 474.705 383.544 481.456C390.295 488.207 399.452 492 409 492C418.548 492 427.705 488.207 434.456 481.456C441.207 474.705 445 465.548 445 456" stroke="#3E97D5" stroke-width="8"/>
<path d="M343 356C352.548 356 361.705 352.207 368.456 345.456C375.207 338.705 379 329.548 379 320" stroke="#3E97D5" stroke-width="8"/>
<path d="M347 378C347 384.896 349.739 391.509 354.615 396.385C359.491 401.261 366.104 404 373 404C379.896 404 386.509 401.261 391.385 396.385C396.261 391.509 399 384.896 399 378" stroke="#3E97D5" stroke-width="8"/>
<path d="M265 284C265 280.586 265.673 277.205 266.979 274.05C268.286 270.896 270.201 268.03 272.615 265.615C275.03 263.201 277.896 261.286 281.05 259.979C284.205 258.673 287.586 258 291 258" stroke="#3E97D5" stroke-width="8"/>
<path d="M291 258C297.896 258 304.509 255.261 309.385 250.385C314.261 245.509 317 238.896 317 232" stroke="#3E97D5" stroke-width="8"/>
<path d="M353 298C353 304.896 355.739 311.509 360.615 316.385C365.491 321.261 372.104 324 379 324C385.896 324 392.509 321.261 397.385 316.385C402.261 311.509 405 304.896 405 298" stroke="#3E97D5" stroke-width="8"/>
<path d="M291 178C291 184.896 293.739 191.509 298.615 196.385C303.491 201.261 310.104 204 317 204C323.896 204 330.509 201.261 335.385 196.385C340.261 191.509 343 184.896 343 178" stroke="#3E97D5" stroke-width="8"/>
<path d="M301 458C307.896 458 314.509 455.261 319.385 450.385C324.261 445.509 327 438.896 327 432" stroke="#3E97D5" stroke-width="8"/>
<path d="M429 428C429 432.243 430.686 436.313 433.686 439.314C436.687 442.314 440.757 444 445 444C449.243 444 453.313 442.314 456.314 439.314C459.314 436.313 461 432.243 461 428" stroke="#3E97D5" stroke-width="8"/>
<path d="M383 365C383 369.243 384.686 373.313 387.686 376.314C390.687 379.314 394.757 381 399 381C403.243 381 407.313 379.314 410.314 376.314C413.314 373.313 415 369.243 415 365" stroke="#3E97D5" stroke-width="8"/>
<path d="M337 272C337 276.243 338.686 280.313 341.686 283.314C344.687 286.314 348.757 288 353 288C357.243 288 361.313 286.314 364.314 283.314C367.314 280.313 369 276.243 369 272" stroke="#3E97D5" stroke-width="8"/>
<path d="M301 524C296.272 524 291.591 524.931 287.223 526.74C282.856 528.55 278.887 531.201 275.544 534.544C272.201 537.887 269.55 541.856 267.74 546.223C265.931 550.591 265 555.272 265 560" stroke="#3E97D5" stroke-width="8"/>
<path d="M301 356C296.272 356 291.591 356.931 287.223 358.74C282.856 360.55 278.887 363.201 275.544 366.544C272.201 369.887 269.55 373.856 267.74 378.223C265.931 382.591 265 387.272 265 392" stroke="#3E97D5" stroke-width="8"/>
<path d="M301 458C296.272 458 291.591 458.931 287.223 460.74C282.856 462.55 278.887 465.201 275.544 468.544C272.201 471.887 269.55 475.856 267.74 480.223C265.931 484.591 265 489.272 265 494" stroke="#3E97D5" stroke-width="8"/>
<line y1="-4" x2="72" y2="-4" transform="matrix(-1 0 0 1 373 528)" stroke="#3E97D5" stroke-width="8"/>
<line y1="-4" x2="42" y2="-4" transform="matrix(-1 8.74228e-08 8.74228e-08 1 343 360)" stroke="#3E97D5" stroke-width="8"/>
<circle cx="69" cy="400" r="4" fill="#3E97D5"/>
<circle cx="101" cy="400" r="4" fill="#3E97D5"/>
<circle cx="115" cy="337" r="4" fill="#3E97D5"/>
<circle cx="125" cy="274" r="4" fill="#3E97D5"/>
<circle cx="161" cy="248" r="4" fill="#3E97D5"/>
<circle cx="193" cy="248" r="4" fill="#3E97D5"/>
<circle cx="187" cy="198" r="4" fill="#3E97D5"/>
<circle cx="239" cy="198" r="4" fill="#3E97D5"/>
<circle cx="249" cy="146" r="4" fill="#3E97D5"/>
<circle cx="281" cy="146" r="4" fill="#3E97D5"/>
<circle cx="291" cy="178" r="4" fill="#3E97D5"/>
<circle cx="343" cy="178" r="4" fill="#3E97D5"/>
<circle cx="369" cy="272" r="4" fill="#3E97D5"/>
<circle cx="405" cy="298" r="4" fill="#3E97D5"/>
<circle cx="383" cy="365" r="4" fill="#3E97D5"/>
<circle cx="415" cy="365" r="4" fill="#3E97D5"/>
<circle cx="347" cy="378" r="4" fill="#3E97D5"/>
<circle cx="429" cy="428" r="4" fill="#3E97D5"/>
<circle cx="327" cy="432" r="4" fill="#3E97D5"/>
<circle cx="189" cy="528" r="4" fill="#3E97D5"/>
<circle cx="461" cy="428" r="4" fill="#3E97D5"/>
<circle cx="337" cy="272" r="4" fill="#3E97D5"/>
<circle cx="183" cy="350" r="4" fill="#3E97D5"/>
<circle cx="203" cy="380" r="4" fill="#3E97D5"/>
<circle cx="147" cy="337" r="4" fill="#3E97D5"/>
</g>
<g filter="url(#filter3_d_819_50)">
<rect width="360" height="360" rx="102" transform="matrix(-1 0 0 1 1785 248)" fill="#B1E2FD"/>
<rect width="204" height="204" rx="102" transform="matrix(-1 0 0 1 1707 195)" fill="#C3EAFF"/>
<line y1="-4" x2="280" y2="-4" transform="matrix(4.37114e-08 -1 -1 -4.37114e-08 1601 628)" stroke="#3E97D5" stroke-width="8"/>
<line y1="-4" x2="44" y2="-4" transform="matrix(-1 0 0 1 1665 576)" stroke="#3E97D5" stroke-width="8"/>
<line x1="1545" y1="532" x2="1589" y2="532" stroke="#3E97D5" stroke-width="8"/>
<line y1="-4" x2="72" y2="-4" transform="matrix(-1 -8.74228e-08 -8.74228e-08 1 1641 668)" stroke="#3E97D5" stroke-width="8"/>
<line y1="-4" x2="25" y2="-4" transform="matrix(-1 -8.74228e-08 -8.74228e-08 1 1590 424)" stroke="#3E97D5" stroke-width="8"/>
<line x1="1545" y1="592" x2="1589" y2="592" stroke="#3E97D5" stroke-width="8"/>
<line y1="-4" x2="24" y2="-4" transform="matrix(-1 8.74228e-08 8.74228e-08 1 1645 464)" stroke="#3E97D5" stroke-width="8"/>
<line x1="1737" y1="504" x2="1737" y2="485" stroke="#3E97D5" stroke-width="8"/>
<line y1="-4" x2="19" y2="-4" transform="matrix(4.37114e-08 -1 -1 -4.37114e-08 1469 464)" stroke="#3E97D5" stroke-width="8"/>
<line x1="1655" y1="400" x2="1655" y2="381" stroke="#3E97D5" stroke-width="8"/>
<line y1="-4" x2="13" y2="-4" transform="matrix(4.37114e-08 1 1 -4.37114e-08 1635 312)" stroke="#3E97D5" stroke-width="8"/>
<path d="M1641 664C1636.27 664 1631.59 663.069 1627.22 661.26C1622.86 659.45 1618.89 656.799 1615.54 653.456C1612.2 650.113 1609.55 646.144 1607.74 641.777C1605.93 637.409 1605 632.728 1605 628" stroke="#3E97D5" stroke-width="8"/>
<path d="M1701 536C1701 540.728 1700.07 545.409 1698.26 549.777C1696.45 554.144 1693.8 558.113 1690.46 561.456C1687.11 564.799 1683.14 567.45 1678.78 569.26C1674.41 571.069 1669.73 572 1665 572" stroke="#3E97D5" stroke-width="8"/>
<path d="M1509 496C1509 500.728 1509.93 505.409 1511.74 509.777C1513.55 514.144 1516.2 518.113 1519.54 521.456C1522.89 524.799 1526.86 527.45 1531.22 529.26C1535.59 531.069 1540.27 532 1545 532" stroke="#3E97D5" stroke-width="8"/>
<path d="M1529 384C1529 388.728 1529.93 393.409 1531.74 397.777C1533.55 402.144 1536.2 406.113 1539.54 409.456C1542.89 412.799 1546.86 415.45 1551.22 417.26C1555.59 419.069 1560.27 420 1565 420" stroke="#3E97D5" stroke-width="8"/>
<path d="M1681 424C1681 428.728 1680.07 433.409 1678.26 437.777C1676.45 442.144 1673.8 446.113 1670.46 449.456C1667.11 452.799 1663.14 455.45 1658.78 457.26C1654.41 459.069 1649.73 460 1645 460" stroke="#3E97D5" stroke-width="8"/>
<path d="M1665 504C1665 508.728 1665.93 513.409 1667.74 517.777C1669.55 522.144 1672.2 526.113 1675.54 529.456C1678.89 532.799 1682.86 535.45 1687.22 537.26C1691.59 539.069 1696.27 540 1701 540C1705.73 540 1710.41 539.069 1714.78 537.26C1719.14 535.45 1723.11 532.799 1726.46 529.456C1729.8 526.113 1732.45 522.144 1734.26 517.777C1736.07 513.409 1737 508.728 1737 504" stroke="#3E97D5" stroke-width="8"/>
<path d="M1545 464C1545 468.728 1544.07 473.409 1542.26 477.777C1540.45 482.144 1537.8 486.113 1534.46 489.456C1531.11 492.799 1527.14 495.45 1522.78 497.26C1518.41 499.069 1513.73 500 1509 500C1504.27 500 1499.59 499.069 1495.22 497.26C1490.86 495.45 1486.89 492.799 1483.54 489.456C1480.2 486.113 1477.55 482.144 1475.74 477.777C1473.93 473.409 1473 468.728 1473 464" stroke="#3E97D5" stroke-width="8"/>
<path d="M1655 400C1655 403.414 1655.67 406.795 1656.98 409.95C1658.29 413.104 1660.2 415.97 1662.62 418.385C1665.03 420.799 1667.9 422.714 1671.05 424.021C1674.2 425.327 1677.59 426 1681 426C1684.41 426 1687.8 425.327 1690.95 424.021C1694.1 422.714 1696.97 420.799 1699.38 418.385C1701.8 415.97 1703.71 413.104 1705.02 409.95C1706.33 406.795 1707 403.414 1707 400" stroke="#3E97D5" stroke-width="8"/>
<path d="M1579 325C1579 328.414 1579.67 331.795 1580.98 334.95C1582.29 338.104 1584.2 340.97 1586.62 343.385C1589.03 345.799 1591.9 347.714 1595.05 349.021C1598.2 350.327 1601.59 351 1605 351C1608.41 351 1611.8 350.327 1614.95 349.021C1618.1 347.714 1620.97 345.799 1623.38 343.385C1625.8 340.97 1627.71 338.104 1629.02 334.95C1630.33 331.795 1631 328.414 1631 325" stroke="#3E97D5" stroke-width="8"/>
<path d="M1721 468C1721 470.101 1721.41 472.182 1722.22 474.123C1723.02 476.064 1724.2 477.828 1725.69 479.314C1727.17 480.799 1728.94 481.978 1730.88 482.782C1732.82 483.586 1734.9 484 1737 484C1739.1 484 1741.18 483.586 1743.12 482.782C1745.06 481.978 1746.83 480.799 1748.31 479.314C1749.8 477.828 1750.98 476.064 1751.78 474.123C1752.59 472.182 1753 470.101 1753 468" stroke="#3E97D5" stroke-width="8"/>
<path d="M1649 488C1649 490.101 1649.41 492.182 1650.22 494.123C1651.02 496.064 1652.2 497.828 1653.69 499.314C1655.17 500.799 1656.94 501.978 1658.88 502.782C1660.82 503.586 1662.9 504 1665 504C1667.1 504 1669.18 503.586 1671.12 502.782C1673.06 501.978 1674.83 500.799 1676.31 499.314C1677.8 497.828 1678.98 496.064 1679.78 494.123C1680.59 492.182 1681 490.101 1681 488" stroke="#3E97D5" stroke-width="8"/>
<path d="M1489 428C1489 430.101 1488.59 432.182 1487.78 434.123C1486.98 436.064 1485.8 437.828 1484.31 439.314C1482.83 440.799 1481.06 441.978 1479.12 442.782C1477.18 443.586 1475.1 444 1473 444C1470.9 444 1468.82 443.586 1466.88 442.782C1464.94 441.978 1463.17 440.799 1461.69 439.314C1460.2 437.828 1459.02 436.064 1458.22 434.123C1457.41 432.182 1457 430.101 1457 428" stroke="#3E97D5" stroke-width="8"/>
<path d="M1545 368C1545 370.101 1544.59 372.182 1543.78 374.123C1542.98 376.064 1541.8 377.828 1540.31 379.314C1538.83 380.799 1537.06 381.978 1535.12 382.782C1533.18 383.586 1531.1 384 1529 384C1526.9 384 1524.82 383.586 1522.88 382.782C1520.94 381.978 1519.17 380.799 1517.69 379.314C1516.2 377.828 1515.02 376.064 1514.22 374.123C1513.41 372.182 1513 370.101 1513 368" stroke="#3E97D5" stroke-width="8"/>
<path d="M1691 385C1691 387.101 1691.41 389.182 1692.22 391.123C1693.02 393.064 1694.2 394.828 1695.69 396.314C1697.17 397.799 1698.94 398.978 1700.88 399.782C1702.82 400.586 1704.9 401 1707 401C1709.1 401 1711.18 400.586 1713.12 399.782C1715.06 398.978 1716.83 397.799 1718.31 396.314C1719.8 394.828 1720.98 393.064 1721.78 391.123C1722.59 389.182 1723 387.101 1723 385" stroke="#3E97D5" stroke-width="8"/>
<path d="M1529 576C1529 578.101 1529.41 580.182 1530.22 582.123C1531.02 584.064 1532.2 585.828 1533.69 587.314C1535.17 588.799 1536.94 589.978 1538.88 590.782C1540.82 591.586 1542.9 592 1545 592" stroke="#3E97D5" stroke-width="8"/>
<path d="M1561 448C1561 450.101 1560.59 452.182 1559.78 454.123C1558.98 456.064 1557.8 457.828 1556.31 459.314C1554.83 460.799 1553.06 461.978 1551.12 462.782C1549.18 463.586 1547.1 464 1545 464C1542.9 464 1540.82 463.586 1538.88 462.782C1536.94 461.978 1535.17 460.799 1533.69 459.314C1532.2 457.828 1531.02 456.064 1530.22 454.123C1529.41 452.182 1529 450.101 1529 448" stroke="#3E97D5" stroke-width="8"/>
<path d="M1545 560C1545 562.101 1544.59 564.182 1543.78 566.123C1542.98 568.064 1541.8 569.828 1540.31 571.314C1538.83 572.799 1537.06 573.978 1535.12 574.782C1533.18 575.586 1531.1 576 1529 576C1526.9 576 1524.82 575.586 1522.88 574.782C1520.94 573.978 1519.17 572.799 1517.69 571.314C1516.2 569.828 1515.02 568.064 1514.22 566.123C1513.41 564.182 1513 562.101 1513 560" stroke="#3E97D5" stroke-width="8"/>
<path d="M1639 365C1639 367.101 1639.41 369.182 1640.22 371.123C1641.02 373.064 1642.2 374.828 1643.69 376.314C1645.17 377.799 1646.94 378.978 1648.88 379.782C1650.82 380.586 1652.9 381 1655 381C1657.1 381 1659.18 380.586 1661.12 379.782C1663.06 378.978 1664.83 377.799 1666.31 376.314C1667.8 374.828 1668.98 373.064 1669.78 371.123C1670.59 369.182 1671 367.101 1671 365" stroke="#3E97D5" stroke-width="8"/>
<path d="M1615 297C1615 299.101 1615.41 301.182 1616.22 303.123C1617.02 305.064 1618.2 306.828 1619.69 308.314C1621.17 309.799 1622.94 310.978 1624.88 311.782C1626.82 312.586 1628.9 313 1631 313C1633.1 313 1635.18 312.586 1637.12 311.782C1639.06 310.978 1640.83 309.799 1642.31 308.314C1643.8 306.828 1644.98 305.064 1645.78 303.123C1646.59 301.182 1647 299.101 1647 297" stroke="#3E97D5" stroke-width="8"/>
<path d="M1605 588C1605 585.899 1605.41 583.818 1606.22 581.877C1607.02 579.936 1608.2 578.172 1609.69 576.686C1611.17 575.201 1612.94 574.022 1614.88 573.218C1616.82 572.414 1618.9 572 1621 572" stroke="#3E97D5" stroke-width="8"/>
<path d="M1605 548C1605 545.899 1604.59 543.818 1603.78 541.877C1602.98 539.936 1601.8 538.172 1600.31 536.686C1598.83 535.201 1597.06 534.022 1595.12 533.218C1593.18 532.414 1591.1 532 1589 532" stroke="#3E97D5" stroke-width="8"/>
<path d="M1605 476C1605 473.899 1605.41 471.818 1606.22 469.877C1607.02 467.936 1608.2 466.172 1609.69 464.686C1611.17 463.201 1612.94 462.022 1614.88 461.218C1616.82 460.414 1618.9 460 1621 460" stroke="#3E97D5" stroke-width="8"/>
<path d="M1605 436C1605 433.899 1604.59 431.818 1603.78 429.877C1602.98 427.936 1601.8 426.172 1600.31 424.686C1598.83 423.201 1597.06 422.022 1595.12 421.218C1593.18 420.414 1591.1 420 1589 420" stroke="#3E97D5" stroke-width="8"/>
<path d="M1605 608C1605 605.899 1604.59 603.818 1603.78 601.877C1602.98 599.936 1601.8 598.172 1600.31 596.686C1598.83 595.201 1597.06 594.022 1595.12 593.218C1593.18 592.414 1591.1 592 1589 592" stroke="#3E97D5" stroke-width="8"/>
<circle r="4" transform="matrix(-1 0 0 1 1641 664)" fill="#3E97D5"/>
<circle r="4" transform="matrix(-1 0 0 1 1569 664)" fill="#3E97D5"/>
<circle r="4" transform="matrix(-1 0 0 1 1545 560)" fill="#3E97D5"/>
<circle r="4" transform="matrix(-1 0 0 1 1665 504)" fill="#3E97D5"/>
<circle r="4" transform="matrix(-1 0 0 1 1721 468)" fill="#3E97D5"/>
<circle r="4" transform="matrix(-1 0 0 1 1649 488)" fill="#3E97D5"/>
<circle r="4" transform="matrix(-1 0 0 1 1723 385)" fill="#3E97D5"/>
<circle r="4" transform="matrix(-1 0 0 1 1691 385)" fill="#3E97D5"/>
<circle r="4" transform="matrix(-1 0 0 1 1671 365)" fill="#3E97D5"/>
<circle r="4" transform="matrix(-1 0 0 1 1647 297)" fill="#3E97D5"/>
<circle r="4" transform="matrix(-1 0 0 1 1615 297)" fill="#3E97D5"/>
<circle r="4" transform="matrix(-1 0 0 1 1579 325)" fill="#3E97D5"/>
<circle r="4" transform="matrix(-1 0 0 1 1545 368)" fill="#3E97D5"/>
<circle r="4" transform="matrix(-1 0 0 1 1513 368)" fill="#3E97D5"/>
<circle r="4" transform="matrix(-1 0 0 1 1529 448)" fill="#3E97D5"/>
<circle r="4" transform="matrix(-1 0 0 1 1561 448)" fill="#3E97D5"/>
<circle r="4" transform="matrix(-1 0 0 1 1489 428)" fill="#3E97D5"/>
<circle r="4" transform="matrix(-1 0 0 1 1457 428)" fill="#3E97D5"/>
<circle r="4" transform="matrix(-1 0 0 1 1639 365)" fill="#3E97D5"/>
<circle r="4" transform="matrix(-1 0 0 1 1753 468)" fill="#3E97D5"/>
<circle r="4" transform="matrix(-1 0 0 1 1681 488)" fill="#3E97D5"/>
<circle r="4" transform="matrix(-1 0 0 1 1513 560)" fill="#3E97D5"/>
</g>
<defs>
<filter id="filter0_d_819_50" x="1601" y="72" width="448" height="576" filterUnits="userSpaceOnUse" color-interpolation-filters="sRGB">
<feFlood flood-opacity="0" result="BackgroundImageFix"/>
<feColorMatrix in="SourceAlpha" type="matrix" values="0 0 0 0 0 0 0 0 0 0 0 0 0 0 0 0 0 0 127 0" result="hardAlpha"/>
<feOffset dy="4"/>
<feGaussianBlur stdDeviation="2"/>
<feComposite in2="hardAlpha" operator="out"/>
<feColorMatrix type="matrix" values="0 0 0 0 0 0 0 0 0 0 0 0 0 0 0 0 0 0 0.25 0"/>
<feBlend mode="normal" in2="BackgroundImageFix" result="effect1_dropShadow_819_50"/>
<feBlend mode="normal" in="SourceGraphic" in2="effect1_dropShadow_819_50" result="shape"/>
</filter>
<filter id="filter1_d_819_50" x="-129" y="173" width="398" height="475" filterUnits="userSpaceOnUse" color-interpolation-filters="sRGB">
<feFlood flood-opacity="0" result="BackgroundImageFix"/>
<feColorMatrix in="SourceAlpha" type="matrix" values="0 0 0 0 0 0 0 0 0 0 0 0 0 0 0 0 0 0 127 0" result="hardAlpha"/>
<feOffset dy="4"/>
<feGaussianBlur stdDeviation="2"/>
<feComposite in2="hardAlpha" operator="out"/>
<feColorMatrix type="matrix" values="0 0 0 0 0 0 0 0 0 0 0 0 0 0 0 0 0 0 0.25 0"/>
<feBlend mode="normal" in2="BackgroundImageFix" result="effect1_dropShadow_819_50"/>
<feBlend mode="normal" in="SourceGraphic" in2="effect1_dropShadow_819_50" result="shape"/>
</filter>
<filter id="filter2_d_819_50" x="41" y="52" width="448" height="616" filterUnits="userSpaceOnUse" color-interpolation-filters="sRGB">
<feFlood flood-opacity="0" result="BackgroundImageFix"/>
<feColorMatrix in="SourceAlpha" type="matrix" values="0 0 0 0 0 0 0 0 0 0 0 0 0 0 0 0 0 0 127 0" result="hardAlpha"/>
<feOffset dy="4"/>
<feGaussianBlur stdDeviation="2"/>
<feComposite in2="hardAlpha" operator="out"/>
<feColorMatrix type="matrix" values="0 0 0 0 0 0 0 0 0 0 0 0 0 0 0 0 0 0 0.25 0"/>
<feBlend mode="normal" in2="BackgroundImageFix" result="effect1_dropShadow_819_50"/>
<feBlend mode="normal" in="SourceGraphic" in2="effect1_dropShadow_819_50" result="shape"/>
</filter>
<filter id="filter3_d_819_50" x="1421" y="195" width="368" height="481" filterUnits="userSpaceOnUse" color-interpolation-filters="sRGB">
<feFlood flood-opacity="0" result="BackgroundImageFix"/>
<feColorMatrix in="SourceAlpha" type="matrix" values="0 0 0 0 0 0 0 0 0 0 0 0 0 0 0 0 0 0 127 0" result="hardAlpha"/>
<feOffset dy="4"/>
<feGaussianBlur stdDeviation="2"/>
<feComposite in2="hardAlpha" operator="out"/>
<feColorMatrix type="matrix" values="0 0 0 0 0 0 0 0 0 0 0 0 0 0 0 0 0 0 0.25 0"/>
<feBlend mode="normal" in2="BackgroundImageFix" result="effect1_dropShadow_819_50"/>
<feBlend mode="normal" in="SourceGraphic" in2="effect1_dropShadow_819_50" result="shape"/>
</filter>
</defs>
</svg>
