<svg width="499" height="626" viewBox="0 0 499 626" fill="none" xmlns="http://www.w3.org/2000/svg">
<mask id="mask0_833_51" style="mask-type:alpha" maskUnits="userSpaceOnUse" x="82" y="0" width="224" height="224">
<circle cx="194" cy="112" r="112" fill="#C4C4C4"/>
</mask>
<g mask="url(#mask0_833_51)">
<line x1="220.257" y1="-58.5546" x2="24.9797" y2="136.723" stroke="#96C0DF" stroke-width="4"/>
<line x1="244.125" y1="-34.6873" x2="48.8469" y2="160.59" stroke="#96C0DF" stroke-width="4"/>
<line x1="267.992" y1="-10.8201" x2="72.7141" y2="184.458" stroke="#96C0DF" stroke-width="4"/>
<line x1="291.86" y1="13.0473" x2="96.5818" y2="208.325" stroke="#96C0DF" stroke-width="4"/>
<line x1="315.727" y1="36.9145" x2="120.449" y2="232.192" stroke="#96C0DF" stroke-width="4"/>
<line x1="339.594" y1="60.7818" x2="144.316" y2="256.059" stroke="#96C0DF" stroke-width="4"/>
<line x1="363.461" y1="84.649" x2="168.183" y2="279.927" stroke="#96C0DF" stroke-width="4"/>
<line x1="387.328" y1="108.516" x2="192.051" y2="303.794" stroke="#96C0DF" stroke-width="4"/>
</g>
<g filter="url(#filter0_d_833_51)">
<circle r="108" transform="matrix(-1 0 0 1 404 374)" fill="#C4C4C4"/>
<path d="M624 360C624 288.203 565.797 230 494 230H314C242.203 230 184 288.203 184 360C184 431.797 242.203 490 314 490H494C565.797 490 624 431.797 624 360Z" fill="#96C0DF"/>
<circle r="170" transform="matrix(-1 0 0 1 404 192)" fill="#96C0DF"/>
<circle r="108" transform="matrix(-1 0 0 1 404 406)" fill="#7AB0D7"/>
<line y1="-4" x2="460" y2="-4" transform="matrix(4.37114e-08 -1 -1 -4.37114e-08 400 550)" stroke="#376EA7" stroke-width="8"/>
<line y1="-4" x2="28" y2="-4" transform="matrix(4.37114e-08 -1 -1 -4.37114e-08 452 178)" stroke="#376EA7" stroke-width="8"/>
<line y1="-4" x2="14" y2="-4" transform="matrix(4.37114e-08 -1 -1 -4.37114e-08 488 204)" stroke="#376EA7" stroke-width="8"/>
<path d="M368 586C372.728 586 377.409 585.069 381.777 583.26C386.144 581.45 390.113 578.799 393.456 575.456C396.799 572.113 399.45 568.144 401.26 563.777C403.069 559.409 404 554.728 404 550" stroke="#376EA7" stroke-width="8"/>
<path d="M482 262C491.548 262 500.705 258.207 507.456 251.456C514.207 244.705 518 235.548 518 226" stroke="#376EA7" stroke-width="8"/>
<path d="M486 280C486 286.896 488.739 293.509 493.615 298.385C498.491 303.261 505.104 306 512 306C518.896 306 525.509 303.261 530.385 298.385C535.261 293.509 538 286.896 538 280" stroke="#376EA7" stroke-width="8"/>
<path d="M404 230C404 226.586 404.673 223.205 405.979 220.05C407.286 216.896 409.201 214.03 411.615 211.615C414.03 209.201 416.896 207.286 420.05 205.979C423.205 204.673 426.586 204 430 204" stroke="#376EA7" stroke-width="8"/>
<path d="M430 204C436.896 204 443.509 201.261 448.385 196.385C453.261 191.509 456 184.896 456 178" stroke="#376EA7" stroke-width="8"/>
<path d="M492 204C492 210.896 494.739 217.509 499.615 222.385C504.491 227.261 511.104 230 518 230C524.896 230 531.509 227.261 536.385 222.385C541.261 217.509 544 210.896 544 204" stroke="#376EA7" stroke-width="8"/>
<path d="M430 128C430 134.896 432.739 141.509 437.615 146.385C442.491 151.261 449.104 154 456 154C462.896 154 469.509 151.261 474.385 146.385C479.261 141.509 482 134.896 482 128" stroke="#376EA7" stroke-width="8"/>
<path d="M440 336C446.896 336 453.509 333.261 458.385 328.385C463.261 323.509 466 316.896 466 310" stroke="#376EA7" stroke-width="8"/>
<path d="M476 178C476 182.243 477.686 186.313 480.686 189.314C483.687 192.314 487.757 194 492 194C496.243 194 500.313 192.314 503.314 189.314C506.314 186.313 508 182.243 508 178" stroke="#376EA7" stroke-width="8"/>
<path d="M388 76C388 80.2435 389.686 84.3131 392.686 87.3137C395.687 90.3143 399.757 92 404 92C408.243 92 412.313 90.3143 415.314 87.3137C418.314 84.3131 420 80.2435 420 76" stroke="#376EA7" stroke-width="8"/>
<path d="M464 474C466.101 474 468.182 473.586 470.123 472.782C472.064 471.978 473.828 470.799 475.314 469.314C476.799 467.828 477.978 466.064 478.782 464.123C479.586 462.182 480 460.101 480 458" stroke="#376EA7" stroke-width="8"/>
<path d="M440 426C435.272 426 430.591 426.931 426.223 428.74C421.856 430.55 417.887 433.201 414.544 436.544C411.201 439.887 408.55 443.856 406.74 448.223C404.931 452.591 404 457.272 404 462" stroke="#376EA7" stroke-width="8"/>
<path d="M440 262C435.272 262 430.591 262.931 426.223 264.74C421.856 266.55 417.887 269.201 414.544 272.544C411.201 275.887 408.55 279.856 406.74 284.223C404.931 288.591 404 293.272 404 298" stroke="#376EA7" stroke-width="8"/>
<path d="M440 336C435.272 336 430.591 336.931 426.223 338.74C421.856 340.55 417.887 343.201 414.544 346.544C411.201 349.887 408.55 353.856 406.74 358.223C404.931 362.591 404 367.272 404 372" stroke="#376EA7" stroke-width="8"/>
<path d="M440 474C435.272 474 430.591 474.931 426.223 476.74C421.856 478.55 417.887 481.201 414.544 484.544C411.201 487.887 408.55 491.856 406.74 496.223C404.931 500.591 404 505.272 404 510" stroke="#376EA7" stroke-width="8"/>
<circle r="4" transform="matrix(-1 0 0 1 368 586)" fill="#376EA7"/>
<circle r="4" transform="matrix(-1 0 0 1 440 586)" fill="#376EA7"/>
<path d="M440 586H368" stroke="#376EA7" stroke-width="8"/>
<line y1="-4" x2="72" y2="-4" transform="matrix(-1 0 0 1 512 430)" stroke="#376EA7" stroke-width="8"/>
<line y1="-4" x2="24" y2="-4" transform="matrix(-1 -8.74228e-08 -8.74228e-08 1 464 478)" stroke="#376EA7" stroke-width="8"/>
<line y1="-4" x2="42" y2="-4" transform="matrix(-1 8.74228e-08 8.74228e-08 1 482 266)" stroke="#376EA7" stroke-width="8"/>
<line x1="296" y1="386" x2="296" y2="330" stroke="#376EA7" stroke-width="8"/>
<line y1="-4" x2="32" y2="-4" transform="matrix(-4.37114e-08 -1 -1 4.37114e-08 348 162)" stroke="#376EA7" stroke-width="8"/>
<line x1="316" y1="228" x2="316" y2="214" stroke="#376EA7" stroke-width="8"/>
<line x1="224" y1="386" x2="224" y2="370" stroke="#376EA7" stroke-width="8"/>
<path d="M296 454C291.272 454 286.591 453.069 282.223 451.26C277.856 449.45 273.887 446.799 270.544 443.456C267.201 440.113 264.55 436.144 262.74 431.777C260.931 427.409 260 422.728 260 418" stroke="#376EA7" stroke-width="8"/>
<path d="M296 386C296 395.548 292.207 404.705 285.456 411.456C278.705 418.207 269.548 422 260 422C250.452 422 241.295 418.207 234.544 411.456C227.793 404.705 224 395.548 224 386" stroke="#376EA7" stroke-width="8"/>
<path d="M326 286C316.452 286 307.295 282.207 300.544 275.456C293.793 268.705 290 259.548 290 250" stroke="#376EA7" stroke-width="8"/>
<path d="M322 308C322 314.896 319.261 321.509 314.385 326.385C309.509 331.261 302.896 334 296 334C289.104 334 282.491 331.261 277.615 326.385C272.739 321.509 270 314.896 270 308" stroke="#376EA7" stroke-width="8"/>
<path d="M404 214C404 210.586 403.327 207.205 402.021 204.05C400.714 200.896 398.799 198.03 396.385 195.615C393.97 193.201 391.104 191.286 387.95 189.979C384.795 188.673 381.414 188 378 188" stroke="#376EA7" stroke-width="8"/>
<path d="M378 188C371.104 188 364.491 185.261 359.615 180.385C354.739 175.509 352 168.896 352 162" stroke="#376EA7" stroke-width="8"/>
<path d="M316 228C316 234.896 313.261 241.509 308.385 246.385C303.509 251.261 296.896 254 290 254C283.104 254 276.491 251.261 271.615 246.385C266.739 241.509 264 234.896 264 228" stroke="#376EA7" stroke-width="8"/>
<path d="M378 108C378 114.896 375.261 121.509 370.385 126.385C365.509 131.261 358.896 134 352 134C345.104 134 338.491 131.261 333.615 126.385C328.739 121.509 326 114.896 326 108" stroke="#376EA7" stroke-width="8"/>
<path d="M368 388C361.104 388 354.491 385.261 349.615 380.385C344.739 375.509 342 368.896 342 362" stroke="#376EA7" stroke-width="8"/>
<path d="M240 358C240 362.243 238.314 366.313 235.314 369.314C232.313 372.314 228.243 374 224 374C219.757 374 215.687 372.314 212.686 369.314C209.686 366.313 208 362.243 208 358" stroke="#376EA7" stroke-width="8"/>
<path d="M286 295C286 299.243 284.314 303.313 281.314 306.314C278.313 309.314 274.243 311 270 311C265.757 311 261.687 309.314 258.686 306.314C255.686 303.313 254 299.243 254 295" stroke="#376EA7" stroke-width="8"/>
<path d="M332 202C332 206.243 330.314 210.313 327.314 213.314C324.313 216.314 320.243 218 316 218C311.757 218 307.687 216.314 304.686 213.314C301.686 210.313 300 206.243 300 202" stroke="#376EA7" stroke-width="8"/>
<path d="M368 454C372.728 454 377.409 454.931 381.777 456.74C386.144 458.55 390.113 461.201 393.456 464.544C396.799 467.887 399.45 471.856 401.26 476.223C403.069 480.591 404 485.272 404 490" stroke="#376EA7" stroke-width="8"/>
<path d="M368 286C372.728 286 377.409 286.931 381.777 288.74C386.144 290.55 390.113 293.201 393.456 296.544C396.799 299.887 399.45 303.856 401.26 308.223C403.069 312.591 404 317.272 404 322" stroke="#376EA7" stroke-width="8"/>
<path d="M368 388C372.728 388 377.409 388.931 381.777 390.74C386.144 392.55 390.113 395.201 393.456 398.544C396.799 401.887 399.45 405.856 401.26 410.223C403.069 414.591 404 419.272 404 424" stroke="#376EA7" stroke-width="8"/>
<line x1="296" y1="454" x2="368" y2="454" stroke="#376EA7" stroke-width="8"/>
<line x1="326" y1="286" x2="368" y2="286" stroke="#376EA7" stroke-width="8"/>
<circle r="4" transform="matrix(-1 0 0 1 476 178)" fill="#376EA7"/>
<circle r="4" transform="matrix(-1 0 0 1 482 128)" fill="#376EA7"/>
<circle r="4" transform="matrix(-1 0 0 1 430 128)" fill="#376EA7"/>
<circle r="4" transform="matrix(-1 0 0 1 420 76)" fill="#376EA7"/>
<circle r="4" transform="matrix(-1 0 0 1 388 76)" fill="#376EA7"/>
<circle r="4" transform="matrix(-1 0 0 1 378 108)" fill="#376EA7"/>
<circle r="4" transform="matrix(-1 0 0 1 326 108)" fill="#376EA7"/>
<circle r="4" transform="matrix(-1 0 0 1 300 202)" fill="#376EA7"/>
<circle r="4" transform="matrix(-1 0 0 1 264 228)" fill="#376EA7"/>
<circle r="4" transform="matrix(-1 0 0 1 286 295)" fill="#376EA7"/>
<circle r="4" transform="matrix(-1 0 0 1 254 295)" fill="#376EA7"/>
<circle r="4" transform="matrix(-1 0 0 1 322 308)" fill="#376EA7"/>
<circle r="4" transform="matrix(-1 0 0 1 240 358)" fill="#376EA7"/>
<circle r="4" transform="matrix(-1 0 0 1 342 362)" fill="#376EA7"/>
<circle r="4" transform="matrix(-1 0 0 1 480 458)" fill="#376EA7"/>
<circle r="4" transform="matrix(-1 0 0 1 208 358)" fill="#376EA7"/>
<circle r="4" transform="matrix(-1 0 0 1 332 202)" fill="#376EA7"/>
<circle r="4" transform="matrix(-1 0 0 1 486 280)" fill="#376EA7"/>
<circle r="4" transform="matrix(-1 0 0 1 466 310)" fill="#376EA7"/>
</g>
<g filter="url(#filter1_d_833_51)">
<rect width="360" height="360" rx="102" transform="matrix(-1 0 0 1 364 198)" fill="#B1E2FD"/>
<rect width="204" height="204" rx="102" transform="matrix(-1 0 0 1 286 145)" fill="#C3EAFF"/>
<line y1="-4" x2="280" y2="-4" transform="matrix(4.37114e-08 -1 -1 -4.37114e-08 180 578)" stroke="#3E97D5" stroke-width="8"/>
<line y1="-4" x2="44" y2="-4" transform="matrix(-1 0 0 1 244 526)" stroke="#3E97D5" stroke-width="8"/>
<line x1="124" y1="482" x2="168" y2="482" stroke="#3E97D5" stroke-width="8"/>
<line y1="-4" x2="72" y2="-4" transform="matrix(-1 -8.74228e-08 -8.74228e-08 1 220 618)" stroke="#3E97D5" stroke-width="8"/>
<line y1="-4" x2="25" y2="-4" transform="matrix(-1 -8.74228e-08 -8.74228e-08 1 169 374)" stroke="#3E97D5" stroke-width="8"/>
<line x1="124" y1="542" x2="168" y2="542" stroke="#3E97D5" stroke-width="8"/>
<line y1="-4" x2="24" y2="-4" transform="matrix(-1 8.74228e-08 8.74228e-08 1 224 414)" stroke="#3E97D5" stroke-width="8"/>
<line x1="316" y1="454" x2="316" y2="435" stroke="#3E97D5" stroke-width="8"/>
<line y1="-4" x2="19" y2="-4" transform="matrix(4.37114e-08 -1 -1 -4.37114e-08 48 414)" stroke="#3E97D5" stroke-width="8"/>
<line x1="234" y1="350" x2="234" y2="331" stroke="#3E97D5" stroke-width="8"/>
<line y1="-4" x2="13" y2="-4" transform="matrix(4.37114e-08 1 1 -4.37114e-08 214 262)" stroke="#3E97D5" stroke-width="8"/>
<path d="M220 614C215.272 614 210.591 613.069 206.223 611.26C201.856 609.45 197.887 606.799 194.544 603.456C191.201 600.113 188.55 596.144 186.74 591.777C184.931 587.409 184 582.728 184 578" stroke="#3E97D5" stroke-width="8"/>
<path d="M280 486C280 490.728 279.069 495.409 277.26 499.777C275.45 504.144 272.799 508.113 269.456 511.456C266.113 514.799 262.144 517.45 257.777 519.26C253.409 521.069 248.728 522 244 522" stroke="#3E97D5" stroke-width="8"/>
<path d="M88 446C88 450.728 88.9312 455.409 90.7403 459.777C92.5495 464.144 95.2012 468.113 98.5442 471.456C101.887 474.799 105.856 477.45 110.223 479.26C114.591 481.069 119.272 482 124 482" stroke="#3E97D5" stroke-width="8"/>
<path d="M108 334C108 338.728 108.931 343.409 110.74 347.777C112.55 352.144 115.201 356.113 118.544 359.456C121.887 362.799 125.856 365.45 130.223 367.26C134.591 369.069 139.272 370 144 370" stroke="#3E97D5" stroke-width="8"/>
<path d="M260 374C260 378.728 259.069 383.409 257.26 387.777C255.45 392.144 252.799 396.113 249.456 399.456C246.113 402.799 242.144 405.45 237.777 407.26C233.409 409.069 228.728 410 224 410" stroke="#3E97D5" stroke-width="8"/>
<path d="M244 454C244 458.728 244.931 463.409 246.74 467.777C248.55 472.144 251.201 476.113 254.544 479.456C257.887 482.799 261.856 485.45 266.223 487.26C270.591 489.069 275.272 490 280 490C284.728 490 289.409 489.069 293.777 487.26C298.144 485.45 302.113 482.799 305.456 479.456C308.799 476.113 311.45 472.144 313.26 467.777C315.069 463.409 316 458.728 316 454" stroke="#3E97D5" stroke-width="8"/>
<path d="M124 414C124 418.728 123.069 423.409 121.26 427.777C119.45 432.144 116.799 436.113 113.456 439.456C110.113 442.799 106.144 445.45 101.777 447.26C97.4089 449.069 92.7276 450 88 450C83.2724 450 78.5911 449.069 74.2234 447.26C69.8557 445.45 65.8871 442.799 62.5442 439.456C59.2012 436.113 56.5495 432.144 54.7403 427.777C52.9312 423.409 52 418.728 52 414" stroke="#3E97D5" stroke-width="8"/>
<path d="M234 350C234 353.414 234.673 356.795 235.979 359.95C237.286 363.104 239.201 365.97 241.615 368.385C244.03 370.799 246.896 372.714 250.05 374.021C253.205 375.327 256.586 376 260 376C263.414 376 266.795 375.327 269.95 374.021C273.104 372.714 275.97 370.799 278.385 368.385C280.799 365.97 282.714 363.104 284.021 359.95C285.327 356.795 286 353.414 286 350" stroke="#3E97D5" stroke-width="8"/>
<path d="M158 275C158 278.414 158.673 281.795 159.979 284.95C161.286 288.104 163.201 290.97 165.615 293.385C168.03 295.799 170.896 297.714 174.05 299.021C177.205 300.327 180.586 301 184 301C187.414 301 190.795 300.327 193.95 299.021C197.104 297.714 199.97 295.799 202.385 293.385C204.799 290.97 206.714 288.104 208.021 284.95C209.327 281.795 210 278.414 210 275" stroke="#3E97D5" stroke-width="8"/>
<path d="M300 418C300 420.101 300.414 422.182 301.218 424.123C302.022 426.064 303.201 427.828 304.686 429.314C306.172 430.799 307.936 431.978 309.877 432.782C311.818 433.586 313.899 434 316 434C318.101 434 320.182 433.586 322.123 432.782C324.064 431.978 325.828 430.799 327.314 429.314C328.799 427.828 329.978 426.064 330.782 424.123C331.586 422.182 332 420.101 332 418" stroke="#3E97D5" stroke-width="8"/>
<path d="M228 438C228 440.101 228.414 442.182 229.218 444.123C230.022 446.064 231.201 447.828 232.686 449.314C234.172 450.799 235.936 451.978 237.877 452.782C239.818 453.586 241.899 454 244 454C246.101 454 248.182 453.586 250.123 452.782C252.064 451.978 253.828 450.799 255.314 449.314C256.799 447.828 257.978 446.064 258.782 444.123C259.586 442.182 260 440.101 260 438" stroke="#3E97D5" stroke-width="8"/>
<path d="M68 378C68 380.101 67.5861 382.182 66.7821 384.123C65.978 386.064 64.7994 387.828 63.3137 389.314C61.828 390.799 60.0641 391.978 58.1229 392.782C56.1817 393.586 54.1012 394 52 394C49.8989 394 47.8183 393.586 45.8771 392.782C43.9359 391.978 42.172 390.799 40.6863 389.314C39.2006 387.828 38.022 386.064 37.2179 384.123C36.4139 382.182 36 380.101 36 378" stroke="#3E97D5" stroke-width="8"/>
<path d="M124 318C124 320.101 123.586 322.182 122.782 324.123C121.978 326.064 120.799 327.828 119.314 329.314C117.828 330.799 116.064 331.978 114.123 332.782C112.182 333.586 110.101 334 108 334C105.899 334 103.818 333.586 101.877 332.782C99.9359 331.978 98.172 330.799 96.6863 329.314C95.2006 327.828 94.022 326.064 93.2179 324.123C92.4139 322.182 92 320.101 92 318" stroke="#3E97D5" stroke-width="8"/>
<path d="M270 335C270 337.101 270.414 339.182 271.218 341.123C272.022 343.064 273.201 344.828 274.686 346.314C276.172 347.799 277.936 348.978 279.877 349.782C281.818 350.586 283.899 351 286 351C288.101 351 290.182 350.586 292.123 349.782C294.064 348.978 295.828 347.799 297.314 346.314C298.799 344.828 299.978 343.064 300.782 341.123C301.586 339.182 302 337.101 302 335" stroke="#3E97D5" stroke-width="8"/>
<path d="M108 526C108 528.101 108.414 530.182 109.218 532.123C110.022 534.064 111.201 535.828 112.686 537.314C114.172 538.799 115.936 539.978 117.877 540.782C119.818 541.586 121.899 542 124 542" stroke="#3E97D5" stroke-width="8"/>
<path d="M140 398C140 400.101 139.586 402.182 138.782 404.123C137.978 406.064 136.799 407.828 135.314 409.314C133.828 410.799 132.064 411.978 130.123 412.782C128.182 413.586 126.101 414 124 414C121.899 414 119.818 413.586 117.877 412.782C115.936 411.978 114.172 410.799 112.686 409.314C111.201 407.828 110.022 406.064 109.218 404.123C108.414 402.182 108 400.101 108 398" stroke="#3E97D5" stroke-width="8"/>
<path d="M124 510C124 512.101 123.586 514.182 122.782 516.123C121.978 518.064 120.799 519.828 119.314 521.314C117.828 522.799 116.064 523.978 114.123 524.782C112.182 525.586 110.101 526 108 526C105.899 526 103.818 525.586 101.877 524.782C99.9359 523.978 98.172 522.799 96.6863 521.314C95.2006 519.828 94.022 518.064 93.2179 516.123C92.4139 514.182 92 512.101 92 510" stroke="#3E97D5" stroke-width="8"/>
<path d="M218 315C218 317.101 218.414 319.182 219.218 321.123C220.022 323.064 221.201 324.828 222.686 326.314C224.172 327.799 225.936 328.978 227.877 329.782C229.818 330.586 231.899 331 234 331C236.101 331 238.182 330.586 240.123 329.782C242.064 328.978 243.828 327.799 245.314 326.314C246.799 324.828 247.978 323.064 248.782 321.123C249.586 319.182 250 317.101 250 315" stroke="#3E97D5" stroke-width="8"/>
<path d="M194 247C194 249.101 194.414 251.182 195.218 253.123C196.022 255.064 197.201 256.828 198.686 258.314C200.172 259.799 201.936 260.978 203.877 261.782C205.818 262.586 207.899 263 210 263C212.101 263 214.182 262.586 216.123 261.782C218.064 260.978 219.828 259.799 221.314 258.314C222.799 256.828 223.978 255.064 224.782 253.123C225.586 251.182 226 249.101 226 247" stroke="#3E97D5" stroke-width="8"/>
<path d="M184 538C184 535.899 184.414 533.818 185.218 531.877C186.022 529.936 187.201 528.172 188.686 526.686C190.172 525.201 191.936 524.022 193.877 523.218C195.818 522.414 197.899 522 200 522" stroke="#3E97D5" stroke-width="8"/>
<path d="M184 498C184 495.899 183.586 493.818 182.782 491.877C181.978 489.936 180.799 488.172 179.314 486.686C177.828 485.201 176.064 484.022 174.123 483.218C172.182 482.414 170.101 482 168 482" stroke="#3E97D5" stroke-width="8"/>
<path d="M184 426C184 423.899 184.414 421.818 185.218 419.877C186.022 417.936 187.201 416.172 188.686 414.686C190.172 413.201 191.936 412.022 193.877 411.218C195.818 410.414 197.899 410 200 410" stroke="#3E97D5" stroke-width="8"/>
<path d="M184 386C184 383.899 183.586 381.818 182.782 379.877C181.978 377.936 180.799 376.172 179.314 374.686C177.828 373.201 176.064 372.022 174.123 371.218C172.182 370.414 170.101 370 168 370" stroke="#3E97D5" stroke-width="8"/>
<path d="M184 558C184 555.899 183.586 553.818 182.782 551.877C181.978 549.936 180.799 548.172 179.314 546.686C177.828 545.201 176.064 544.022 174.123 543.218C172.182 542.414 170.101 542 168 542" stroke="#3E97D5" stroke-width="8"/>
<circle r="4" transform="matrix(-1 0 0 1 220 614)" fill="#3E97D5"/>
<circle r="4" transform="matrix(-1 0 0 1 148 614)" fill="#3E97D5"/>
<circle r="4" transform="matrix(-1 0 0 1 124 510)" fill="#3E97D5"/>
<circle r="4" transform="matrix(-1 0 0 1 244 454)" fill="#3E97D5"/>
<circle r="4" transform="matrix(-1 0 0 1 300 418)" fill="#3E97D5"/>
<circle r="4" transform="matrix(-1 0 0 1 228 438)" fill="#3E97D5"/>
<circle r="4" transform="matrix(-1 0 0 1 302 335)" fill="#3E97D5"/>
<circle r="4" transform="matrix(-1 0 0 1 270 335)" fill="#3E97D5"/>
<circle r="4" transform="matrix(-1 0 0 1 250 315)" fill="#3E97D5"/>
<circle r="4" transform="matrix(-1 0 0 1 226 247)" fill="#3E97D5"/>
<circle r="4" transform="matrix(-1 0 0 1 194 247)" fill="#3E97D5"/>
<circle r="4" transform="matrix(-1 0 0 1 158 275)" fill="#3E97D5"/>
<circle r="4" transform="matrix(-1 0 0 1 124 318)" fill="#3E97D5"/>
<circle r="4" transform="matrix(-1 0 0 1 92 318)" fill="#3E97D5"/>
<circle r="4" transform="matrix(-1 0 0 1 108 398)" fill="#3E97D5"/>
<circle r="4" transform="matrix(-1 0 0 1 140 398)" fill="#3E97D5"/>
<circle r="4" transform="matrix(-1 0 0 1 68 378)" fill="#3E97D5"/>
<circle r="4" transform="matrix(-1 0 0 1 36 378)" fill="#3E97D5"/>
<circle r="4" transform="matrix(-1 0 0 1 218 315)" fill="#3E97D5"/>
<circle r="4" transform="matrix(-1 0 0 1 332 418)" fill="#3E97D5"/>
<circle r="4" transform="matrix(-1 0 0 1 260 438)" fill="#3E97D5"/>
<circle r="4" transform="matrix(-1 0 0 1 92 510)" fill="#3E97D5"/>
</g>
<defs>
<filter id="filter0_d_833_51" x="180" y="22" width="448" height="576" filterUnits="userSpaceOnUse" color-interpolation-filters="sRGB">
<feFlood flood-opacity="0" result="BackgroundImageFix"/>
<feColorMatrix in="SourceAlpha" type="matrix" values="0 0 0 0 0 0 0 0 0 0 0 0 0 0 0 0 0 0 127 0" result="hardAlpha"/>
<feOffset dy="4"/>
<feGaussianBlur stdDeviation="2"/>
<feComposite in2="hardAlpha" operator="out"/>
<feColorMatrix type="matrix" values="0 0 0 0 0 0 0 0 0 0 0 0 0 0 0 0 0 0 0.25 0"/>
<feBlend mode="normal" in2="BackgroundImageFix" result="effect1_dropShadow_833_51"/>
<feBlend mode="normal" in="SourceGraphic" in2="effect1_dropShadow_833_51" result="shape"/>
</filter>
<filter id="filter1_d_833_51" x="0" y="145" width="368" height="481" filterUnits="userSpaceOnUse" color-interpolation-filters="sRGB">
<feFlood flood-opacity="0" result="BackgroundImageFix"/>
<feColorMatrix in="SourceAlpha" type="matrix" values="0 0 0 0 0 0 0 0 0 0 0 0 0 0 0 0 0 0 127 0" result="hardAlpha"/>
<feOffset dy="4"/>
<feGaussianBlur stdDeviation="2"/>
<feComposite in2="hardAlpha" operator="out"/>
<feColorMatrix type="matrix" values="0 0 0 0 0 0 0 0 0 0 0 0 0 0 0 0 0 0 0.25 0"/>
<feBlend mode="normal" in2="BackgroundImageFix" result="effect1_dropShadow_833_51"/>
<feBlend mode="normal" in="SourceGraphic" in2="effect1_dropShadow_833_51" result="shape"/>
</filter>
</defs>
</svg>
