<svg width="489" height="668" viewBox="0 0 489 668" fill="none" xmlns="http://www.w3.org/2000/svg">
<mask id="mask0_833_50" style="mask-type:alpha" maskUnits="userSpaceOnUse" x="265" y="0" width="224" height="224">
<circle cx="377" cy="112" r="112" fill="#C4C4C4"/>
</mask>
<g mask="url(#mask0_833_50)">
<line x1="403.257" y1="-58.5546" x2="207.979" y2="136.723" stroke="#96C0DF" stroke-width="4"/>
<line x1="427.124" y1="-34.6873" x2="231.847" y2="160.59" stroke="#96C0DF" stroke-width="4"/>
<line x1="450.992" y1="-10.8201" x2="255.714" y2="184.458" stroke="#96C0DF" stroke-width="4"/>
<line x1="474.859" y1="13.0473" x2="279.581" y2="208.325" stroke="#96C0DF" stroke-width="4"/>
<line x1="498.726" y1="36.9145" x2="303.448" y2="232.192" stroke="#96C0DF" stroke-width="4"/>
<line x1="522.594" y1="60.7818" x2="327.316" y2="256.059" stroke="#96C0DF" stroke-width="4"/>
<line x1="546.461" y1="84.649" x2="351.183" y2="279.927" stroke="#96C0DF" stroke-width="4"/>
<line x1="570.328" y1="108.516" x2="375.051" y2="303.794" stroke="#96C0DF" stroke-width="4"/>
</g>
<g filter="url(#filter0_d_833_50)">
<rect x="-95" y="220" width="360" height="360" rx="102" fill="#96C0DF"/>
<rect x="-125" y="173" width="204" height="204" rx="102" fill="#7AB0D7"/>
<line x1="85" y1="600" x2="85" y2="320" stroke="#376EA7" stroke-width="8"/>
<line x1="25" y1="544" x2="69" y2="544" stroke="#376EA7" stroke-width="8"/>
<line y1="-4" x2="44" y2="-4" transform="matrix(-1 0 0 1 145 508)" stroke="#376EA7" stroke-width="8"/>
<line x1="49" y1="636" x2="121" y2="636" stroke="#376EA7" stroke-width="8"/>
<line x1="100" y1="392" x2="125" y2="392" stroke="#376EA7" stroke-width="8"/>
<line y1="-4" x2="44" y2="-4" transform="matrix(-1 0 0 1 145 568)" stroke="#376EA7" stroke-width="8"/>
<line x1="45" y1="432" x2="69" y2="432" stroke="#376EA7" stroke-width="8"/>
<line x1="217" y1="436" x2="217" y2="417" stroke="#376EA7" stroke-width="8"/>
<line y1="-4" x2="19" y2="-4" transform="matrix(4.37114e-08 -1 -1 -4.37114e-08 31 372)" stroke="#376EA7" stroke-width="8"/>
<line x1="59" y1="284" x2="59" y2="297" stroke="#376EA7" stroke-width="8"/>
<path d="M49 636C53.7276 636 58.4089 635.069 62.7766 633.26C67.1443 631.45 71.1129 628.799 74.4558 625.456C77.7988 622.113 80.4505 618.144 82.2597 613.777C84.0688 609.409 85 604.728 85 600" stroke="#376EA7" stroke-width="8"/>
<path d="M-11 508C-11 512.728 -10.0688 517.409 -8.25966 521.777C-6.45049 526.144 -3.79875 530.113 -0.455844 533.456C2.88707 536.799 6.85568 539.45 11.2234 541.26C15.5911 543.069 20.2724 544 25 544" stroke="#376EA7" stroke-width="8"/>
<path d="M181 468C181 472.728 180.069 477.409 178.26 481.777C176.45 486.144 173.799 490.113 170.456 493.456C167.113 496.799 163.144 499.45 158.777 501.26C154.409 503.069 149.728 504 145 504" stroke="#376EA7" stroke-width="8"/>
<path d="M161 356C161 360.728 160.069 365.409 158.26 369.777C156.45 374.144 153.799 378.113 150.456 381.456C147.113 384.799 143.144 387.45 138.777 389.26C134.409 391.069 129.728 392 125 392" stroke="#376EA7" stroke-width="8"/>
<path d="M9 396C9 400.728 9.93117 405.409 11.7403 409.777C13.5495 414.144 16.2012 418.113 19.5442 421.456C22.8871 424.799 26.8557 427.45 31.2234 429.26C35.5911 431.069 40.2724 432 45 432" stroke="#376EA7" stroke-width="8"/>
<path d="M25 476C25 480.728 24.0688 485.409 22.2597 489.777C20.4505 494.144 17.7988 498.113 14.4558 501.456C11.1129 504.799 7.14433 507.45 2.7766 509.26C-1.59112 511.069 -6.27241 512 -11 512C-15.7276 512 -20.4089 511.069 -24.7766 509.26C-29.1443 507.45 -33.1129 504.799 -36.4558 501.456C-39.7988 498.113 -42.4505 494.144 -44.2597 489.777C-46.0688 485.409 -47 480.728 -47 476" stroke="#376EA7" stroke-width="8"/>
<path d="M145 436C145 440.728 145.931 445.409 147.74 449.777C149.55 454.144 152.201 458.113 155.544 461.456C158.887 464.799 162.856 467.45 167.223 469.26C171.591 471.069 176.272 472 181 472C185.728 472 190.409 471.069 194.777 469.26C199.144 467.45 203.113 464.799 206.456 461.456C209.799 458.113 212.45 454.144 214.26 449.777C216.069 445.409 217 440.728 217 436" stroke="#376EA7" stroke-width="8"/>
<path d="M35 372C35 375.414 34.3275 378.795 33.0209 381.95C31.7142 385.104 29.7991 387.97 27.3848 390.385C24.9705 392.799 22.1042 394.714 18.9498 396.021C15.7953 397.327 12.4144 398 9 398C5.58563 398 2.2047 397.327 -0.949769 396.021C-4.10423 394.714 -6.97045 392.799 -9.38478 390.385C-11.7991 387.97 -13.7142 385.104 -15.0209 381.95C-16.3275 378.795 -17 375.414 -17 372" stroke="#376EA7" stroke-width="8"/>
<path d="M111 297C111 300.414 110.327 303.795 109.021 306.95C107.714 310.104 105.799 312.97 103.385 315.385C100.97 317.799 98.1042 319.714 94.9498 321.021C91.7953 322.327 88.4144 323 85 323C81.5856 323 78.2047 322.327 75.0502 321.021C71.8958 319.714 69.0295 317.799 66.6152 315.385C64.2009 312.97 62.2858 310.104 60.9791 306.95C59.6725 303.795 59 300.414 59 297" stroke="#376EA7" stroke-width="8"/>
<path d="M41 460C41 462.101 40.5861 464.182 39.7821 466.123C38.978 468.064 37.7994 469.828 36.3137 471.314C34.828 472.799 33.0641 473.978 31.1229 474.782C29.1817 475.586 27.1012 476 25 476C22.8989 476 20.8183 475.586 18.8771 474.782C16.9359 473.978 15.172 472.799 13.6863 471.314C12.2006 469.828 11.022 468.064 10.2179 466.123C9.41385 464.182 9 462.101 9 460" stroke="#376EA7" stroke-width="8"/>
<path d="M201 400C201 402.101 201.414 404.182 202.218 406.123C203.022 408.064 204.201 409.828 205.686 411.314C207.172 412.799 208.936 413.978 210.877 414.782C212.818 415.586 214.899 416 217 416C219.101 416 221.182 415.586 223.123 414.782C225.064 413.978 226.828 412.799 228.314 411.314C229.799 409.828 230.978 408.064 231.782 406.123C232.586 404.182 233 402.101 233 400" stroke="#376EA7" stroke-width="8"/>
<path d="M145 340C145 342.101 145.414 344.182 146.218 346.123C147.022 348.064 148.201 349.828 149.686 351.314C151.172 352.799 152.936 353.978 154.877 354.782C156.818 355.586 158.899 356 161 356C163.101 356 165.182 355.586 167.123 354.782C169.064 353.978 170.828 352.799 172.314 351.314C173.799 349.828 174.978 348.064 175.782 346.123C176.586 344.182 177 342.101 177 340" stroke="#376EA7" stroke-width="8"/>
<path d="M-1 357C-1 359.101 -1.41385 361.182 -2.21793 363.123C-3.022 365.064 -4.20055 366.828 -5.68629 368.314C-7.17203 369.799 -8.93586 370.978 -10.8771 371.782C-12.8183 372.586 -14.8988 373 -17 373C-19.1011 373 -21.1817 372.586 -23.1229 371.782C-25.0641 370.978 -26.828 369.799 -28.3137 368.314C-29.7994 366.828 -30.978 365.064 -31.7821 363.123C-32.5861 361.182 -33 359.101 -33 357" stroke="#376EA7" stroke-width="8"/>
<path d="M161 548C161 550.101 160.586 552.182 159.782 554.123C158.978 556.064 157.799 557.828 156.314 559.314C154.828 560.799 153.064 561.978 151.123 562.782C149.182 563.586 147.101 564 145 564" stroke="#376EA7" stroke-width="8"/>
<path d="M129 420C129 422.101 129.414 424.182 130.218 426.123C131.022 428.064 132.201 429.828 133.686 431.314C135.172 432.799 136.936 433.978 138.877 434.782C140.818 435.586 142.899 436 145 436C147.101 436 149.182 435.586 151.123 434.782C153.064 433.978 154.828 432.799 156.314 431.314C157.799 429.828 158.978 428.064 159.782 426.123C160.586 424.182 161 422.101 161 420" stroke="#376EA7" stroke-width="8"/>
<path d="M145 532C145 534.101 145.414 536.182 146.218 538.123C147.022 540.064 148.201 541.828 149.686 543.314C151.172 544.799 152.936 545.978 154.877 546.782C156.818 547.586 158.899 548 161 548C163.101 548 165.182 547.586 167.123 546.782C169.064 545.978 170.828 544.799 172.314 543.314C173.799 541.828 174.978 540.064 175.782 538.123C176.586 536.182 177 534.101 177 532" stroke="#376EA7" stroke-width="8"/>
<path d="M51 337C51 339.101 50.5861 341.182 49.7821 343.123C48.978 345.064 47.7994 346.828 46.3137 348.314C44.828 349.799 43.0641 350.978 41.1229 351.782C39.1817 352.586 37.1012 353 35 353C32.8989 353 30.8183 352.586 28.8771 351.782C26.9359 350.978 25.172 349.799 23.6863 348.314C22.2006 346.828 21.022 345.064 20.2179 343.123C19.4139 341.182 19 339.101 19 337" stroke="#376EA7" stroke-width="8"/>
<path d="M75 269C75 271.101 74.5861 273.182 73.7821 275.123C72.978 277.064 71.7994 278.828 70.3137 280.314C68.828 281.799 67.0641 282.978 65.1229 283.782C63.1817 284.586 61.1012 285 59 285C56.8989 285 54.8183 284.586 52.8771 283.782C50.9359 282.978 49.172 281.799 47.6863 280.314C46.2006 278.828 45.022 277.064 44.2179 275.123C43.4139 273.182 43 271.101 43 269" stroke="#376EA7" stroke-width="8"/>
<path d="M85 560C85 557.899 84.5861 555.818 83.7821 553.877C82.978 551.936 81.7994 550.172 80.3137 548.686C78.828 547.201 77.0641 546.022 75.1229 545.218C73.1817 544.414 71.1011 544 69 544" stroke="#376EA7" stroke-width="8"/>
<path d="M85 520C85 517.899 85.4139 515.818 86.2179 513.877C87.022 511.936 88.2006 510.172 89.6863 508.686C91.172 507.201 92.9359 506.022 94.8771 505.218C96.8183 504.414 98.8989 504 101 504" stroke="#376EA7" stroke-width="8"/>
<path d="M85 448C85 445.899 84.5861 443.818 83.7821 441.877C82.978 439.936 81.7994 438.172 80.3137 436.686C78.828 435.201 77.0641 434.022 75.1229 433.218C73.1817 432.414 71.1011 432 69 432" stroke="#376EA7" stroke-width="8"/>
<path d="M85 408C85 405.899 85.4139 403.818 86.2179 401.877C87.022 399.936 88.2006 398.172 89.6863 396.686C91.172 395.201 92.9359 394.022 94.8771 393.218C96.8183 392.414 98.8989 392 101 392" stroke="#376EA7" stroke-width="8"/>
<path d="M85 580C85 577.899 85.4139 575.818 86.2179 573.877C87.022 571.936 88.2006 570.172 89.6863 568.686C91.172 567.201 92.9359 566.022 94.8771 565.218C96.8183 564.414 98.8989 564 101 564" stroke="#376EA7" stroke-width="8"/>
<circle cx="49" cy="636" r="4" fill="#376EA7"/>
<circle cx="121" cy="636" r="4" fill="#376EA7"/>
<circle cx="145" cy="532" r="4" fill="#376EA7"/>
<circle cx="25" cy="476" r="4" fill="#376EA7"/>
<circle cx="41" cy="460" r="4" fill="#376EA7"/>
<circle cx="-1" cy="357" r="4" fill="#376EA7"/>
<circle cx="19" cy="337" r="4" fill="#376EA7"/>
<circle cx="43" cy="269" r="4" fill="#376EA7"/>
<circle cx="75" cy="269" r="4" fill="#376EA7"/>
<circle cx="111" cy="297" r="4" fill="#376EA7"/>
<circle cx="145" cy="340" r="4" fill="#376EA7"/>
<circle cx="177" cy="340" r="4" fill="#376EA7"/>
<circle cx="161" cy="420" r="4" fill="#376EA7"/>
<circle cx="129" cy="420" r="4" fill="#376EA7"/>
<circle cx="201" cy="400" r="4" fill="#376EA7"/>
<circle cx="233" cy="400" r="4" fill="#376EA7"/>
<circle cx="51" cy="337" r="4" fill="#376EA7"/>
<circle cx="9" cy="460" r="4" fill="#376EA7"/>
<circle cx="177" cy="532" r="4" fill="#376EA7"/>
</g>
<g filter="url(#filter1_d_833_50)">
<circle cx="265" cy="444" r="108" fill="#C4C4C4"/>
<path d="M45 430C45 358.203 103.203 300 175 300H355C426.797 300 485 358.203 485 430C485 501.797 426.797 560 355 560H175C103.203 560 45 501.797 45 430Z" fill="#B1E2FD"/>
<circle cx="265" cy="262" r="170" fill="#B1E2FD"/>
<circle cx="201" cy="140" r="88" fill="#C4EAFF"/>
<circle cx="265" cy="476" r="108" fill="#B1E2FD"/>
<line x1="265" y1="620" x2="265" y2="160" stroke="#3E97D5" stroke-width="8"/>
<line x1="157" y1="428" x2="157" y2="372" stroke="#3E97D5" stroke-width="8"/>
<line x1="213" y1="248" x2="213" y2="220" stroke="#3E97D5" stroke-width="8"/>
<line x1="177" y1="274" x2="177" y2="260" stroke="#3E97D5" stroke-width="8"/>
<line x1="85" y1="430" x2="85" y2="414" stroke="#3E97D5" stroke-width="8"/>
<path d="M301 656C296.272 656 291.591 655.069 287.223 653.26C282.856 651.45 278.887 648.799 275.544 645.456C272.201 642.113 269.55 638.144 267.74 633.777C265.931 629.409 265 624.728 265 620" stroke="#3E97D5" stroke-width="8"/>
<path d="M157 496C152.272 496 147.591 495.069 143.223 493.26C138.856 491.45 134.887 488.799 131.544 485.456C128.201 482.113 125.55 478.144 123.74 473.777C121.931 469.409 121 464.728 121 460" stroke="#3E97D5" stroke-width="8"/>
<path d="M157 428C157 437.548 153.207 446.705 146.456 453.456C139.705 460.207 130.548 464 121 464C111.452 464 102.295 460.207 95.5442 453.456C88.7928 446.705 85 437.548 85 428" stroke="#3E97D5" stroke-width="8"/>
<path d="M187 332C177.452 332 168.295 328.207 161.544 321.456C154.793 314.705 151 305.548 151 296" stroke="#3E97D5" stroke-width="8"/>
<path d="M183 350C183 356.896 180.261 363.509 175.385 368.385C170.509 373.261 163.896 376 157 376C150.104 376 143.491 373.261 138.615 368.385C133.739 363.509 131 356.896 131 350" stroke="#3E97D5" stroke-width="8"/>
<path d="M265 300C265 296.586 264.327 293.205 263.021 290.05C261.714 286.896 259.799 284.03 257.385 281.615C254.97 279.201 252.104 277.286 248.95 275.979C245.795 274.673 242.414 274 239 274" stroke="#3E97D5" stroke-width="8"/>
<path d="M239 274C232.104 274 225.491 271.261 220.615 266.385C215.739 261.509 213 254.896 213 248" stroke="#3E97D5" stroke-width="8"/>
<path d="M177 274C177 280.896 174.261 287.509 169.385 292.385C164.509 297.261 157.896 300 151 300C144.104 300 137.491 297.261 132.615 292.385C127.739 287.509 125 280.896 125 274" stroke="#3E97D5" stroke-width="8"/>
<path d="M239 198C239 204.896 236.261 211.509 231.385 216.385C226.509 221.261 219.896 224 213 224C206.104 224 199.491 221.261 194.615 216.385C189.739 211.509 187 204.896 187 198" stroke="#3E97D5" stroke-width="8"/>
<path d="M229 406C222.104 406 215.491 403.261 210.615 398.385C205.739 393.509 203 386.896 203 380" stroke="#3E97D5" stroke-width="8"/>
<path d="M101 400C101 404.243 99.3143 408.313 96.3137 411.314C93.3131 414.314 89.2435 416 85 416C80.7565 416 76.6869 414.314 73.6863 411.314C70.6857 408.313 69 404.243 69 400" stroke="#3E97D5" stroke-width="8"/>
<path d="M147 337C147 341.243 145.314 345.313 142.314 348.314C139.313 351.314 135.243 353 131 353C126.757 353 122.687 351.314 119.686 348.314C116.686 345.313 115 341.243 115 337" stroke="#3E97D5" stroke-width="8"/>
<path d="M193 248C193 252.243 191.314 256.313 188.314 259.314C185.313 262.314 181.243 264 177 264C172.757 264 168.687 262.314 165.686 259.314C162.686 256.313 161 252.243 161 248" stroke="#3E97D5" stroke-width="8"/>
<path d="M281 146C281 150.243 279.314 154.313 276.314 157.314C273.313 160.314 269.243 162 265 162C260.757 162 256.687 160.314 253.686 157.314C250.686 154.313 249 150.243 249 146" stroke="#3E97D5" stroke-width="8"/>
<path d="M205 544C202.899 544 200.818 543.586 198.877 542.782C196.936 541.978 195.172 540.799 193.686 539.314C192.201 537.828 191.022 536.064 190.218 534.123C189.414 532.182 189 530.101 189 528" stroke="#3E97D5" stroke-width="8"/>
<path d="M229 496C233.728 496 238.409 496.931 242.777 498.74C247.144 500.55 251.113 503.201 254.456 506.544C257.799 509.887 260.45 513.856 262.26 518.223C264.069 522.591 265 527.272 265 532" stroke="#3E97D5" stroke-width="8"/>
<path d="M229 332C233.728 332 238.409 332.931 242.777 334.74C247.144 336.55 251.113 339.201 254.456 342.544C257.799 345.887 260.45 349.856 262.26 354.223C264.069 358.591 265 363.272 265 368" stroke="#3E97D5" stroke-width="8"/>
<path d="M229 406C233.728 406 238.409 406.931 242.777 408.74C247.144 410.55 251.113 413.201 254.456 416.544C257.799 419.887 260.45 423.856 262.26 428.223C264.069 432.591 265 437.272 265 442" stroke="#3E97D5" stroke-width="8"/>
<path d="M229 544C233.728 544 238.409 544.931 242.777 546.74C247.144 548.55 251.113 551.201 254.456 554.544C257.799 557.887 260.45 561.856 262.26 566.223C264.069 570.591 265 575.272 265 580" stroke="#3E97D5" stroke-width="8"/>
<circle cx="301" cy="656" r="4" fill="#3E97D5"/>
<circle cx="229" cy="656" r="4" fill="#3E97D5"/>
<path d="M229 656H301" stroke="#3E97D5" stroke-width="8"/>
<line x1="157" y1="496" x2="229" y2="496" stroke="#3E97D5" stroke-width="8"/>
<line x1="205" y1="544" x2="229" y2="544" stroke="#3E97D5" stroke-width="8"/>
<line x1="187" y1="332" x2="229" y2="332" stroke="#3E97D5" stroke-width="8"/>
<line y1="-4" x2="56" y2="-4" transform="matrix(4.37114e-08 -1 -1 -4.37114e-08 369 456)" stroke="#3E97D5" stroke-width="8"/>
<line x1="317" y1="232" x2="317" y2="200" stroke="#3E97D5" stroke-width="8"/>
<line y1="-4" x2="14" y2="-4" transform="matrix(4.37114e-08 -1 -1 -4.37114e-08 349 298)" stroke="#3E97D5" stroke-width="8"/>
<line y1="-4" x2="16" y2="-4" transform="matrix(4.37114e-08 -1 -1 -4.37114e-08 441 456)" stroke="#3E97D5" stroke-width="8"/>
<path d="M373 524C377.728 524 382.409 523.069 386.777 521.26C391.144 519.45 395.113 516.799 398.456 513.456C401.799 510.113 404.45 506.144 406.26 501.777C408.069 497.409 409 492.728 409 488" stroke="#3E97D5" stroke-width="8"/>
<path d="M373 456C373 465.548 376.793 474.705 383.544 481.456C390.295 488.207 399.452 492 409 492C418.548 492 427.705 488.207 434.456 481.456C441.207 474.705 445 465.548 445 456" stroke="#3E97D5" stroke-width="8"/>
<path d="M343 356C352.548 356 361.705 352.207 368.456 345.456C375.207 338.705 379 329.548 379 320" stroke="#3E97D5" stroke-width="8"/>
<path d="M347 378C347 384.896 349.739 391.509 354.615 396.385C359.491 401.261 366.104 404 373 404C379.896 404 386.509 401.261 391.385 396.385C396.261 391.509 399 384.896 399 378" stroke="#3E97D5" stroke-width="8"/>
<path d="M265 284C265 280.586 265.673 277.205 266.979 274.05C268.286 270.896 270.201 268.03 272.615 265.615C275.03 263.201 277.896 261.286 281.05 259.979C284.205 258.673 287.586 258 291 258" stroke="#3E97D5" stroke-width="8"/>
<path d="M291 258C297.896 258 304.509 255.261 309.385 250.385C314.261 245.509 317 238.896 317 232" stroke="#3E97D5" stroke-width="8"/>
<path d="M353 298C353 304.896 355.739 311.509 360.615 316.385C365.491 321.261 372.104 324 379 324C385.896 324 392.509 321.261 397.385 316.385C402.261 311.509 405 304.896 405 298" stroke="#3E97D5" stroke-width="8"/>
<path d="M291 178C291 184.896 293.739 191.509 298.615 196.385C303.491 201.261 310.104 204 317 204C323.896 204 330.509 201.261 335.385 196.385C340.261 191.509 343 184.896 343 178" stroke="#3E97D5" stroke-width="8"/>
<path d="M301 458C307.896 458 314.509 455.261 319.385 450.385C324.261 445.509 327 438.896 327 432" stroke="#3E97D5" stroke-width="8"/>
<path d="M429 428C429 432.243 430.686 436.313 433.686 439.314C436.687 442.314 440.757 444 445 444C449.243 444 453.313 442.314 456.314 439.314C459.314 436.313 461 432.243 461 428" stroke="#3E97D5" stroke-width="8"/>
<path d="M383 365C383 369.243 384.686 373.313 387.686 376.314C390.687 379.314 394.757 381 399 381C403.243 381 407.313 379.314 410.314 376.314C413.314 373.313 415 369.243 415 365" stroke="#3E97D5" stroke-width="8"/>
<path d="M337 272C337 276.243 338.686 280.313 341.686 283.314C344.687 286.314 348.757 288 353 288C357.243 288 361.313 286.314 364.314 283.314C367.314 280.313 369 276.243 369 272" stroke="#3E97D5" stroke-width="8"/>
<path d="M301 524C296.272 524 291.591 524.931 287.223 526.74C282.856 528.55 278.887 531.201 275.544 534.544C272.201 537.887 269.55 541.856 267.74 546.223C265.931 550.591 265 555.272 265 560" stroke="#3E97D5" stroke-width="8"/>
<path d="M301 356C296.272 356 291.591 356.931 287.223 358.74C282.856 360.55 278.887 363.201 275.544 366.544C272.201 369.887 269.55 373.856 267.74 378.223C265.931 382.591 265 387.272 265 392" stroke="#3E97D5" stroke-width="8"/>
<path d="M301 458C296.272 458 291.591 458.931 287.223 460.74C282.856 462.55 278.887 465.201 275.544 468.544C272.201 471.887 269.55 475.856 267.74 480.223C265.931 484.591 265 489.272 265 494" stroke="#3E97D5" stroke-width="8"/>
<line y1="-4" x2="72" y2="-4" transform="matrix(-1 0 0 1 373 528)" stroke="#3E97D5" stroke-width="8"/>
<line y1="-4" x2="42" y2="-4" transform="matrix(-1 8.74228e-08 8.74228e-08 1 343 360)" stroke="#3E97D5" stroke-width="8"/>
<circle cx="69" cy="400" r="4" fill="#3E97D5"/>
<circle cx="101" cy="400" r="4" fill="#3E97D5"/>
<circle cx="115" cy="337" r="4" fill="#3E97D5"/>
<circle cx="125" cy="274" r="4" fill="#3E97D5"/>
<circle cx="161" cy="248" r="4" fill="#3E97D5"/>
<circle cx="193" cy="248" r="4" fill="#3E97D5"/>
<circle cx="187" cy="198" r="4" fill="#3E97D5"/>
<circle cx="239" cy="198" r="4" fill="#3E97D5"/>
<circle cx="249" cy="146" r="4" fill="#3E97D5"/>
<circle cx="281" cy="146" r="4" fill="#3E97D5"/>
<circle cx="291" cy="178" r="4" fill="#3E97D5"/>
<circle cx="343" cy="178" r="4" fill="#3E97D5"/>
<circle cx="369" cy="272" r="4" fill="#3E97D5"/>
<circle cx="405" cy="298" r="4" fill="#3E97D5"/>
<circle cx="383" cy="365" r="4" fill="#3E97D5"/>
<circle cx="415" cy="365" r="4" fill="#3E97D5"/>
<circle cx="347" cy="378" r="4" fill="#3E97D5"/>
<circle cx="429" cy="428" r="4" fill="#3E97D5"/>
<circle cx="327" cy="432" r="4" fill="#3E97D5"/>
<circle cx="189" cy="528" r="4" fill="#3E97D5"/>
<circle cx="461" cy="428" r="4" fill="#3E97D5"/>
<circle cx="337" cy="272" r="4" fill="#3E97D5"/>
<circle cx="183" cy="350" r="4" fill="#3E97D5"/>
<circle cx="203" cy="380" r="4" fill="#3E97D5"/>
<circle cx="147" cy="337" r="4" fill="#3E97D5"/>
</g>
<defs>
<filter id="filter0_d_833_50" x="-129" y="173" width="398" height="475" filterUnits="userSpaceOnUse" color-interpolation-filters="sRGB">
<feFlood flood-opacity="0" result="BackgroundImageFix"/>
<feColorMatrix in="SourceAlpha" type="matrix" values="0 0 0 0 0 0 0 0 0 0 0 0 0 0 0 0 0 0 127 0" result="hardAlpha"/>
<feOffset dy="4"/>
<feGaussianBlur stdDeviation="2"/>
<feComposite in2="hardAlpha" operator="out"/>
<feColorMatrix type="matrix" values="0 0 0 0 0 0 0 0 0 0 0 0 0 0 0 0 0 0 0.25 0"/>
<feBlend mode="normal" in2="BackgroundImageFix" result="effect1_dropShadow_833_50"/>
<feBlend mode="normal" in="SourceGraphic" in2="effect1_dropShadow_833_50" result="shape"/>
</filter>
<filter id="filter1_d_833_50" x="41" y="52" width="448" height="616" filterUnits="userSpaceOnUse" color-interpolation-filters="sRGB">
<feFlood flood-opacity="0" result="BackgroundImageFix"/>
<feColorMatrix in="SourceAlpha" type="matrix" values="0 0 0 0 0 0 0 0 0 0 0 0 0 0 0 0 0 0 127 0" result="hardAlpha"/>
<feOffset dy="4"/>
<feGaussianBlur stdDeviation="2"/>
<feComposite in2="hardAlpha" operator="out"/>
<feColorMatrix type="matrix" values="0 0 0 0 0 0 0 0 0 0 0 0 0 0 0 0 0 0 0.25 0"/>
<feBlend mode="normal" in2="BackgroundImageFix" result="effect1_dropShadow_833_50"/>
<feBlend mode="normal" in="SourceGraphic" in2="effect1_dropShadow_833_50" result="shape"/>
</filter>
</defs>
</svg>
