<svg width="1920" height="640" viewBox="0 0 1920 640" fill="none" xmlns="http://www.w3.org/2000/svg">
<g filter="url(#filter0_d_783_56)">
<circle cx="1396" cy="399" r="128" fill="#D0F1FC"/>
<circle cx="1396" cy="297" r="77" fill="#DFF7FF"/>
<line x1="1376" y1="561" x2="1416" y2="561" stroke="#96C0DF" stroke-width="8"/>
<line x1="1356" y1="469" x2="1380" y2="469" stroke="#96C0DF" stroke-width="8"/>
<line x1="1412" y1="489" x2="1436" y2="489" stroke="#96C0DF" stroke-width="8"/>
<line x1="1356" y1="497" x2="1380" y2="497" stroke="#96C0DF" stroke-width="8"/>
<line x1="1396" y1="345" x2="1396" y2="546" stroke="#96C0DF" stroke-width="8"/>
<circle cx="1376" cy="561" r="4" fill="#96C0DF"/>
<circle cx="1340" cy="481" r="4" fill="#96C0DF"/>
<circle cx="1294" cy="409" r="4" fill="#96C0DF"/>
<circle cx="1330" cy="397" r="4" fill="#96C0DF"/>
<circle cx="1362" cy="397" r="4" fill="#96C0DF"/>
<circle cx="1338" cy="347" r="4" fill="#96C0DF"/>
<circle cx="1370" cy="347" r="4" fill="#96C0DF"/>
<circle cx="1438" cy="311" r="4" fill="#96C0DF"/>
<circle cx="1454" cy="390" r="4" fill="#96C0DF"/>
<circle cx="1406" cy="311" r="4" fill="#96C0DF"/>
<circle cx="1422" cy="390" r="4" fill="#96C0DF"/>
<circle cx="1446" cy="431" r="4" fill="#96C0DF"/>
<circle cx="1498" cy="431" r="4" fill="#96C0DF"/>
<circle cx="1416" cy="561" r="4" fill="#96C0DF"/>
<path d="M1412 561C1409.9 561 1407.82 560.586 1405.88 559.782C1403.94 558.978 1402.17 557.799 1400.69 556.314C1399.2 554.828 1398.02 553.064 1397.22 551.123C1396.41 549.182 1396 547.101 1396 545" stroke="#96C0DF" stroke-width="8"/>
<path d="M1362 397C1362 401.243 1360.31 405.313 1357.31 408.314C1354.31 411.314 1350.24 413 1346 413C1341.76 413 1337.69 411.314 1334.69 408.314C1331.69 405.313 1330 401.243 1330 397" stroke="#96C0DF" stroke-width="8"/>
<path d="M1356 497C1351.76 497 1347.69 495.314 1344.69 492.314C1341.69 489.313 1340 485.243 1340 481" stroke="#96C0DF" stroke-width="8"/>
<path d="M1454 390C1454 394.243 1452.31 398.313 1449.31 401.314C1446.31 404.314 1442.24 406 1438 406C1433.76 406 1429.69 404.314 1426.69 401.314C1423.69 398.313 1422 394.243 1422 390" stroke="#96C0DF" stroke-width="8"/>
<path d="M1438 311C1438 315.243 1436.31 319.313 1433.31 322.314C1430.31 325.314 1426.24 327 1422 327C1417.76 327 1413.69 325.314 1410.69 322.314C1407.69 319.313 1406 315.243 1406 311" stroke="#96C0DF" stroke-width="8"/>
<path d="M1370 347C1370 351.243 1368.31 355.313 1365.31 358.314C1362.31 361.314 1358.24 363 1354 363C1349.76 363 1345.69 361.314 1342.69 358.314C1339.69 355.313 1338 351.243 1338 347" stroke="#96C0DF" stroke-width="8"/>
<path d="M1396 505C1396 502.899 1396.41 500.818 1397.22 498.877C1398.02 496.936 1399.2 495.172 1400.69 493.686C1402.17 492.201 1403.94 491.022 1405.88 490.218C1407.82 489.414 1409.9 489 1412 489" stroke="#96C0DF" stroke-width="8"/>
<path d="M1396 513C1396 510.899 1395.59 508.818 1394.78 506.877C1393.98 504.936 1392.8 503.172 1391.31 501.686C1389.83 500.201 1388.06 499.022 1386.12 498.218C1384.18 497.414 1382.1 497 1380 497" stroke="#96C0DF" stroke-width="8"/>
<path d="M1396 445C1396 442.899 1396.41 440.818 1397.22 438.877C1398.02 436.936 1399.2 435.172 1400.69 433.686C1402.17 432.201 1403.94 431.022 1405.88 430.218C1407.82 429.414 1409.9 429 1412 429" stroke="#96C0DF" stroke-width="8"/>
<path d="M1346 409C1346 415.896 1343.26 422.509 1338.38 427.385C1333.51 432.261 1326.9 435 1320 435C1313.1 435 1306.49 432.261 1301.62 427.385C1296.74 422.509 1294 415.896 1294 409" stroke="#96C0DF" stroke-width="8"/>
<path d="M1498 431C1498 437.896 1495.26 444.509 1490.38 449.385C1485.51 454.261 1478.9 457 1472 457C1465.1 457 1458.49 454.261 1453.62 449.385C1448.74 444.509 1446 437.896 1446 431" stroke="#96C0DF" stroke-width="8"/>
<path d="M1422 323C1422 326.414 1421.33 329.795 1420.02 332.95C1418.71 336.104 1416.8 338.97 1414.38 341.385C1411.97 343.799 1409.1 345.714 1405.95 347.021C1402.8 348.327 1399.41 349 1396 349" stroke="#96C0DF" stroke-width="8"/>
<path d="M1380 469C1382.1 469 1384.18 469.414 1386.12 470.218C1388.06 471.022 1389.83 472.201 1391.31 473.686C1392.8 475.172 1393.98 476.936 1394.78 478.877C1395.59 480.818 1396 482.899 1396 485" stroke="#96C0DF" stroke-width="8"/>
<path d="M1380 387C1382.1 387 1384.18 387.414 1386.12 388.218C1388.06 389.022 1389.83 390.201 1391.31 391.686C1392.8 393.172 1393.98 394.936 1394.78 396.877C1395.59 398.818 1396 400.899 1396 403" stroke="#96C0DF" stroke-width="8"/>
<path d="M1356 469C1351.27 469 1346.59 468.069 1342.22 466.26C1337.86 464.45 1333.89 461.799 1330.54 458.456C1327.2 455.113 1324.55 451.144 1322.74 446.777C1320.93 442.409 1320 437.728 1320 433" stroke="#96C0DF" stroke-width="8"/>
<path d="M1472 453C1472 457.728 1471.07 462.409 1469.26 466.777C1467.45 471.144 1464.8 475.113 1461.46 478.456C1458.11 481.799 1454.14 484.45 1449.78 486.26C1445.41 488.069 1440.73 489 1436 489" stroke="#96C0DF" stroke-width="8"/>
<path d="M1438 403C1438 406.414 1437.33 409.795 1436.02 412.95C1434.71 416.104 1432.8 418.97 1430.38 421.385C1427.97 423.799 1425.1 425.714 1421.95 427.021C1418.8 428.327 1415.41 429 1412 429" stroke="#96C0DF" stroke-width="8"/>
<path d="M1354 361C1354 364.414 1354.67 367.795 1355.98 370.95C1357.29 374.104 1359.2 376.97 1361.62 379.385C1364.03 381.799 1366.9 383.714 1370.05 385.021C1373.2 386.327 1376.59 387 1380 387" stroke="#96C0DF" stroke-width="8"/>
</g>
<g filter="url(#filter1_d_783_56)">
<circle r="108" transform="matrix(-1 0 0 1 1820 388)" fill="#C4C4C4"/>
<path d="M2040 374C2040 302.203 1981.8 244 1910 244H1730C1658.2 244 1600 302.203 1600 374C1600 445.797 1658.2 504 1730 504H1910C1981.8 504 2040 445.797 2040 374Z" fill="#96C0DF"/>
<circle r="170" transform="matrix(-1 0 0 1 1820 206)" fill="#96C0DF"/>
<circle r="108" transform="matrix(-1 0 0 1 1820 420)" fill="#7AB0D7"/>
<line y1="-4" x2="460" y2="-4" transform="matrix(4.37114e-08 -1 -1 -4.37114e-08 1816 564)" stroke="#376EA7" stroke-width="8"/>
<line y1="-4" x2="28" y2="-4" transform="matrix(4.37114e-08 -1 -1 -4.37114e-08 1868 192)" stroke="#376EA7" stroke-width="8"/>
<line y1="-4" x2="14" y2="-4" transform="matrix(4.37114e-08 -1 -1 -4.37114e-08 1904 218)" stroke="#376EA7" stroke-width="8"/>
<path d="M1784 600C1788.73 600 1793.41 599.069 1797.78 597.26C1802.14 595.45 1806.11 592.799 1809.46 589.456C1812.8 586.113 1815.45 582.144 1817.26 577.777C1819.07 573.409 1820 568.728 1820 564" stroke="#376EA7" stroke-width="8"/>
<path d="M1898 276C1907.55 276 1916.7 272.207 1923.46 265.456C1930.21 258.705 1934 249.548 1934 240" stroke="#376EA7" stroke-width="8"/>
<path d="M1902 294C1902 300.896 1904.74 307.509 1909.62 312.385C1914.49 317.261 1921.1 320 1928 320C1934.9 320 1941.51 317.261 1946.38 312.385C1951.26 307.509 1954 300.896 1954 294" stroke="#376EA7" stroke-width="8"/>
<path d="M1820 244C1820 240.586 1820.67 237.205 1821.98 234.05C1823.29 230.896 1825.2 228.03 1827.62 225.615C1830.03 223.201 1832.9 221.286 1836.05 219.979C1839.2 218.673 1842.59 218 1846 218" stroke="#376EA7" stroke-width="8"/>
<path d="M1846 218C1852.9 218 1859.51 215.261 1864.38 210.385C1869.26 205.509 1872 198.896 1872 192" stroke="#376EA7" stroke-width="8"/>
<path d="M1908 218C1908 224.896 1910.74 231.509 1915.62 236.385C1920.49 241.261 1927.1 244 1934 244C1940.9 244 1947.51 241.261 1952.38 236.385C1957.26 231.509 1960 224.896 1960 218" stroke="#376EA7" stroke-width="8"/>
<path d="M1846 142C1846 148.896 1848.74 155.509 1853.62 160.385C1858.49 165.261 1865.1 168 1872 168C1878.9 168 1885.51 165.261 1890.38 160.385C1895.26 155.509 1898 148.896 1898 142" stroke="#376EA7" stroke-width="8"/>
<path d="M1856 350C1862.9 350 1869.51 347.261 1874.38 342.385C1879.26 337.509 1882 330.896 1882 324" stroke="#376EA7" stroke-width="8"/>
<path d="M1892 192C1892 196.243 1893.69 200.313 1896.69 203.314C1899.69 206.314 1903.76 208 1908 208C1912.24 208 1916.31 206.314 1919.31 203.314C1922.31 200.313 1924 196.243 1924 192" stroke="#376EA7" stroke-width="8"/>
<path d="M1804 90C1804 94.2435 1805.69 98.3131 1808.69 101.314C1811.69 104.314 1815.76 106 1820 106C1824.24 106 1828.31 104.314 1831.31 101.314C1834.31 98.3131 1836 94.2435 1836 90" stroke="#376EA7" stroke-width="8"/>
<path d="M1880 488C1882.1 488 1884.18 487.586 1886.12 486.782C1888.06 485.978 1889.83 484.799 1891.31 483.314C1892.8 481.828 1893.98 480.064 1894.78 478.123C1895.59 476.182 1896 474.101 1896 472" stroke="#376EA7" stroke-width="8"/>
<path d="M1856 440C1851.27 440 1846.59 440.931 1842.22 442.74C1837.86 444.55 1833.89 447.201 1830.54 450.544C1827.2 453.887 1824.55 457.856 1822.74 462.223C1820.93 466.591 1820 471.272 1820 476" stroke="#376EA7" stroke-width="8"/>
<path d="M1856 276C1851.27 276 1846.59 276.931 1842.22 278.74C1837.86 280.55 1833.89 283.201 1830.54 286.544C1827.2 289.887 1824.55 293.856 1822.74 298.223C1820.93 302.591 1820 307.272 1820 312" stroke="#376EA7" stroke-width="8"/>
<path d="M1856 350C1851.27 350 1846.59 350.931 1842.22 352.74C1837.86 354.55 1833.89 357.201 1830.54 360.544C1827.2 363.887 1824.55 367.856 1822.74 372.223C1820.93 376.591 1820 381.272 1820 386" stroke="#376EA7" stroke-width="8"/>
<path d="M1856 488C1851.27 488 1846.59 488.931 1842.22 490.74C1837.86 492.55 1833.89 495.201 1830.54 498.544C1827.2 501.887 1824.55 505.856 1822.74 510.223C1820.93 514.591 1820 519.272 1820 524" stroke="#376EA7" stroke-width="8"/>
<circle r="4" transform="matrix(-1 0 0 1 1784 600)" fill="#376EA7"/>
<circle r="4" transform="matrix(-1 0 0 1 1856 600)" fill="#376EA7"/>
<path d="M1856 600H1784" stroke="#376EA7" stroke-width="8"/>
<line y1="-4" x2="72" y2="-4" transform="matrix(-1 0 0 1 1928 444)" stroke="#376EA7" stroke-width="8"/>
<line y1="-4" x2="24" y2="-4" transform="matrix(-1 -8.74228e-08 -8.74228e-08 1 1880 492)" stroke="#376EA7" stroke-width="8"/>
<line y1="-4" x2="42" y2="-4" transform="matrix(-1 8.74228e-08 8.74228e-08 1 1898 280)" stroke="#376EA7" stroke-width="8"/>
<line x1="1712" y1="400" x2="1712" y2="344" stroke="#376EA7" stroke-width="8"/>
<line y1="-4" x2="32" y2="-4" transform="matrix(-4.37114e-08 -1 -1 4.37114e-08 1764 176)" stroke="#376EA7" stroke-width="8"/>
<line x1="1732" y1="242" x2="1732" y2="228" stroke="#376EA7" stroke-width="8"/>
<line x1="1640" y1="400" x2="1640" y2="384" stroke="#376EA7" stroke-width="8"/>
<path d="M1712 468C1707.27 468 1702.59 467.069 1698.22 465.26C1693.86 463.45 1689.89 460.799 1686.54 457.456C1683.2 454.113 1680.55 450.144 1678.74 445.777C1676.93 441.409 1676 436.728 1676 432" stroke="#376EA7" stroke-width="8"/>
<path d="M1712 400C1712 409.548 1708.21 418.705 1701.46 425.456C1694.7 432.207 1685.55 436 1676 436C1666.45 436 1657.3 432.207 1650.54 425.456C1643.79 418.705 1640 409.548 1640 400" stroke="#376EA7" stroke-width="8"/>
<path d="M1742 300C1732.45 300 1723.3 296.207 1716.54 289.456C1709.79 282.705 1706 273.548 1706 264" stroke="#376EA7" stroke-width="8"/>
<path d="M1738 322C1738 328.896 1735.26 335.509 1730.38 340.385C1725.51 345.261 1718.9 348 1712 348C1705.1 348 1698.49 345.261 1693.62 340.385C1688.74 335.509 1686 328.896 1686 322" stroke="#376EA7" stroke-width="8"/>
<path d="M1820 228C1820 224.586 1819.33 221.205 1818.02 218.05C1816.71 214.896 1814.8 212.03 1812.38 209.615C1809.97 207.201 1807.1 205.286 1803.95 203.979C1800.8 202.673 1797.41 202 1794 202" stroke="#376EA7" stroke-width="8"/>
<path d="M1794 202C1787.1 202 1780.49 199.261 1775.62 194.385C1770.74 189.509 1768 182.896 1768 176" stroke="#376EA7" stroke-width="8"/>
<path d="M1732 242C1732 248.896 1729.26 255.509 1724.38 260.385C1719.51 265.261 1712.9 268 1706 268C1699.1 268 1692.49 265.261 1687.62 260.385C1682.74 255.509 1680 248.896 1680 242" stroke="#376EA7" stroke-width="8"/>
<path d="M1794 122C1794 128.896 1791.26 135.509 1786.38 140.385C1781.51 145.261 1774.9 148 1768 148C1761.1 148 1754.49 145.261 1749.62 140.385C1744.74 135.509 1742 128.896 1742 122" stroke="#376EA7" stroke-width="8"/>
<path d="M1784 402C1777.1 402 1770.49 399.261 1765.62 394.385C1760.74 389.509 1758 382.896 1758 376" stroke="#376EA7" stroke-width="8"/>
<path d="M1656 372C1656 376.243 1654.31 380.313 1651.31 383.314C1648.31 386.314 1644.24 388 1640 388C1635.76 388 1631.69 386.314 1628.69 383.314C1625.69 380.313 1624 376.243 1624 372" stroke="#376EA7" stroke-width="8"/>
<path d="M1702 309C1702 313.243 1700.31 317.313 1697.31 320.314C1694.31 323.314 1690.24 325 1686 325C1681.76 325 1677.69 323.314 1674.69 320.314C1671.69 317.313 1670 313.243 1670 309" stroke="#376EA7" stroke-width="8"/>
<path d="M1748 216C1748 220.243 1746.31 224.313 1743.31 227.314C1740.31 230.314 1736.24 232 1732 232C1727.76 232 1723.69 230.314 1720.69 227.314C1717.69 224.313 1716 220.243 1716 216" stroke="#376EA7" stroke-width="8"/>
<path d="M1784 468C1788.73 468 1793.41 468.931 1797.78 470.74C1802.14 472.55 1806.11 475.201 1809.46 478.544C1812.8 481.887 1815.45 485.856 1817.26 490.223C1819.07 494.591 1820 499.272 1820 504" stroke="#376EA7" stroke-width="8"/>
<path d="M1784 300C1788.73 300 1793.41 300.931 1797.78 302.74C1802.14 304.55 1806.11 307.201 1809.46 310.544C1812.8 313.887 1815.45 317.856 1817.26 322.223C1819.07 326.591 1820 331.272 1820 336" stroke="#376EA7" stroke-width="8"/>
<path d="M1784 402C1788.73 402 1793.41 402.931 1797.78 404.74C1802.14 406.55 1806.11 409.201 1809.46 412.544C1812.8 415.887 1815.45 419.856 1817.26 424.223C1819.07 428.591 1820 433.272 1820 438" stroke="#376EA7" stroke-width="8"/>
<line x1="1712" y1="468" x2="1784" y2="468" stroke="#376EA7" stroke-width="8"/>
<line x1="1742" y1="300" x2="1784" y2="300" stroke="#376EA7" stroke-width="8"/>
<circle r="4" transform="matrix(-1 0 0 1 1892 192)" fill="#376EA7"/>
<circle r="4" transform="matrix(-1 0 0 1 1898 142)" fill="#376EA7"/>
<circle r="4" transform="matrix(-1 0 0 1 1846 142)" fill="#376EA7"/>
<circle r="4" transform="matrix(-1 0 0 1 1836 90)" fill="#376EA7"/>
<circle r="4" transform="matrix(-1 0 0 1 1804 90)" fill="#376EA7"/>
<circle r="4" transform="matrix(-1 0 0 1 1794 122)" fill="#376EA7"/>
<circle r="4" transform="matrix(-1 0 0 1 1742 122)" fill="#376EA7"/>
<circle r="4" transform="matrix(-1 0 0 1 1716 216)" fill="#376EA7"/>
<circle r="4" transform="matrix(-1 0 0 1 1680 242)" fill="#376EA7"/>
<circle r="4" transform="matrix(-1 0 0 1 1702 309)" fill="#376EA7"/>
<circle r="4" transform="matrix(-1 0 0 1 1670 309)" fill="#376EA7"/>
<circle r="4" transform="matrix(-1 0 0 1 1738 322)" fill="#376EA7"/>
<circle r="4" transform="matrix(-1 0 0 1 1656 372)" fill="#376EA7"/>
<circle r="4" transform="matrix(-1 0 0 1 1758 376)" fill="#376EA7"/>
<circle r="4" transform="matrix(-1 0 0 1 1896 472)" fill="#376EA7"/>
<circle r="4" transform="matrix(-1 0 0 1 1624 372)" fill="#376EA7"/>
<circle r="4" transform="matrix(-1 0 0 1 1748 216)" fill="#376EA7"/>
<circle r="4" transform="matrix(-1 0 0 1 1902 294)" fill="#376EA7"/>
<circle r="4" transform="matrix(-1 0 0 1 1882 324)" fill="#376EA7"/>
</g>
<g filter="url(#filter2_d_783_56)">
<circle cx="456" cy="399" r="128" fill="#D0F1FC"/>
<circle cx="528" cy="300" r="76" fill="#C1EBF9"/>
<line x1="436" y1="561" x2="476" y2="561" stroke="#96C0DF" stroke-width="8"/>
<line x1="416" y1="469" x2="440" y2="469" stroke="#96C0DF" stroke-width="8"/>
<line x1="472" y1="489" x2="496" y2="489" stroke="#96C0DF" stroke-width="8"/>
<line x1="416" y1="497" x2="440" y2="497" stroke="#96C0DF" stroke-width="8"/>
<line x1="456" y1="345" x2="456" y2="546" stroke="#96C0DF" stroke-width="8"/>
<circle cx="436" cy="561" r="4" fill="#96C0DF"/>
<circle cx="400" cy="481" r="4" fill="#96C0DF"/>
<circle cx="354" cy="409" r="4" fill="#96C0DF"/>
<circle cx="390" cy="397" r="4" fill="#96C0DF"/>
<circle cx="422" cy="397" r="4" fill="#96C0DF"/>
<circle cx="398" cy="347" r="4" fill="#96C0DF"/>
<circle cx="430" cy="347" r="4" fill="#96C0DF"/>
<circle cx="498" cy="311" r="4" fill="#96C0DF"/>
<circle cx="514" cy="390" r="4" fill="#96C0DF"/>
<circle cx="466" cy="311" r="4" fill="#96C0DF"/>
<circle cx="482" cy="390" r="4" fill="#96C0DF"/>
<circle cx="506" cy="431" r="4" fill="#96C0DF"/>
<circle cx="558" cy="431" r="4" fill="#96C0DF"/>
<circle cx="476" cy="561" r="4" fill="#96C0DF"/>
<path d="M472 561C469.899 561 467.818 560.586 465.877 559.782C463.936 558.978 462.172 557.799 460.686 556.314C459.201 554.828 458.022 553.064 457.218 551.123C456.414 549.182 456 547.101 456 545" stroke="#96C0DF" stroke-width="8"/>
<path d="M422 397C422 401.243 420.314 405.313 417.314 408.314C414.313 411.314 410.243 413 406 413C401.757 413 397.687 411.314 394.686 408.314C391.686 405.313 390 401.243 390 397" stroke="#96C0DF" stroke-width="8"/>
<path d="M416 497C411.757 497 407.687 495.314 404.686 492.314C401.686 489.313 400 485.243 400 481" stroke="#96C0DF" stroke-width="8"/>
<path d="M514 390C514 394.243 512.314 398.313 509.314 401.314C506.313 404.314 502.243 406 498 406C493.757 406 489.687 404.314 486.686 401.314C483.686 398.313 482 394.243 482 390" stroke="#96C0DF" stroke-width="8"/>
<path d="M498 311C498 315.243 496.314 319.313 493.314 322.314C490.313 325.314 486.243 327 482 327C477.757 327 473.687 325.314 470.686 322.314C467.686 319.313 466 315.243 466 311" stroke="#96C0DF" stroke-width="8"/>
<path d="M430 347C430 351.243 428.314 355.313 425.314 358.314C422.313 361.314 418.243 363 414 363C409.757 363 405.687 361.314 402.686 358.314C399.686 355.313 398 351.243 398 347" stroke="#96C0DF" stroke-width="8"/>
<path d="M456 505C456 502.899 456.414 500.818 457.218 498.877C458.022 496.936 459.201 495.172 460.686 493.686C462.172 492.201 463.936 491.022 465.877 490.218C467.818 489.414 469.899 489 472 489" stroke="#96C0DF" stroke-width="8"/>
<path d="M456 513C456 510.899 455.586 508.818 454.782 506.877C453.978 504.936 452.799 503.172 451.314 501.686C449.828 500.201 448.064 499.022 446.123 498.218C444.182 497.414 442.101 497 440 497" stroke="#96C0DF" stroke-width="8"/>
<path d="M456 445C456 442.899 456.414 440.818 457.218 438.877C458.022 436.936 459.201 435.172 460.686 433.686C462.172 432.201 463.936 431.022 465.877 430.218C467.818 429.414 469.899 429 472 429" stroke="#96C0DF" stroke-width="8"/>
<path d="M406 409C406 415.896 403.261 422.509 398.385 427.385C393.509 432.261 386.896 435 380 435C373.104 435 366.491 432.261 361.615 427.385C356.739 422.509 354 415.896 354 409" stroke="#96C0DF" stroke-width="8"/>
<path d="M558 431C558 437.896 555.261 444.509 550.385 449.385C545.509 454.261 538.896 457 532 457C525.104 457 518.491 454.261 513.615 449.385C508.739 444.509 506 437.896 506 431" stroke="#96C0DF" stroke-width="8"/>
<path d="M482 323C482 326.414 481.327 329.795 480.021 332.95C478.714 336.104 476.799 338.97 474.385 341.385C471.97 343.799 469.104 345.714 465.95 347.021C462.795 348.327 459.414 349 456 349" stroke="#96C0DF" stroke-width="8"/>
<path d="M440 469C442.101 469 444.182 469.414 446.123 470.218C448.064 471.022 449.828 472.201 451.314 473.686C452.799 475.172 453.978 476.936 454.782 478.877C455.586 480.818 456 482.899 456 485" stroke="#96C0DF" stroke-width="8"/>
<path d="M440 387C442.101 387 444.182 387.414 446.123 388.218C448.064 389.022 449.828 390.201 451.314 391.686C452.799 393.172 453.978 394.936 454.782 396.877C455.586 398.818 456 400.899 456 403" stroke="#96C0DF" stroke-width="8"/>
<path d="M416 469C411.272 469 406.591 468.069 402.223 466.26C397.856 464.45 393.887 461.799 390.544 458.456C387.201 455.113 384.55 451.144 382.74 446.777C380.931 442.409 380 437.728 380 433" stroke="#96C0DF" stroke-width="8"/>
<path d="M532 453C532 457.728 531.069 462.409 529.26 466.777C527.45 471.144 524.799 475.113 521.456 478.456C518.113 481.799 514.144 484.45 509.777 486.26C505.409 488.069 500.728 489 496 489" stroke="#96C0DF" stroke-width="8"/>
<path d="M498 403C498 406.414 497.327 409.795 496.021 412.95C494.714 416.104 492.799 418.97 490.385 421.385C487.97 423.799 485.104 425.714 481.95 427.021C478.795 428.327 475.414 429 472 429" stroke="#96C0DF" stroke-width="8"/>
<path d="M414 361C414 364.414 414.673 367.795 415.979 370.95C417.286 374.104 419.201 376.97 421.615 379.385C424.03 381.799 426.896 383.714 430.05 385.021C433.205 386.327 436.586 387 440 387" stroke="#96C0DF" stroke-width="8"/>
</g>
<g filter="url(#filter3_d_783_56)">
<rect x="-100" y="184" width="360" height="360" rx="102" fill="#96C0DF"/>
<rect x="-130" y="137" width="204" height="204" rx="102" fill="#7AB0D7"/>
<line x1="80" y1="564" x2="80" y2="284" stroke="#376EA7" stroke-width="8"/>
<line x1="20" y1="508" x2="64" y2="508" stroke="#376EA7" stroke-width="8"/>
<line y1="-4" x2="44" y2="-4" transform="matrix(-1 0 0 1 140 472)" stroke="#376EA7" stroke-width="8"/>
<line x1="44" y1="600" x2="116" y2="600" stroke="#376EA7" stroke-width="8"/>
<line x1="95" y1="356" x2="120" y2="356" stroke="#376EA7" stroke-width="8"/>
<line y1="-4" x2="44" y2="-4" transform="matrix(-1 0 0 1 140 532)" stroke="#376EA7" stroke-width="8"/>
<line x1="40" y1="396" x2="64" y2="396" stroke="#376EA7" stroke-width="8"/>
<line x1="212" y1="400" x2="212" y2="381" stroke="#376EA7" stroke-width="8"/>
<line y1="-4" x2="19" y2="-4" transform="matrix(4.37114e-08 -1 -1 -4.37114e-08 26 336)" stroke="#376EA7" stroke-width="8"/>
<line x1="54" y1="248" x2="54" y2="261" stroke="#376EA7" stroke-width="8"/>
<path d="M44 600C48.7276 600 53.4089 599.069 57.7766 597.26C62.1443 595.45 66.1129 592.799 69.4558 589.456C72.7988 586.113 75.4505 582.144 77.2597 577.777C79.0688 573.409 80 568.728 80 564" stroke="#376EA7" stroke-width="8"/>
<path d="M-16 472C-16 476.728 -15.0688 481.409 -13.2597 485.777C-11.4505 490.144 -8.79875 494.113 -5.45584 497.456C-2.11293 500.799 1.85568 503.45 6.2234 505.26C10.5911 507.069 15.2724 508 20 508" stroke="#376EA7" stroke-width="8"/>
<path d="M176 432C176 436.728 175.069 441.409 173.26 445.777C171.45 450.144 168.799 454.113 165.456 457.456C162.113 460.799 158.144 463.45 153.777 465.26C149.409 467.069 144.728 468 140 468" stroke="#376EA7" stroke-width="8"/>
<path d="M156 320C156 324.728 155.069 329.409 153.26 333.777C151.45 338.144 148.799 342.113 145.456 345.456C142.113 348.799 138.144 351.45 133.777 353.26C129.409 355.069 124.728 356 120 356" stroke="#376EA7" stroke-width="8"/>
<path d="M4 360C4 364.728 4.93117 369.409 6.74034 373.777C8.54951 378.144 11.2012 382.113 14.5442 385.456C17.8871 388.799 21.8557 391.45 26.2234 393.26C30.5911 395.069 35.2724 396 40 396" stroke="#376EA7" stroke-width="8"/>
<path d="M20 440C20 444.728 19.0688 449.409 17.2597 453.777C15.4505 458.144 12.7988 462.113 9.45585 465.456C6.11294 468.799 2.14433 471.45 -2.2234 473.26C-6.59112 475.069 -11.2724 476 -16 476C-20.7276 476 -25.4089 475.069 -29.7766 473.26C-34.1443 471.45 -38.1129 468.799 -41.4558 465.456C-44.7988 462.113 -47.4505 458.144 -49.2597 453.777C-51.0688 449.409 -52 444.728 -52 440" stroke="#376EA7" stroke-width="8"/>
<path d="M140 400C140 404.728 140.931 409.409 142.74 413.777C144.55 418.144 147.201 422.113 150.544 425.456C153.887 428.799 157.856 431.45 162.223 433.26C166.591 435.069 171.272 436 176 436C180.728 436 185.409 435.069 189.777 433.26C194.144 431.45 198.113 428.799 201.456 425.456C204.799 422.113 207.45 418.144 209.26 413.777C211.069 409.409 212 404.728 212 400" stroke="#376EA7" stroke-width="8"/>
<path d="M30 336C30 339.414 29.3275 342.795 28.0209 345.95C26.7142 349.104 24.7991 351.97 22.3848 354.385C19.9705 356.799 17.1042 358.714 13.9498 360.021C10.7953 361.327 7.41437 362 4 362C0.585632 362 -2.7953 361.327 -5.94977 360.021C-9.10423 358.714 -11.9705 356.799 -14.3848 354.385C-16.7991 351.97 -18.7142 349.104 -20.0209 345.95C-21.3275 342.795 -22 339.414 -22 336" stroke="#376EA7" stroke-width="8"/>
<path d="M106 261C106 264.414 105.327 267.795 104.021 270.95C102.714 274.104 100.799 276.97 98.3848 279.385C95.9705 281.799 93.1042 283.714 89.9498 285.021C86.7953 286.327 83.4144 287 80 287C76.5856 287 73.2047 286.327 70.0502 285.021C66.8958 283.714 64.0295 281.799 61.6152 279.385C59.2009 276.97 57.2858 274.104 55.9791 270.95C54.6725 267.795 54 264.414 54 261" stroke="#376EA7" stroke-width="8"/>
<path d="M36 424C36 426.101 35.5861 428.182 34.7821 430.123C33.978 432.064 32.7994 433.828 31.3137 435.314C29.828 436.799 28.0641 437.978 26.1229 438.782C24.1817 439.586 22.1012 440 20 440C17.8989 440 15.8183 439.586 13.8771 438.782C11.9359 437.978 10.172 436.799 8.68629 435.314C7.20055 433.828 6.022 432.064 5.21793 430.123C4.41385 428.182 4 426.101 4 424" stroke="#376EA7" stroke-width="8"/>
<path d="M196 364C196 366.101 196.414 368.182 197.218 370.123C198.022 372.064 199.201 373.828 200.686 375.314C202.172 376.799 203.936 377.978 205.877 378.782C207.818 379.586 209.899 380 212 380C214.101 380 216.182 379.586 218.123 378.782C220.064 377.978 221.828 376.799 223.314 375.314C224.799 373.828 225.978 372.064 226.782 370.123C227.586 368.182 228 366.101 228 364" stroke="#376EA7" stroke-width="8"/>
<path d="M140 304C140 306.101 140.414 308.182 141.218 310.123C142.022 312.064 143.201 313.828 144.686 315.314C146.172 316.799 147.936 317.978 149.877 318.782C151.818 319.586 153.899 320 156 320C158.101 320 160.182 319.586 162.123 318.782C164.064 317.978 165.828 316.799 167.314 315.314C168.799 313.828 169.978 312.064 170.782 310.123C171.586 308.182 172 306.101 172 304" stroke="#376EA7" stroke-width="8"/>
<path d="M156 512C156 514.101 155.586 516.182 154.782 518.123C153.978 520.064 152.799 521.828 151.314 523.314C149.828 524.799 148.064 525.978 146.123 526.782C144.182 527.586 142.101 528 140 528" stroke="#376EA7" stroke-width="8"/>
<path d="M124 384C124 386.101 124.414 388.182 125.218 390.123C126.022 392.064 127.201 393.828 128.686 395.314C130.172 396.799 131.936 397.978 133.877 398.782C135.818 399.586 137.899 400 140 400C142.101 400 144.182 399.586 146.123 398.782C148.064 397.978 149.828 396.799 151.314 395.314C152.799 393.828 153.978 392.064 154.782 390.123C155.586 388.182 156 386.101 156 384" stroke="#376EA7" stroke-width="8"/>
<path d="M140 496C140 498.101 140.414 500.182 141.218 502.123C142.022 504.064 143.201 505.828 144.686 507.314C146.172 508.799 147.936 509.978 149.877 510.782C151.818 511.586 153.899 512 156 512C158.101 512 160.182 511.586 162.123 510.782C164.064 509.978 165.828 508.799 167.314 507.314C168.799 505.828 169.978 504.064 170.782 502.123C171.586 500.182 172 498.101 172 496" stroke="#376EA7" stroke-width="8"/>
<path d="M46 301C46 303.101 45.5861 305.182 44.7821 307.123C43.978 309.064 42.7994 310.828 41.3137 312.314C39.828 313.799 38.0641 314.978 36.1229 315.782C34.1817 316.586 32.1012 317 30 317C27.8989 317 25.8183 316.586 23.8771 315.782C21.9359 314.978 20.172 313.799 18.6863 312.314C17.2006 310.828 16.022 309.064 15.2179 307.123C14.4139 305.182 14 303.101 14 301" stroke="#376EA7" stroke-width="8"/>
<path d="M70 233C70 235.101 69.5861 237.182 68.7821 239.123C67.978 241.064 66.7994 242.828 65.3137 244.314C63.828 245.799 62.0641 246.978 60.1229 247.782C58.1817 248.586 56.1012 249 54 249C51.8989 249 49.8183 248.586 47.8771 247.782C45.9359 246.978 44.172 245.799 42.6863 244.314C41.2006 242.828 40.022 241.064 39.2179 239.123C38.4139 237.182 38 235.101 38 233" stroke="#376EA7" stroke-width="8"/>
<path d="M80 524C80 521.899 79.5861 519.818 78.7821 517.877C77.978 515.936 76.7994 514.172 75.3137 512.686C73.828 511.201 72.0641 510.022 70.1229 509.218C68.1817 508.414 66.1011 508 64 508" stroke="#376EA7" stroke-width="8"/>
<path d="M80 484C80 481.899 80.4139 479.818 81.2179 477.877C82.022 475.936 83.2006 474.172 84.6863 472.686C86.172 471.201 87.9359 470.022 89.8771 469.218C91.8183 468.414 93.8989 468 96 468" stroke="#376EA7" stroke-width="8"/>
<path d="M80 412C80 409.899 79.5861 407.818 78.7821 405.877C77.978 403.936 76.7994 402.172 75.3137 400.686C73.828 399.201 72.0641 398.022 70.1229 397.218C68.1817 396.414 66.1011 396 64 396" stroke="#376EA7" stroke-width="8"/>
<path d="M80 372C80 369.899 80.4139 367.818 81.2179 365.877C82.022 363.936 83.2006 362.172 84.6863 360.686C86.172 359.201 87.9359 358.022 89.8771 357.218C91.8183 356.414 93.8989 356 96 356" stroke="#376EA7" stroke-width="8"/>
<path d="M80 544C80 541.899 80.4139 539.818 81.2179 537.877C82.022 535.936 83.2006 534.172 84.6863 532.686C86.172 531.201 87.9359 530.022 89.8771 529.218C91.8183 528.414 93.8989 528 96 528" stroke="#376EA7" stroke-width="8"/>
<circle cx="44" cy="600" r="4" fill="#376EA7"/>
<circle cx="116" cy="600" r="4" fill="#376EA7"/>
<circle cx="140" cy="496" r="4" fill="#376EA7"/>
<circle cx="20" cy="440" r="4" fill="#376EA7"/>
<circle cx="36" cy="424" r="4" fill="#376EA7"/>
<circle cx="14" cy="301" r="4" fill="#376EA7"/>
<circle cx="38" cy="233" r="4" fill="#376EA7"/>
<circle cx="70" cy="233" r="4" fill="#376EA7"/>
<circle cx="106" cy="261" r="4" fill="#376EA7"/>
<circle cx="140" cy="304" r="4" fill="#376EA7"/>
<circle cx="172" cy="304" r="4" fill="#376EA7"/>
<circle cx="156" cy="384" r="4" fill="#376EA7"/>
<circle cx="124" cy="384" r="4" fill="#376EA7"/>
<circle cx="196" cy="364" r="4" fill="#376EA7"/>
<circle cx="228" cy="364" r="4" fill="#376EA7"/>
<circle cx="46" cy="301" r="4" fill="#376EA7"/>
<circle cx="4" cy="424" r="4" fill="#376EA7"/>
<circle cx="172" cy="496" r="4" fill="#376EA7"/>
</g>
<g filter="url(#filter4_d_783_56)">
<circle cx="260" cy="408" r="108" fill="#C4C4C4"/>
<path d="M40 394C40 322.203 98.203 264 170 264H350C421.797 264 480 322.203 480 394C480 465.797 421.797 524 350 524H170C98.203 524 40 465.797 40 394Z" fill="#B1E2FD"/>
<circle cx="260" cy="226" r="170" fill="#B1E2FD"/>
<circle cx="196" cy="104" r="88" fill="#C4EAFF"/>
<circle cx="260" cy="440" r="108" fill="#B1E2FD"/>
<line x1="260" y1="584" x2="260" y2="124" stroke="#3E97D5" stroke-width="8"/>
<line x1="152" y1="392" x2="152" y2="336" stroke="#3E97D5" stroke-width="8"/>
<line x1="208" y1="212" x2="208" y2="184" stroke="#3E97D5" stroke-width="8"/>
<line x1="172" y1="238" x2="172" y2="224" stroke="#3E97D5" stroke-width="8"/>
<line x1="80" y1="394" x2="80" y2="378" stroke="#3E97D5" stroke-width="8"/>
<path d="M296 620C291.272 620 286.591 619.069 282.223 617.26C277.856 615.45 273.887 612.799 270.544 609.456C267.201 606.113 264.55 602.144 262.74 597.777C260.931 593.409 260 588.728 260 584" stroke="#3E97D5" stroke-width="8"/>
<path d="M152 460C147.272 460 142.591 459.069 138.223 457.26C133.856 455.45 129.887 452.799 126.544 449.456C123.201 446.113 120.55 442.144 118.74 437.777C116.931 433.409 116 428.728 116 424" stroke="#3E97D5" stroke-width="8"/>
<path d="M152 392C152 401.548 148.207 410.705 141.456 417.456C134.705 424.207 125.548 428 116 428C106.452 428 97.2955 424.207 90.5442 417.456C83.7928 410.705 80 401.548 80 392" stroke="#3E97D5" stroke-width="8"/>
<path d="M182 296C172.452 296 163.295 292.207 156.544 285.456C149.793 278.705 146 269.548 146 260" stroke="#3E97D5" stroke-width="8"/>
<path d="M178 314C178 320.896 175.261 327.509 170.385 332.385C165.509 337.261 158.896 340 152 340C145.104 340 138.491 337.261 133.615 332.385C128.739 327.509 126 320.896 126 314" stroke="#3E97D5" stroke-width="8"/>
<path d="M260 264C260 260.586 259.327 257.205 258.021 254.05C256.714 250.896 254.799 248.03 252.385 245.615C249.97 243.201 247.104 241.286 243.95 239.979C240.795 238.673 237.414 238 234 238" stroke="#3E97D5" stroke-width="8"/>
<path d="M234 238C227.104 238 220.491 235.261 215.615 230.385C210.739 225.509 208 218.896 208 212" stroke="#3E97D5" stroke-width="8"/>
<path d="M172 238C172 244.896 169.261 251.509 164.385 256.385C159.509 261.261 152.896 264 146 264C139.104 264 132.491 261.261 127.615 256.385C122.739 251.509 120 244.896 120 238" stroke="#3E97D5" stroke-width="8"/>
<path d="M234 162C234 168.896 231.261 175.509 226.385 180.385C221.509 185.261 214.896 188 208 188C201.104 188 194.491 185.261 189.615 180.385C184.739 175.509 182 168.896 182 162" stroke="#3E97D5" stroke-width="8"/>
<path d="M224 370C217.104 370 210.491 367.261 205.615 362.385C200.739 357.509 198 350.896 198 344" stroke="#3E97D5" stroke-width="8"/>
<path d="M96 364C96 368.243 94.3143 372.313 91.3137 375.314C88.3131 378.314 84.2435 380 80 380C75.7565 380 71.6869 378.314 68.6863 375.314C65.6857 372.313 64 368.243 64 364" stroke="#3E97D5" stroke-width="8"/>
<path d="M142 301C142 305.243 140.314 309.313 137.314 312.314C134.313 315.314 130.243 317 126 317C121.757 317 117.687 315.314 114.686 312.314C111.686 309.313 110 305.243 110 301" stroke="#3E97D5" stroke-width="8"/>
<path d="M188 212C188 216.243 186.314 220.313 183.314 223.314C180.313 226.314 176.243 228 172 228C167.757 228 163.687 226.314 160.686 223.314C157.686 220.313 156 216.243 156 212" stroke="#3E97D5" stroke-width="8"/>
<path d="M276 110C276 114.243 274.314 118.313 271.314 121.314C268.313 124.314 264.243 126 260 126C255.757 126 251.687 124.314 248.686 121.314C245.686 118.313 244 114.243 244 110" stroke="#3E97D5" stroke-width="8"/>
<path d="M200 508C197.899 508 195.818 507.586 193.877 506.782C191.936 505.978 190.172 504.799 188.686 503.314C187.201 501.828 186.022 500.064 185.218 498.123C184.414 496.182 184 494.101 184 492" stroke="#3E97D5" stroke-width="8"/>
<path d="M224 460C228.728 460 233.409 460.931 237.777 462.74C242.144 464.55 246.113 467.201 249.456 470.544C252.799 473.887 255.45 477.856 257.26 482.223C259.069 486.591 260 491.272 260 496" stroke="#3E97D5" stroke-width="8"/>
<path d="M224 296C228.728 296 233.409 296.931 237.777 298.74C242.144 300.55 246.113 303.201 249.456 306.544C252.799 309.887 255.45 313.856 257.26 318.223C259.069 322.591 260 327.272 260 332" stroke="#3E97D5" stroke-width="8"/>
<path d="M224 370C228.728 370 233.409 370.931 237.777 372.74C242.144 374.55 246.113 377.201 249.456 380.544C252.799 383.887 255.45 387.856 257.26 392.223C259.069 396.591 260 401.272 260 406" stroke="#3E97D5" stroke-width="8"/>
<path d="M224 508C228.728 508 233.409 508.931 237.777 510.74C242.144 512.55 246.113 515.201 249.456 518.544C252.799 521.887 255.45 525.856 257.26 530.223C259.069 534.591 260 539.272 260 544" stroke="#3E97D5" stroke-width="8"/>
<circle cx="296" cy="620" r="4" fill="#3E97D5"/>
<circle cx="224" cy="620" r="4" fill="#3E97D5"/>
<path d="M224 620H296" stroke="#3E97D5" stroke-width="8"/>
<line x1="152" y1="460" x2="224" y2="460" stroke="#3E97D5" stroke-width="8"/>
<line x1="200" y1="508" x2="224" y2="508" stroke="#3E97D5" stroke-width="8"/>
<line x1="182" y1="296" x2="224" y2="296" stroke="#3E97D5" stroke-width="8"/>
<line y1="-4" x2="56" y2="-4" transform="matrix(4.37114e-08 -1 -1 -4.37114e-08 364 420)" stroke="#3E97D5" stroke-width="8"/>
<line x1="312" y1="196" x2="312" y2="164" stroke="#3E97D5" stroke-width="8"/>
<line y1="-4" x2="14" y2="-4" transform="matrix(4.37114e-08 -1 -1 -4.37114e-08 344 262)" stroke="#3E97D5" stroke-width="8"/>
<line y1="-4" x2="16" y2="-4" transform="matrix(4.37114e-08 -1 -1 -4.37114e-08 436 420)" stroke="#3E97D5" stroke-width="8"/>
<path d="M368 488C372.728 488 377.409 487.069 381.777 485.26C386.144 483.45 390.113 480.799 393.456 477.456C396.799 474.113 399.45 470.144 401.26 465.777C403.069 461.409 404 456.728 404 452" stroke="#3E97D5" stroke-width="8"/>
<path d="M368 420C368 429.548 371.793 438.705 378.544 445.456C385.295 452.207 394.452 456 404 456C413.548 456 422.705 452.207 429.456 445.456C436.207 438.705 440 429.548 440 420" stroke="#3E97D5" stroke-width="8"/>
<path d="M338 320C347.548 320 356.705 316.207 363.456 309.456C370.207 302.705 374 293.548 374 284" stroke="#3E97D5" stroke-width="8"/>
<path d="M342 342C342 348.896 344.739 355.509 349.615 360.385C354.491 365.261 361.104 368 368 368C374.896 368 381.509 365.261 386.385 360.385C391.261 355.509 394 348.896 394 342" stroke="#3E97D5" stroke-width="8"/>
<path d="M260 248C260 244.586 260.673 241.205 261.979 238.05C263.286 234.896 265.201 232.03 267.615 229.615C270.03 227.201 272.896 225.286 276.05 223.979C279.205 222.673 282.586 222 286 222" stroke="#3E97D5" stroke-width="8"/>
<path d="M286 222C292.896 222 299.509 219.261 304.385 214.385C309.261 209.509 312 202.896 312 196" stroke="#3E97D5" stroke-width="8"/>
<path d="M348 262C348 268.896 350.739 275.509 355.615 280.385C360.491 285.261 367.104 288 374 288C380.896 288 387.509 285.261 392.385 280.385C397.261 275.509 400 268.896 400 262" stroke="#3E97D5" stroke-width="8"/>
<path d="M286 142C286 148.896 288.739 155.509 293.615 160.385C298.491 165.261 305.104 168 312 168C318.896 168 325.509 165.261 330.385 160.385C335.261 155.509 338 148.896 338 142" stroke="#3E97D5" stroke-width="8"/>
<path d="M296 422C302.896 422 309.509 419.261 314.385 414.385C319.261 409.509 322 402.896 322 396" stroke="#3E97D5" stroke-width="8"/>
<path d="M424 392C424 396.243 425.686 400.313 428.686 403.314C431.687 406.314 435.757 408 440 408C444.243 408 448.313 406.314 451.314 403.314C454.314 400.313 456 396.243 456 392" stroke="#3E97D5" stroke-width="8"/>
<path d="M378 329C378 333.243 379.686 337.313 382.686 340.314C385.687 343.314 389.757 345 394 345C398.243 345 402.313 343.314 405.314 340.314C408.314 337.313 410 333.243 410 329" stroke="#3E97D5" stroke-width="8"/>
<path d="M332 236C332 240.243 333.686 244.313 336.686 247.314C339.687 250.314 343.757 252 348 252C352.243 252 356.313 250.314 359.314 247.314C362.314 244.313 364 240.243 364 236" stroke="#3E97D5" stroke-width="8"/>
<path d="M296 488C291.272 488 286.591 488.931 282.223 490.74C277.856 492.55 273.887 495.201 270.544 498.544C267.201 501.887 264.55 505.856 262.74 510.223C260.931 514.591 260 519.272 260 524" stroke="#3E97D5" stroke-width="8"/>
<path d="M296 320C291.272 320 286.591 320.931 282.223 322.74C277.856 324.55 273.887 327.201 270.544 330.544C267.201 333.887 264.55 337.856 262.74 342.223C260.931 346.591 260 351.272 260 356" stroke="#3E97D5" stroke-width="8"/>
<path d="M296 422C291.272 422 286.591 422.931 282.223 424.74C277.856 426.55 273.887 429.201 270.544 432.544C267.201 435.887 264.55 439.856 262.74 444.223C260.931 448.591 260 453.272 260 458" stroke="#3E97D5" stroke-width="8"/>
<line y1="-4" x2="72" y2="-4" transform="matrix(-1 0 0 1 368 492)" stroke="#3E97D5" stroke-width="8"/>
<line y1="-4" x2="42" y2="-4" transform="matrix(-1 8.74228e-08 8.74228e-08 1 338 324)" stroke="#3E97D5" stroke-width="8"/>
<circle cx="64" cy="364" r="4" fill="#3E97D5"/>
<circle cx="96" cy="364" r="4" fill="#3E97D5"/>
<circle cx="110" cy="301" r="4" fill="#3E97D5"/>
<circle cx="120" cy="238" r="4" fill="#3E97D5"/>
<circle cx="156" cy="212" r="4" fill="#3E97D5"/>
<circle cx="188" cy="212" r="4" fill="#3E97D5"/>
<circle cx="182" cy="162" r="4" fill="#3E97D5"/>
<circle cx="234" cy="162" r="4" fill="#3E97D5"/>
<circle cx="244" cy="110" r="4" fill="#3E97D5"/>
<circle cx="276" cy="110" r="4" fill="#3E97D5"/>
<circle cx="286" cy="142" r="4" fill="#3E97D5"/>
<circle cx="338" cy="142" r="4" fill="#3E97D5"/>
<circle cx="364" cy="236" r="4" fill="#3E97D5"/>
<circle cx="400" cy="262" r="4" fill="#3E97D5"/>
<circle cx="378" cy="329" r="4" fill="#3E97D5"/>
<circle cx="410" cy="329" r="4" fill="#3E97D5"/>
<circle cx="342" cy="342" r="4" fill="#3E97D5"/>
<circle cx="424" cy="392" r="4" fill="#3E97D5"/>
<circle cx="322" cy="396" r="4" fill="#3E97D5"/>
<circle cx="184" cy="492" r="4" fill="#3E97D5"/>
<circle cx="456" cy="392" r="4" fill="#3E97D5"/>
<circle cx="332" cy="236" r="4" fill="#3E97D5"/>
<circle cx="178" cy="314" r="4" fill="#3E97D5"/>
<circle cx="198" cy="344" r="4" fill="#3E97D5"/>
<circle cx="142" cy="301" r="4" fill="#3E97D5"/>
</g>
<g filter="url(#filter5_d_783_56)">
<circle cx="960" cy="499" r="60" fill="#FFA47F"/>
<line x1="940" y1="588" x2="980" y2="588" stroke="#F96326" stroke-width="8"/>
<line x1="960" y1="532" x2="960" y2="572" stroke="#F96326" stroke-width="8"/>
<line x1="986" y1="487" x2="986" y2="510" stroke="#F96326" stroke-width="8"/>
<path d="M976 588C973.899 588 971.818 587.586 969.877 586.782C967.936 585.978 966.172 584.799 964.686 583.314C963.201 581.828 962.022 580.064 961.218 578.123C960.414 576.182 960 574.101 960 572" stroke="#F96326" stroke-width="8"/>
<path d="M950 498C950 502.243 948.314 506.313 945.314 509.314C942.313 512.314 938.243 514 934 514C929.757 514 925.687 512.314 922.686 509.314C919.686 506.313 918 502.243 918 498" stroke="#F96326" stroke-width="8"/>
<path d="M1002 474C1002 478.243 1000.31 482.313 997.314 485.314C994.313 488.314 990.243 490 986 490C981.757 490 977.687 488.314 974.686 485.314C971.686 482.313 970 478.243 970 474" stroke="#F96326" stroke-width="8"/>
<path d="M986 510C986 516.896 983.261 523.509 978.385 528.385C973.509 533.261 966.896 536 960 536C953.104 536 946.491 533.261 941.615 528.385C936.739 523.509 934 516.896 934 510" stroke="#F96326" stroke-width="8"/>
<circle cx="940" cy="588" r="4" fill="#F96326"/>
<circle cx="918" cy="498" r="4" fill="#F96326"/>
<circle cx="950" cy="498" r="4" fill="#F96326"/>
<circle cx="970" cy="474" r="4" fill="#F96326"/>
<circle cx="1002" cy="474" r="4" fill="#F96326"/>
<circle cx="980" cy="588" r="4" fill="#F96326"/>
</g>
<g filter="url(#filter6_d_783_56)">
<rect width="360" height="360" rx="102" transform="matrix(-1 0 0 1 1780 212)" fill="#B1E2FD"/>
<rect width="204" height="204" rx="102" transform="matrix(-1 0 0 1 1702 159)" fill="#C3EAFF"/>
<line y1="-4" x2="280" y2="-4" transform="matrix(4.37114e-08 -1 -1 -4.37114e-08 1596 592)" stroke="#3E97D5" stroke-width="8"/>
<line y1="-4" x2="44" y2="-4" transform="matrix(-1 0 0 1 1660 540)" stroke="#3E97D5" stroke-width="8"/>
<line x1="1540" y1="496" x2="1584" y2="496" stroke="#3E97D5" stroke-width="8"/>
<line y1="-4" x2="72" y2="-4" transform="matrix(-1 -8.74228e-08 -8.74228e-08 1 1636 632)" stroke="#3E97D5" stroke-width="8"/>
<line y1="-4" x2="25" y2="-4" transform="matrix(-1 -8.74228e-08 -8.74228e-08 1 1585 388)" stroke="#3E97D5" stroke-width="8"/>
<line x1="1540" y1="556" x2="1584" y2="556" stroke="#3E97D5" stroke-width="8"/>
<line y1="-4" x2="24" y2="-4" transform="matrix(-1 8.74228e-08 8.74228e-08 1 1640 428)" stroke="#3E97D5" stroke-width="8"/>
<line x1="1732" y1="468" x2="1732" y2="449" stroke="#3E97D5" stroke-width="8"/>
<line y1="-4" x2="19" y2="-4" transform="matrix(4.37114e-08 -1 -1 -4.37114e-08 1464 428)" stroke="#3E97D5" stroke-width="8"/>
<line x1="1650" y1="364" x2="1650" y2="345" stroke="#3E97D5" stroke-width="8"/>
<line y1="-4" x2="13" y2="-4" transform="matrix(4.37114e-08 1 1 -4.37114e-08 1630 276)" stroke="#3E97D5" stroke-width="8"/>
<path d="M1636 628C1631.27 628 1626.59 627.069 1622.22 625.26C1617.86 623.45 1613.89 620.799 1610.54 617.456C1607.2 614.113 1604.55 610.144 1602.74 605.777C1600.93 601.409 1600 596.728 1600 592" stroke="#3E97D5" stroke-width="8"/>
<path d="M1696 500C1696 504.728 1695.07 509.409 1693.26 513.777C1691.45 518.144 1688.8 522.113 1685.46 525.456C1682.11 528.799 1678.14 531.45 1673.78 533.26C1669.41 535.069 1664.73 536 1660 536" stroke="#3E97D5" stroke-width="8"/>
<path d="M1504 460C1504 464.728 1504.93 469.409 1506.74 473.777C1508.55 478.144 1511.2 482.113 1514.54 485.456C1517.89 488.799 1521.86 491.45 1526.22 493.26C1530.59 495.069 1535.27 496 1540 496" stroke="#3E97D5" stroke-width="8"/>
<path d="M1524 348C1524 352.728 1524.93 357.409 1526.74 361.777C1528.55 366.144 1531.2 370.113 1534.54 373.456C1537.89 376.799 1541.86 379.45 1546.22 381.26C1550.59 383.069 1555.27 384 1560 384" stroke="#3E97D5" stroke-width="8"/>
<path d="M1676 388C1676 392.728 1675.07 397.409 1673.26 401.777C1671.45 406.144 1668.8 410.113 1665.46 413.456C1662.11 416.799 1658.14 419.45 1653.78 421.26C1649.41 423.069 1644.73 424 1640 424" stroke="#3E97D5" stroke-width="8"/>
<path d="M1660 468C1660 472.728 1660.93 477.409 1662.74 481.777C1664.55 486.144 1667.2 490.113 1670.54 493.456C1673.89 496.799 1677.86 499.45 1682.22 501.26C1686.59 503.069 1691.27 504 1696 504C1700.73 504 1705.41 503.069 1709.78 501.26C1714.14 499.45 1718.11 496.799 1721.46 493.456C1724.8 490.113 1727.45 486.144 1729.26 481.777C1731.07 477.409 1732 472.728 1732 468" stroke="#3E97D5" stroke-width="8"/>
<path d="M1540 428C1540 432.728 1539.07 437.409 1537.26 441.777C1535.45 446.144 1532.8 450.113 1529.46 453.456C1526.11 456.799 1522.14 459.45 1517.78 461.26C1513.41 463.069 1508.73 464 1504 464C1499.27 464 1494.59 463.069 1490.22 461.26C1485.86 459.45 1481.89 456.799 1478.54 453.456C1475.2 450.113 1472.55 446.144 1470.74 441.777C1468.93 437.409 1468 432.728 1468 428" stroke="#3E97D5" stroke-width="8"/>
<path d="M1650 364C1650 367.414 1650.67 370.795 1651.98 373.95C1653.29 377.104 1655.2 379.97 1657.62 382.385C1660.03 384.799 1662.9 386.714 1666.05 388.021C1669.2 389.327 1672.59 390 1676 390C1679.41 390 1682.8 389.327 1685.95 388.021C1689.1 386.714 1691.97 384.799 1694.38 382.385C1696.8 379.97 1698.71 377.104 1700.02 373.95C1701.33 370.795 1702 367.414 1702 364" stroke="#3E97D5" stroke-width="8"/>
<path d="M1574 289C1574 292.414 1574.67 295.795 1575.98 298.95C1577.29 302.104 1579.2 304.97 1581.62 307.385C1584.03 309.799 1586.9 311.714 1590.05 313.021C1593.2 314.327 1596.59 315 1600 315C1603.41 315 1606.8 314.327 1609.95 313.021C1613.1 311.714 1615.97 309.799 1618.38 307.385C1620.8 304.97 1622.71 302.104 1624.02 298.95C1625.33 295.795 1626 292.414 1626 289" stroke="#3E97D5" stroke-width="8"/>
<path d="M1716 432C1716 434.101 1716.41 436.182 1717.22 438.123C1718.02 440.064 1719.2 441.828 1720.69 443.314C1722.17 444.799 1723.94 445.978 1725.88 446.782C1727.82 447.586 1729.9 448 1732 448C1734.1 448 1736.18 447.586 1738.12 446.782C1740.06 445.978 1741.83 444.799 1743.31 443.314C1744.8 441.828 1745.98 440.064 1746.78 438.123C1747.59 436.182 1748 434.101 1748 432" stroke="#3E97D5" stroke-width="8"/>
<path d="M1644 452C1644 454.101 1644.41 456.182 1645.22 458.123C1646.02 460.064 1647.2 461.828 1648.69 463.314C1650.17 464.799 1651.94 465.978 1653.88 466.782C1655.82 467.586 1657.9 468 1660 468C1662.1 468 1664.18 467.586 1666.12 466.782C1668.06 465.978 1669.83 464.799 1671.31 463.314C1672.8 461.828 1673.98 460.064 1674.78 458.123C1675.59 456.182 1676 454.101 1676 452" stroke="#3E97D5" stroke-width="8"/>
<path d="M1484 392C1484 394.101 1483.59 396.182 1482.78 398.123C1481.98 400.064 1480.8 401.828 1479.31 403.314C1477.83 404.799 1476.06 405.978 1474.12 406.782C1472.18 407.586 1470.1 408 1468 408C1465.9 408 1463.82 407.586 1461.88 406.782C1459.94 405.978 1458.17 404.799 1456.69 403.314C1455.2 401.828 1454.02 400.064 1453.22 398.123C1452.41 396.182 1452 394.101 1452 392" stroke="#3E97D5" stroke-width="8"/>
<path d="M1540 332C1540 334.101 1539.59 336.182 1538.78 338.123C1537.98 340.064 1536.8 341.828 1535.31 343.314C1533.83 344.799 1532.06 345.978 1530.12 346.782C1528.18 347.586 1526.1 348 1524 348C1521.9 348 1519.82 347.586 1517.88 346.782C1515.94 345.978 1514.17 344.799 1512.69 343.314C1511.2 341.828 1510.02 340.064 1509.22 338.123C1508.41 336.182 1508 334.101 1508 332" stroke="#3E97D5" stroke-width="8"/>
<path d="M1686 349C1686 351.101 1686.41 353.182 1687.22 355.123C1688.02 357.064 1689.2 358.828 1690.69 360.314C1692.17 361.799 1693.94 362.978 1695.88 363.782C1697.82 364.586 1699.9 365 1702 365C1704.1 365 1706.18 364.586 1708.12 363.782C1710.06 362.978 1711.83 361.799 1713.31 360.314C1714.8 358.828 1715.98 357.064 1716.78 355.123C1717.59 353.182 1718 351.101 1718 349" stroke="#3E97D5" stroke-width="8"/>
<path d="M1524 540C1524 542.101 1524.41 544.182 1525.22 546.123C1526.02 548.064 1527.2 549.828 1528.69 551.314C1530.17 552.799 1531.94 553.978 1533.88 554.782C1535.82 555.586 1537.9 556 1540 556" stroke="#3E97D5" stroke-width="8"/>
<path d="M1556 412C1556 414.101 1555.59 416.182 1554.78 418.123C1553.98 420.064 1552.8 421.828 1551.31 423.314C1549.83 424.799 1548.06 425.978 1546.12 426.782C1544.18 427.586 1542.1 428 1540 428C1537.9 428 1535.82 427.586 1533.88 426.782C1531.94 425.978 1530.17 424.799 1528.69 423.314C1527.2 421.828 1526.02 420.064 1525.22 418.123C1524.41 416.182 1524 414.101 1524 412" stroke="#3E97D5" stroke-width="8"/>
<path d="M1540 524C1540 526.101 1539.59 528.182 1538.78 530.123C1537.98 532.064 1536.8 533.828 1535.31 535.314C1533.83 536.799 1532.06 537.978 1530.12 538.782C1528.18 539.586 1526.1 540 1524 540C1521.9 540 1519.82 539.586 1517.88 538.782C1515.94 537.978 1514.17 536.799 1512.69 535.314C1511.2 533.828 1510.02 532.064 1509.22 530.123C1508.41 528.182 1508 526.101 1508 524" stroke="#3E97D5" stroke-width="8"/>
<path d="M1634 329C1634 331.101 1634.41 333.182 1635.22 335.123C1636.02 337.064 1637.2 338.828 1638.69 340.314C1640.17 341.799 1641.94 342.978 1643.88 343.782C1645.82 344.586 1647.9 345 1650 345C1652.1 345 1654.18 344.586 1656.12 343.782C1658.06 342.978 1659.83 341.799 1661.31 340.314C1662.8 338.828 1663.98 337.064 1664.78 335.123C1665.59 333.182 1666 331.101 1666 329" stroke="#3E97D5" stroke-width="8"/>
<path d="M1610 261C1610 263.101 1610.41 265.182 1611.22 267.123C1612.02 269.064 1613.2 270.828 1614.69 272.314C1616.17 273.799 1617.94 274.978 1619.88 275.782C1621.82 276.586 1623.9 277 1626 277C1628.1 277 1630.18 276.586 1632.12 275.782C1634.06 274.978 1635.83 273.799 1637.31 272.314C1638.8 270.828 1639.98 269.064 1640.78 267.123C1641.59 265.182 1642 263.101 1642 261" stroke="#3E97D5" stroke-width="8"/>
<path d="M1600 552C1600 549.899 1600.41 547.818 1601.22 545.877C1602.02 543.936 1603.2 542.172 1604.69 540.686C1606.17 539.201 1607.94 538.022 1609.88 537.218C1611.82 536.414 1613.9 536 1616 536" stroke="#3E97D5" stroke-width="8"/>
<path d="M1600 512C1600 509.899 1599.59 507.818 1598.78 505.877C1597.98 503.936 1596.8 502.172 1595.31 500.686C1593.83 499.201 1592.06 498.022 1590.12 497.218C1588.18 496.414 1586.1 496 1584 496" stroke="#3E97D5" stroke-width="8"/>
<path d="M1600 440C1600 437.899 1600.41 435.818 1601.22 433.877C1602.02 431.936 1603.2 430.172 1604.69 428.686C1606.17 427.201 1607.94 426.022 1609.88 425.218C1611.82 424.414 1613.9 424 1616 424" stroke="#3E97D5" stroke-width="8"/>
<path d="M1600 400C1600 397.899 1599.59 395.818 1598.78 393.877C1597.98 391.936 1596.8 390.172 1595.31 388.686C1593.83 387.201 1592.06 386.022 1590.12 385.218C1588.18 384.414 1586.1 384 1584 384" stroke="#3E97D5" stroke-width="8"/>
<path d="M1600 572C1600 569.899 1599.59 567.818 1598.78 565.877C1597.98 563.936 1596.8 562.172 1595.31 560.686C1593.83 559.201 1592.06 558.022 1590.12 557.218C1588.18 556.414 1586.1 556 1584 556" stroke="#3E97D5" stroke-width="8"/>
<circle r="4" transform="matrix(-1 0 0 1 1636 628)" fill="#3E97D5"/>
<circle r="4" transform="matrix(-1 0 0 1 1564 628)" fill="#3E97D5"/>
<circle r="4" transform="matrix(-1 0 0 1 1540 524)" fill="#3E97D5"/>
<circle r="4" transform="matrix(-1 0 0 1 1660 468)" fill="#3E97D5"/>
<circle r="4" transform="matrix(-1 0 0 1 1716 432)" fill="#3E97D5"/>
<circle r="4" transform="matrix(-1 0 0 1 1644 452)" fill="#3E97D5"/>
<circle r="4" transform="matrix(-1 0 0 1 1718 349)" fill="#3E97D5"/>
<circle r="4" transform="matrix(-1 0 0 1 1686 349)" fill="#3E97D5"/>
<circle r="4" transform="matrix(-1 0 0 1 1666 329)" fill="#3E97D5"/>
<circle r="4" transform="matrix(-1 0 0 1 1642 261)" fill="#3E97D5"/>
<circle r="4" transform="matrix(-1 0 0 1 1610 261)" fill="#3E97D5"/>
<circle r="4" transform="matrix(-1 0 0 1 1574 289)" fill="#3E97D5"/>
<circle r="4" transform="matrix(-1 0 0 1 1540 332)" fill="#3E97D5"/>
<circle r="4" transform="matrix(-1 0 0 1 1508 332)" fill="#3E97D5"/>
<circle r="4" transform="matrix(-1 0 0 1 1524 412)" fill="#3E97D5"/>
<circle r="4" transform="matrix(-1 0 0 1 1556 412)" fill="#3E97D5"/>
<circle r="4" transform="matrix(-1 0 0 1 1484 392)" fill="#3E97D5"/>
<circle r="4" transform="matrix(-1 0 0 1 1452 392)" fill="#3E97D5"/>
<circle r="4" transform="matrix(-1 0 0 1 1634 329)" fill="#3E97D5"/>
<circle r="4" transform="matrix(-1 0 0 1 1748 432)" fill="#3E97D5"/>
<circle r="4" transform="matrix(-1 0 0 1 1676 452)" fill="#3E97D5"/>
<circle r="4" transform="matrix(-1 0 0 1 1508 524)" fill="#3E97D5"/>
</g>
<path d="M569.272 7.27208C571.789 4.75473 574.997 3.0404 578.488 2.34586C581.98 1.65133 585.599 2.00779 588.888 3.37017C592.177 4.73255 594.989 7.03965 596.966 9.99974C598.944 12.9598 600 16.4399 600 20" stroke="#919191" stroke-width="4" stroke-linecap="round"/>
<path d="M630.728 7.27208C628.211 4.75473 625.003 3.0404 621.512 2.34586C618.02 1.65133 614.401 2.00779 611.112 3.37017C607.823 4.73255 605.011 7.03965 603.034 9.99974C601.056 12.9598 600 16.4399 600 20" stroke="#919191" stroke-width="4" stroke-linecap="round"/>
<path d="M625.272 59.2721C627.789 56.7547 630.997 55.0404 634.488 54.3459C637.98 53.6513 641.599 54.0078 644.888 55.3702C648.177 56.7325 650.989 59.0397 652.966 61.9997C654.944 64.9598 656 68.4399 656 72" stroke="#4C4851" stroke-width="4" stroke-linecap="round"/>
<path d="M686.728 59.2721C684.211 56.7547 681.003 55.0404 677.512 54.3459C674.02 53.6513 670.401 54.0078 667.112 55.3702C663.823 56.7325 661.011 59.0397 659.034 61.9997C657.056 64.9598 656 68.4399 656 72" stroke="#4C4851" stroke-width="4" stroke-linecap="round"/>
<path d="M687.272 25.2721C689.789 22.7547 692.997 21.0404 696.488 20.3459C699.98 19.6513 703.599 20.0078 706.888 21.3702C710.177 22.7325 712.989 25.0397 714.966 27.9997C716.944 30.9598 718 34.4399 718 38" stroke="#919191" stroke-width="4" stroke-linecap="round"/>
<path d="M748.728 25.2721C746.211 22.7547 743.003 21.0404 739.512 20.3459C736.02 19.6513 732.401 20.0078 729.112 21.3702C725.823 22.7325 723.011 25.0397 721.034 27.9997C719.056 30.9598 718 34.4399 718 38" stroke="#919191" stroke-width="4" stroke-linecap="round"/>
<defs>
<filter id="filter0_d_783_56" x="1264" y="220" width="264" height="353" filterUnits="userSpaceOnUse" color-interpolation-filters="sRGB">
<feFlood flood-opacity="0" result="BackgroundImageFix"/>
<feColorMatrix in="SourceAlpha" type="matrix" values="0 0 0 0 0 0 0 0 0 0 0 0 0 0 0 0 0 0 127 0" result="hardAlpha"/>
<feOffset dy="4"/>
<feGaussianBlur stdDeviation="2"/>
<feComposite in2="hardAlpha" operator="out"/>
<feColorMatrix type="matrix" values="0 0 0 0 0 0 0 0 0 0 0 0 0 0 0 0 0 0 0.25 0"/>
<feBlend mode="normal" in2="BackgroundImageFix" result="effect1_dropShadow_783_56"/>
<feBlend mode="normal" in="SourceGraphic" in2="effect1_dropShadow_783_56" result="shape"/>
</filter>
<filter id="filter1_d_783_56" x="1596" y="36" width="448" height="576" filterUnits="userSpaceOnUse" color-interpolation-filters="sRGB">
<feFlood flood-opacity="0" result="BackgroundImageFix"/>
<feColorMatrix in="SourceAlpha" type="matrix" values="0 0 0 0 0 0 0 0 0 0 0 0 0 0 0 0 0 0 127 0" result="hardAlpha"/>
<feOffset dy="4"/>
<feGaussianBlur stdDeviation="2"/>
<feComposite in2="hardAlpha" operator="out"/>
<feColorMatrix type="matrix" values="0 0 0 0 0 0 0 0 0 0 0 0 0 0 0 0 0 0 0.25 0"/>
<feBlend mode="normal" in2="BackgroundImageFix" result="effect1_dropShadow_783_56"/>
<feBlend mode="normal" in="SourceGraphic" in2="effect1_dropShadow_783_56" result="shape"/>
</filter>
<filter id="filter2_d_783_56" x="324" y="224" width="284" height="349" filterUnits="userSpaceOnUse" color-interpolation-filters="sRGB">
<feFlood flood-opacity="0" result="BackgroundImageFix"/>
<feColorMatrix in="SourceAlpha" type="matrix" values="0 0 0 0 0 0 0 0 0 0 0 0 0 0 0 0 0 0 127 0" result="hardAlpha"/>
<feOffset dy="4"/>
<feGaussianBlur stdDeviation="2"/>
<feComposite in2="hardAlpha" operator="out"/>
<feColorMatrix type="matrix" values="0 0 0 0 0 0 0 0 0 0 0 0 0 0 0 0 0 0 0.25 0"/>
<feBlend mode="normal" in2="BackgroundImageFix" result="effect1_dropShadow_783_56"/>
<feBlend mode="normal" in="SourceGraphic" in2="effect1_dropShadow_783_56" result="shape"/>
</filter>
<filter id="filter3_d_783_56" x="-134" y="137" width="398" height="475" filterUnits="userSpaceOnUse" color-interpolation-filters="sRGB">
<feFlood flood-opacity="0" result="BackgroundImageFix"/>
<feColorMatrix in="SourceAlpha" type="matrix" values="0 0 0 0 0 0 0 0 0 0 0 0 0 0 0 0 0 0 127 0" result="hardAlpha"/>
<feOffset dy="4"/>
<feGaussianBlur stdDeviation="2"/>
<feComposite in2="hardAlpha" operator="out"/>
<feColorMatrix type="matrix" values="0 0 0 0 0 0 0 0 0 0 0 0 0 0 0 0 0 0 0.25 0"/>
<feBlend mode="normal" in2="BackgroundImageFix" result="effect1_dropShadow_783_56"/>
<feBlend mode="normal" in="SourceGraphic" in2="effect1_dropShadow_783_56" result="shape"/>
</filter>
<filter id="filter4_d_783_56" x="36" y="16" width="448" height="616" filterUnits="userSpaceOnUse" color-interpolation-filters="sRGB">
<feFlood flood-opacity="0" result="BackgroundImageFix"/>
<feColorMatrix in="SourceAlpha" type="matrix" values="0 0 0 0 0 0 0 0 0 0 0 0 0 0 0 0 0 0 127 0" result="hardAlpha"/>
<feOffset dy="4"/>
<feGaussianBlur stdDeviation="2"/>
<feComposite in2="hardAlpha" operator="out"/>
<feColorMatrix type="matrix" values="0 0 0 0 0 0 0 0 0 0 0 0 0 0 0 0 0 0 0.25 0"/>
<feBlend mode="normal" in2="BackgroundImageFix" result="effect1_dropShadow_783_56"/>
<feBlend mode="normal" in="SourceGraphic" in2="effect1_dropShadow_783_56" result="shape"/>
</filter>
<filter id="filter5_d_783_56" x="896" y="439" width="128" height="161" filterUnits="userSpaceOnUse" color-interpolation-filters="sRGB">
<feFlood flood-opacity="0" result="BackgroundImageFix"/>
<feColorMatrix in="SourceAlpha" type="matrix" values="0 0 0 0 0 0 0 0 0 0 0 0 0 0 0 0 0 0 127 0" result="hardAlpha"/>
<feOffset dy="4"/>
<feGaussianBlur stdDeviation="2"/>
<feComposite in2="hardAlpha" operator="out"/>
<feColorMatrix type="matrix" values="0 0 0 0 0 0 0 0 0 0 0 0 0 0 0 0 0 0 0.25 0"/>
<feBlend mode="normal" in2="BackgroundImageFix" result="effect1_dropShadow_783_56"/>
<feBlend mode="normal" in="SourceGraphic" in2="effect1_dropShadow_783_56" result="shape"/>
</filter>
<filter id="filter6_d_783_56" x="1416" y="159" width="368" height="481" filterUnits="userSpaceOnUse" color-interpolation-filters="sRGB">
<feFlood flood-opacity="0" result="BackgroundImageFix"/>
<feColorMatrix in="SourceAlpha" type="matrix" values="0 0 0 0 0 0 0 0 0 0 0 0 0 0 0 0 0 0 127 0" result="hardAlpha"/>
<feOffset dy="4"/>
<feGaussianBlur stdDeviation="2"/>
<feComposite in2="hardAlpha" operator="out"/>
<feColorMatrix type="matrix" values="0 0 0 0 0 0 0 0 0 0 0 0 0 0 0 0 0 0 0.25 0"/>
<feBlend mode="normal" in2="BackgroundImageFix" result="effect1_dropShadow_783_56"/>
<feBlend mode="normal" in="SourceGraphic" in2="effect1_dropShadow_783_56" result="shape"/>
</filter>
</defs>
</svg>
